<svg width="20" height="20" viewBox="0 0 20 20" fill="none" xmlns="http://www.w3.org/2000/svg">
<g clip-path="url(#clip0_944_1127)">
<path d="M0.419748 9.11719C-0.138288 9.60547 -0.138288 10.3984 0.419748 10.8867L7.5626 17.1367C8.12064 17.625 9.02689 17.625 9.58493 17.1367C10.143 16.6484 10.143 15.8555 9.58493 15.3672L4.8751 11.25H18.5715C19.3617 11.25 20.0001 10.6914 20.0001 10C20.0001 9.30859 19.3617 8.75 18.5715 8.75H4.87957L9.58046 4.63281C10.1385 4.14453 10.1385 3.35156 9.58046 2.86328C9.02243 2.375 8.11618 2.375 7.55814 2.86328L0.415283 9.11328L0.419748 9.11719Z" fill="#003366"/>
</g>
<defs>
<clipPath id="clip0_944_1127">
<rect width="20" height="20" fill="white"/>
</clipPath>
</defs>
</svg>
