<svg width="39" height="38" viewBox="0 0 39 38" fill="none" xmlns="http://www.w3.org/2000/svg">
<path fill-rule="evenodd" clip-rule="evenodd" d="M19.479 14.1099C22.4811 14.1099 24.914 16.2058 24.914 18.7919C24.914 21.378 22.4811 23.4739 19.479 23.4739C16.4769 23.4739 14.0439 21.378 14.0439 18.7919C14.0439 16.2058 16.4769 14.1099 19.479 14.1099Z" stroke="#003366" stroke-width="1.5" stroke-linecap="round" stroke-linejoin="round"/>
<path fill-rule="evenodd" clip-rule="evenodd" d="M37.2366 9.8963V9.8963C35.7505 7.66344 32.4608 6.89942 29.8895 8.18881C27.653 9.30802 24.8578 7.90763 24.8578 5.66736C24.8578 3.09042 22.4486 1 19.4787 1V1C16.5087 1 14.0995 3.09042 14.0995 5.66736C14.0995 7.90763 11.3043 9.30802 9.06995 8.18881C6.49656 6.89942 3.20679 7.66344 1.72075 9.8963C0.236834 12.1292 1.11737 14.9836 3.69077 16.2711C5.92516 17.3922 5.92516 20.1911 3.69077 21.3122C1.11737 22.6016 0.236834 25.456 1.72075 27.687C3.20679 29.9199 6.49656 30.6839 9.06782 29.3964H9.06995C11.3043 28.2753 14.0995 29.6757 14.0995 31.916V31.916C14.0995 34.4929 16.5087 36.5833 19.4787 36.5833V36.5833C22.4486 36.5833 24.8578 34.4929 24.8578 31.916V31.916C24.8578 29.6757 27.653 28.2753 29.8895 29.3964C32.4608 30.6839 35.7505 29.9199 37.2366 27.687C38.7226 25.456 37.8399 22.6016 35.2687 21.3122H35.2665C33.0321 20.1911 33.0321 17.3922 35.2687 16.2711C37.8399 14.9836 38.7226 12.1292 37.2366 9.8963Z" stroke="#003366" stroke-width="1.5" stroke-linecap="round" stroke-linejoin="round"/>
</svg>
