<svg width="439" height="537" viewBox="0 0 439 537" fill="none" xmlns="http://www.w3.org/2000/svg">
<path d="M395.455 525.78C395.455 531.977 306.93 537 197.728 537C88.5256 537 0 531.977 0 525.78C0 519.583 88.5256 514.56 197.728 514.56C306.93 514.56 395.455 519.583 395.455 525.78Z" fill="#DDCEB6"/>
<path d="M283.548 489.22L283.932 518.036L235.809 518.753C235.809 518.753 233.653 498.807 245.989 498.623C258.326 498.439 267.099 489.466 267.099 489.466L283.548 489.22Z" fill="#3ECCB4"/>
<path d="M283.891 514.925L235.663 515.644L235.881 511.338L283.833 510.623L283.891 514.925Z" fill="white"/>
<path d="M265.056 491.261L272.835 494.457L272.09 496.924L263.335 492.554L265.056 491.261Z" fill="white"/>
<path d="M260.776 494.209L269.675 499.253L268.193 501.567L258.765 495.311L260.776 494.209Z" fill="white"/>
<path d="M378.69 353.979L395.346 331.166L433.445 362.257C433.445 362.257 423.395 379.29 413.628 371.321C403.862 363.351 391.713 364.606 391.713 364.606L378.69 353.979Z" fill="#3ECCB4"/>
<path d="M393.549 333.629L431.73 364.786L429.025 368.015L391.062 337.035L393.549 333.629Z" fill="white"/>
<path d="M394.369 364.544L390.159 356.926L392.195 355.484L396.477 364.663L394.369 364.544Z" fill="white"/>
<path d="M399.454 365.051L395.455 355.249L397.978 354.412L401.677 365.51L399.454 365.051Z" fill="white"/>
<path d="M252.268 227.693C252.268 227.693 238.236 291.251 242.957 370.737C247.678 450.224 259.798 493.773 259.798 493.773H284.992C284.992 493.773 268.326 398.231 267.51 362.875C266.694 327.52 271.288 281.073 271.288 281.073L277.543 280.379C277.543 280.379 285.921 330.293 308.11 367.035C330.301 403.776 354.359 391.298 368.887 385.059C383.415 378.82 394.368 364.544 394.368 364.544L382.042 348.383C382.042 348.383 367.349 366.833 349.645 367.381C331.94 367.93 319.724 347.624 313.865 315.042C308.006 282.459 299.842 249.568 296.53 233.585C293.219 217.603 252.268 227.693 252.268 227.693Z" fill="#8ACADD"/>
<path d="M196.529 35.5425C196.529 35.5425 202.108 31.2334 202.464 28.2763C202.82 25.3197 203.84 22.1914 205.228 20.6285C206.616 19.0656 207.791 18.178 207.465 16.3646C207.139 14.5513 204.592 15.4648 203.333 16.8483C202.072 18.2324 199.434 24.5708 199.155 24.205C198.875 23.8391 202.312 3.90121 201.71 2.85251C201.107 1.80432 198.707 1.56653 197.839 5.23951C196.971 8.91249 196.115 16.7294 196.115 16.7294C196.115 16.7294 195.499 3.2163 194.702 1.30588C193.904 -0.604534 191.805 -0.31797 191.446 1.50861C191.087 3.33468 191.424 16.8595 191.424 16.8595C191.424 16.8595 188.262 3.8819 187.593 2.35763C186.925 0.833359 184.248 0.795254 184.407 4.16643C184.566 7.5376 186.347 17.1522 186.347 17.1522C186.347 17.1522 181.602 8.53803 180.855 7.65548C180.109 6.77293 178.001 7.33335 178.871 10.4307C179.742 13.528 183.64 21.316 183.64 21.316C183.64 21.316 184.566 29.5338 185.179 31.2959C185.792 33.0584 187.685 34.882 187.685 34.882L196.529 35.5425Z" fill="#E58E63"/>
<path d="M256.203 115.671C256.203 115.671 227.351 104.897 215.875 84.1459C204.4 63.394 199.607 33.9614 199.607 33.9614L185.179 36.011C185.179 36.011 188.663 83.0642 206.039 111.531C223.416 139.998 242.089 149.702 242.089 149.702C242.089 149.702 244.235 136.705 247.842 128.732C251.449 120.76 256.203 115.671 256.203 115.671Z" fill="#3ECCB4"/>
<path d="M181.741 42.6255C181.741 42.6255 176.163 38.3164 175.807 35.3593C175.45 32.4027 174.431 29.2744 173.043 27.7115C171.655 26.1487 170.48 25.261 170.806 23.4476C171.132 21.6343 173.678 22.5478 174.938 23.9314C176.198 25.3154 178.837 31.6538 179.116 31.288C179.396 30.9222 175.959 10.9842 176.561 9.93602C177.164 8.88733 179.563 8.64954 180.431 12.3225C181.3 15.9955 182.156 23.8125 182.156 23.8125C182.156 23.8125 182.772 10.2998 183.569 8.38889C184.367 6.47847 186.465 6.76504 186.824 8.59111C187.184 10.4177 186.847 23.9425 186.847 23.9425C186.847 23.9425 190.009 10.9649 190.677 9.44064C191.346 7.91637 194.023 7.87826 193.864 11.2494C193.704 14.6206 191.924 24.2352 191.924 24.2352C191.924 24.2352 196.669 15.621 197.415 14.7385C198.162 13.8559 200.27 14.4164 199.4 17.5137C198.529 20.611 194.631 28.399 194.631 28.399C194.631 28.399 193.705 36.6168 193.092 38.3789C192.478 40.1414 190.585 41.965 190.585 41.965L181.741 42.6255Z" fill="#F4BB82"/>
<path d="M410.256 118.08C410.256 118.08 407.677 111.303 408.853 108.595C410.03 105.886 410.73 102.661 410.334 100.559C409.937 98.4562 409.383 97.0457 410.567 95.6891C411.751 94.3325 413.456 96.531 413.833 98.4099C414.21 100.289 413.279 107.143 413.699 106.989C414.119 106.835 421.175 87.9916 422.211 87.4382C423.247 86.8854 425.402 88.0251 424.302 91.628C423.202 95.2303 420.018 102.344 420.018 102.344C420.018 102.344 427.3 91.2189 428.932 90.0437C430.565 88.868 432.203 90.2841 431.594 92.0349C430.985 93.7858 423.934 105.077 423.934 105.077C423.934 105.077 433.11 95.8304 434.439 94.9102C435.769 93.9896 438.06 95.4544 436.239 98.2265C434.418 100.999 428.097 108.164 428.097 108.164C428.097 108.164 436.433 103.505 437.508 103.173C438.583 102.841 440.092 104.496 437.804 106.638C435.516 108.78 428.312 113.211 428.312 113.211C428.312 113.211 423.415 119.668 422.014 120.821C420.612 121.974 418.093 122.463 418.093 122.463L410.256 118.08Z" fill="#F4BB82"/>
<path d="M118.718 353.15C118.718 353.15 112.719 402.159 103.915 428.502C95.1111 454.845 78.2551 493.772 78.2551 493.772L62.6641 488.225C62.6641 488.225 78.3801 429.195 83.9637 404.701C89.5472 380.206 94.6742 346.93 94.6742 346.93L115.828 353.15H118.718Z" fill="#F4BB82"/>
<path d="M181.122 343.118C181.122 343.118 191.613 380.172 192.597 411.211C193.581 442.252 181.122 502.217 181.122 502.217H164.582C164.582 502.217 172.649 431.125 169.344 411.211C166.04 391.298 153.909 353.15 153.909 353.15L181.122 343.118Z" fill="#F4BB82"/>
<path d="M152.379 246.872C152.379 246.872 166.805 270.443 176.859 305.567C186.914 340.691 188.225 350.859 188.225 350.859L152.379 362.875L135.767 308.802L129.839 309.264L120.029 362.875L86.0308 356.867C86.0308 356.867 98.2115 306.029 99.066 300.945C99.92 295.861 103.872 271.829 111.295 261.662C118.718 251.494 152.379 246.872 152.379 246.872Z" fill="#466D59"/>
<path d="M70.2934 165.994C70.2934 165.994 37.844 196.959 35.6582 229.31C33.4725 261.662 74.664 257.964 74.664 257.964L78.0623 245.024C78.0623 245.024 60.4897 242.713 58.7846 232.546C57.0789 222.378 79.8251 209.711 79.8251 209.711L70.2934 165.994Z" fill="#C91F1F"/>
<path d="M164.582 502.217L164.574 531.035L212.703 531.05C212.703 531.05 214.598 511.074 202.26 511.07C189.922 511.066 181.032 502.222 181.032 502.222L164.582 502.217Z" fill="#EF2D0F"/>
<path d="M164.575 527.924L212.807 527.938L212.533 523.635L164.576 523.621L164.575 527.924Z" fill="white"/>
<path d="M181.623 503.987L173.887 507.296L174.664 509.752L183.36 505.255L181.623 503.987Z" fill="white"/>
<path d="M185.941 506.872L177.109 512.045L178.621 514.338L187.967 507.945L185.941 506.872Z" fill="white"/>
<path d="M62.6642 488.225L53.9688 515.538L99.5827 531.769C99.5827 531.769 107.401 513.473 95.7077 509.312C84.0147 505.151 78.2553 493.773 78.2553 493.773L62.6642 488.225Z" fill="#EF2D0F"/>
<path d="M54.9072 512.589L100.62 528.855L101.657 524.684L56.2053 508.511L54.9072 512.589Z" fill="white"/>
<path d="M78.2833 495.645L69.9531 496.174L69.9492 498.765L79.5477 497.432L78.2833 495.645Z" fill="white"/>
<path d="M81.5058 499.834L71.5747 501.762L72.3172 504.444L83.1028 501.534L81.5058 499.834Z" fill="white"/>
<path d="M107.916 128.811L115.597 144.997C115.597 144.997 115.65 151.329 106.973 154.553C98.2961 157.776 92.0839 153.772 92.0839 153.772L86.0308 131.363L107.916 128.811Z" fill="#F4BB82"/>
<path d="M90.1333 146.551C90.1333 146.551 97.5648 146.932 104.385 142.627C111.206 138.323 111.295 135.932 111.295 135.932L110.92 134.752L86.8364 133.899L90.1333 146.551Z" fill="#E58E63"/>
<path d="M116.405 89.4273L120.221 101.434C120.221 101.434 127.68 125.885 117.208 132.004C106.736 138.123 91.9257 136.89 86.8366 133.899C81.7471 130.908 77.489 123.811 77.489 123.811C77.489 123.811 72.7345 127.334 67.1153 120.156C61.4962 112.977 64.4509 109.952 64.4509 109.952C64.4509 109.952 66.367 107.859 69.3559 108.021C72.3442 108.183 73.1728 108.83 73.1728 108.83C73.1728 108.83 63.1067 93.3975 62.925 83.8637C62.7433 74.3304 77.4674 60.867 94.6031 63.814C111.739 66.7609 116.405 89.4273 116.405 89.4273Z" fill="#F4BB82"/>
<path d="M67.2289 117.151C67.2289 117.151 65.3531 113.63 66.0975 112.472C66.842 111.313 71.0708 111.175 73.4416 115.415C75.8123 119.654 74.186 120.279 73.146 120.507C72.106 120.735 70.6358 119.47 70.3907 117.298C70.1456 115.127 71.053 115.04 71.053 115.04C71.053 115.04 68.7403 112.271 67.3798 113.145C66.0197 114.019 67.5312 117.122 67.5312 117.122L67.2289 117.151Z" fill="#E58E63"/>
<path d="M115.286 88.2991C114.327 85.2836 114.724 80.4252 112.931 73.3094C111.138 66.1936 104.611 66.0778 104.611 66.0778L108.671 64.6353C108.671 64.6353 98.6066 56.9322 86.5133 57.9529C74.42 58.9742 57.8413 66.9395 51.98 76.768C51.98 76.768 53.1901 95.5297 60.4861 103.534C67.782 111.539 87.1275 112.854 96.1382 106.015C105.149 99.1757 104.376 87.9449 106.193 87.2997C108.009 86.6544 111.271 91.908 111.271 91.908C111.271 91.908 112.595 93.6584 114.338 96.023C114.22 94.6807 114.138 93.8906 114.138 93.8906C114.138 93.8906 117.167 94.2183 115.286 88.2991Z" fill="#8E5930"/>
<path d="M106.193 87.2995C104.376 87.9448 105.149 99.1761 96.1379 106.015C87.1272 112.854 67.7822 111.539 60.4858 103.535C53.1898 95.5296 51.9797 76.7678 51.9797 76.7678C51.9797 76.7678 50.2125 92.5303 61.001 114.566C71.7894 136.601 76.7602 132.726 82.8432 134.567C87.6405 136.019 91.6732 139.071 91.6732 139.071C91.6732 139.071 92.1518 135.286 95.2368 130.915C98.3218 126.545 111.782 122.215 113.615 114.178C115.289 106.834 114.667 99.7797 114.338 96.0229C112.595 93.6588 111.27 91.9084 111.27 91.9084C111.27 91.9084 108.009 86.6543 106.193 87.2995Z" fill="#6B371B"/>
<path d="M115.449 95.8466C115.449 95.8466 109.401 86.1599 108.009 86.6543C106.618 87.1481 106.635 94.9189 110.211 102.517C113.788 110.115 117.262 106.834 117.262 106.834L115.449 95.8466Z" fill="#F4BB82"/>
<mask id="mask0_81_1086" style="mask-type:luminance" maskUnits="userSpaceOnUse" x="58" y="58" width="43" height="20">
<path d="M58.7847 58.61H100.866V77.8005H58.7847V58.61Z" fill="white"/>
</mask>
<g mask="url(#mask0_81_1086)">
<g opacity="0.240005">
<path d="M58.7842 73.3088C58.7842 73.3088 79.955 73.2326 86.3349 67.4658C92.7148 61.699 86.7511 58.6082 86.7511 58.6082C86.7511 58.6082 97.1897 59.3414 98.8439 60.256C100.498 61.1705 106.204 70.1917 86.1331 75.6252C66.0623 81.0582 58.8072 74.6095 58.8072 74.6095L58.7842 73.3088Z" fill="#FFE7D7"/>
</g>
</g>
<path d="M70.2933 165.994C70.2933 165.994 75.9163 155.779 99.0657 146.56C122.215 137.34 136.204 134.018 138.39 136.372C140.575 138.726 148.444 162.297 149.756 192.799C151.067 223.302 152.378 246.872 152.378 246.872C152.378 246.872 143.635 252.88 129.647 257.04C115.657 261.199 111.295 261.662 111.295 261.662C111.295 261.662 82.6317 218.831 74.6639 198.651C66.6961 178.472 70.2933 165.994 70.2933 165.994Z" fill="#EF461E"/>
<path d="M180.029 41.557C180.029 41.557 173.909 75.0269 162.105 99.8867C150.302 124.746 129.851 136.372 129.851 136.372C129.851 136.372 129.318 149.01 135.22 158.368C141.122 167.727 148.412 176.512 148.412 176.512C148.412 176.512 178.827 129.176 185.712 101.349C192.597 73.5225 192.105 41.557 192.105 41.557H180.029Z" fill="#C91F1F"/>
<path d="M187.762 348.184L151.674 360.581L150.927 358.149L187.265 345.718L187.762 348.184Z" fill="#EF461E"/>
<path d="M86.7266 353.957L120.547 360.048L121.104 357.002L87.3042 351.539L86.7266 353.957Z" fill="#EF461E"/>
<path d="M104.729 300.021C104.729 300.021 119.103 310.304 129.839 309.264C140.575 308.225 146.367 306.722 153.034 303.834C159.701 300.945 163.307 293.898 163.307 293.898C163.307 293.898 155.001 304.18 134.018 303.256C113.035 302.332 104.729 300.021 104.729 300.021Z" fill="#325441"/>
<path d="M77.793 246.049C77.793 246.049 86.5865 244.677 89.6469 245.024C92.7069 245.371 101.559 251.263 101.122 253.458C100.685 255.654 91.157 253.805 86.0304 254.845C80.9039 255.884 75.3516 255.345 75.3516 255.345L77.793 246.049Z" fill="#F4BB82"/>
<path d="M160.561 375.323L184.711 357.422L183.53 352.433L156.488 361.497L160.561 375.323Z" fill="#E58E63"/>
<path d="M90.6909 370.737L116.904 366.375L117.473 362.423L92.8704 358.076L90.6909 370.737Z" fill="#E58E63"/>
<path d="M252.269 115.752C252.269 115.752 267.761 114.694 290.834 120.24C313.908 125.786 325.276 136.878 325.493 142.077C325.711 147.276 320.793 172.73 311.285 198.652C301.776 224.573 296.531 233.585 296.531 233.585C296.531 233.585 256.531 230.119 252.269 227.693C248.006 225.267 243.088 179.166 242.105 155.249C241.121 131.332 252.269 115.752 252.269 115.752Z" fill="#3ECCB4"/>
<path d="M278.63 103.893L274.007 121.716C274.007 121.716 275.152 128.065 284.445 129.455C293.739 130.845 299.198 125.524 299.198 125.524L301.015 101.817L278.63 103.893Z" fill="#F4BB82"/>
<path d="M299.783 117.885C299.783 117.885 292.418 119.839 284.777 116.973C277.137 114.108 276.596 111.734 276.596 111.734L276.748 110.474L300.688 104.526L299.783 117.885Z" fill="#E58E63"/>
<path d="M262.68 66.2751L261.134 79.0978C261.134 79.0978 258.297 105.145 269.935 109.054C281.572 112.962 296.161 108.596 300.688 104.527C305.215 100.456 308.133 92.4529 308.133 92.4529C308.133 92.4529 313.558 94.9735 317.823 86.6007C322.088 78.2279 318.559 75.8252 318.559 75.8252C318.559 75.8252 316.245 74.1368 313.285 74.9309C310.324 75.7246 309.618 76.5472 309.618 76.5472C309.618 76.5472 316.771 58.9739 315.149 49.3949C313.526 39.8158 296.243 29.4564 279.651 36.0301C263.061 42.6037 262.68 66.2751 262.68 66.2751Z" fill="#F4BB82"/>
<path d="M317.142 83.6181C317.142 83.6181 318.352 79.6977 317.388 78.6957C316.424 77.6938 312.166 78.4508 310.595 83.1949C309.025 87.9384 310.771 88.2199 311.855 88.228C312.939 88.2366 314.17 86.659 314.005 84.4341C313.839 82.2097 312.915 82.3143 312.915 82.3143C312.915 82.3143 314.705 79.0544 316.232 79.6413C317.759 80.2281 316.833 83.6526 316.833 83.6526L317.142 83.6181Z" fill="#E58E63"/>
<path d="M290.35 74.0502C290.559 72.3161 291.711 71.0423 292.922 71.2054C294.134 71.369 294.947 72.907 294.738 74.6416C294.528 76.3757 293.377 77.6495 292.165 77.4864C290.953 77.3228 290.141 75.7848 290.35 74.0502Z" fill="#4C311E"/>
<path d="M267.368 70.9528C267.577 69.2182 268.729 67.9449 269.94 68.108C271.152 68.2711 271.965 69.8096 271.756 71.5442C271.546 73.2783 270.395 74.5521 269.183 74.389C267.971 74.2254 267.159 72.6874 267.368 70.9528Z" fill="#4C311E"/>
<path d="M271.607 81.7189C272.039 79.5717 274.481 78.0749 275.74 76.5079C276.537 75.5151 277.281 74.4629 277.805 73.278C278.426 71.8772 278.487 70.4667 278.759 68.9821C278.778 68.8785 278.923 68.8414 278.964 68.9526C280.002 71.8289 278.234 75.5969 276.579 77.8315C276.142 78.4199 275.666 78.9757 275.17 79.5082C274.504 80.2231 272.953 81.3302 273.161 82.5085C273.301 83.3001 274.521 83.9758 275.137 84.2558C276.022 84.6577 276.751 84.5368 277.665 84.3808C277.939 84.334 278.096 84.6231 278.023 84.8706C277.509 86.6484 275.304 86.2815 274.114 85.6292C272.658 84.8299 271.22 83.6456 271.607 81.7189Z" fill="#E58E63"/>
<path d="M290.838 62.9126C292.636 61.8532 295.776 62.6346 297.575 63.318C299.437 64.0253 301.059 65.4301 301.61 67.433C301.777 67.5301 301.891 67.7181 301.84 67.9645L301.76 68.3567C301.727 68.5168 301.631 68.6311 301.514 68.7043C301.4 69.1737 300.95 69.475 300.439 69.2571C297.553 68.025 294.656 67.429 291.65 66.6821C289.817 66.2263 288.906 64.0512 290.838 62.9126Z" fill="#E27023"/>
<path d="M274.54 64.1029C271.455 64.235 268.503 64.2406 265.449 64.8726C264.908 64.9844 264.52 64.5988 264.493 64.1151C264.391 64.0196 264.317 63.8885 264.313 63.7244L264.304 63.323C264.298 63.071 264.444 62.9094 264.625 62.8479C265.525 60.9913 267.369 59.936 269.325 59.6139C271.213 59.303 274.436 59.1643 276.012 60.564C277.706 62.0685 276.422 64.0221 274.54 64.1029Z" fill="#E27023"/>
<path d="M274.472 93.9339L269.808 92.938L269.293 88.789L286.742 91.1404C286.742 91.1404 284.816 100.801 276.248 99.6463C273.194 99.2348 271.286 97.7151 270.092 95.9317L269.765 93.595L274.472 93.9339Z" fill="white"/>
<path d="M269.293 88.7887L269.808 92.9377L274.472 93.9336L269.765 93.5952L270.092 95.9314C267.934 92.7116 268.108 88.6291 268.108 88.6291L269.293 88.7887Z" fill="#E58E63"/>
<path d="M265.528 34.8638C269.514 31.0801 281.559 26.7136 303.215 31.989C314.61 34.7652 320.532 39.4132 323.566 43.3642C323.567 43.3652 327.844 49.4983 323.653 49.1543C319.461 48.8104 311.477 46.8507 311.477 46.8507C311.477 46.8507 316.278 50.3697 314.085 56.9972C311.893 63.6247 307.198 69.6314 306.05 75.105C305.334 78.5214 304.921 82.5678 304.712 85.1281C303.591 85.1743 300.478 84.7831 300.432 84.4325C300.377 84.02 303.715 67.8988 305.882 64.5576C308.05 61.2164 310.346 56.8123 310.672 54.1067C310.998 51.4011 310.852 50.3011 310.852 50.3011C310.852 50.3011 308.907 46.4061 303.637 46.9721C298.367 47.5386 293.069 50.6542 284.903 48.2769C276.737 45.9 277.416 42.698 273.652 42.6589C269.887 42.6198 265.383 52.3263 265.383 52.3263C265.383 52.3263 261.542 38.6476 265.528 34.8638Z" fill="#E27023"/>
<path d="M306.05 75.1051C307.198 69.6309 311.893 63.6248 314.085 56.9973C316.277 50.3698 311.477 46.8502 311.477 46.8502C311.477 46.8502 319.461 48.8104 323.653 49.1544C327.844 49.4979 323.567 43.3652 323.566 43.3637C326.298 46.9214 326.689 49.9135 326.623 50.4627C326.483 51.6222 317.825 75.4049 317.825 75.4049C317.825 75.4049 316.012 74.3013 313.285 74.9308L309.618 76.547C309.618 76.547 307.515 77.6908 306.539 80.5787C305.564 83.4667 305.403 84.8076 305.093 85.0606C305.047 85.0987 304.91 85.12 304.712 85.1282C304.921 82.5679 305.334 78.521 306.05 75.1051Z" fill="#C65A10"/>
<mask id="mask1_81_1086" style="mask-type:luminance" maskUnits="userSpaceOnUse" x="272" y="29" width="38" height="18">
<path d="M272.475 29.705H309.784V46.8479H272.475V29.705Z" fill="white"/>
</mask>
<g mask="url(#mask1_81_1086)">
<g opacity="0.240005">
<path d="M290.961 30.3865C290.961 30.3865 282.175 30.4545 285.44 34.5767C288.705 38.6993 309.784 45.2963 309.784 45.2963C309.784 45.2963 302.102 46.0285 300.06 46.7845C298.019 47.5401 276.348 41.2316 273.017 35.9221C269.687 30.6126 282.636 29.5222 286.094 29.7305C289.552 29.9388 290.961 30.3865 290.961 30.3865Z" fill="#FFE7D7"/>
</g>
</g>
<path d="M282.507 78.5258C282.657 78.3749 282.906 78.3419 283.095 78.3953C283.303 78.4537 283.46 78.6031 283.549 78.8129C283.776 79.355 283.275 79.9302 282.749 79.7824C282.515 79.7163 282.339 79.5319 282.274 79.2859C282.195 78.9887 282.303 78.7306 282.507 78.5258Z" fill="#E27023"/>
<path d="M281.159 75.2808C281.529 75.3306 281.842 75.7223 281.776 76.1237C281.709 76.5266 281.375 76.8295 280.978 76.7761C280.608 76.7263 280.296 76.3346 280.361 75.9332C280.427 75.5303 280.762 75.2275 281.159 75.2808Z" fill="#E27023"/>
<path d="M283.326 73.5516C283.284 73.4789 283.26 73.3976 283.271 73.3057C283.282 73.2127 283.325 73.14 283.383 73.0811C283.457 72.9718 283.587 72.9073 283.704 72.8773C283.635 72.8972 283.67 72.887 283.808 72.8469C283.872 72.8336 283.937 72.8301 284.003 72.8372C284.106 72.8555 284.197 72.8911 284.288 72.9434C284.471 73.0481 284.621 73.2457 284.582 73.4825C284.543 73.7218 284.387 73.8691 284.169 73.926C284.069 73.9525 283.973 73.9626 283.869 73.953C283.803 73.9423 283.741 73.922 283.682 73.892C283.558 73.8168 283.527 73.7975 283.589 73.8346C283.482 73.7746 283.372 73.6776 283.326 73.5516Z" fill="#E27023"/>
<path d="M279.888 68.7404C280.118 68.5443 280.448 68.5646 280.655 68.7831C280.897 69.0376 280.878 69.468 280.605 69.691C280.352 69.8983 279.999 69.8343 279.798 69.5823C279.6 69.3349 279.658 68.937 279.888 68.7404Z" fill="#E27023"/>
<path d="M274.054 74.6986C274.955 74.82 274.778 76.3016 273.875 76.1796C272.974 76.0582 273.151 74.5766 274.054 74.6986Z" fill="#E27023"/>
<path d="M278.602 78.6308C278.66 78.5658 278.715 78.5023 278.789 78.456C278.853 78.4144 278.864 78.4083 278.822 78.4388C278.758 78.485 278.792 78.4647 278.925 78.3773C279.113 78.3026 279.286 78.3371 279.473 78.3945C279.701 78.4647 279.857 78.7888 279.819 79.0271C279.779 79.268 279.588 79.5398 279.334 79.5474C279.151 79.5535 278.95 79.553 278.799 79.4189C278.769 79.3919 278.654 79.241 278.733 79.3553C278.677 79.3137 278.635 79.2608 278.606 79.1968C278.585 79.1613 278.566 79.1247 278.547 79.0881C278.48 78.9595 278.506 78.7375 278.602 78.6308Z" fill="#E27023"/>
<path d="M270.233 78.2073C270.24 78.1488 270.261 78.096 270.295 78.0497C270.34 77.9588 270.347 77.9512 270.315 78.0274C270.437 77.8033 270.644 77.6148 270.91 77.6641C271.179 77.7129 271.329 77.906 271.399 78.1732C271.397 78.1549 271.394 78.1371 271.392 78.1188C271.427 78.1991 271.442 78.2824 271.436 78.3693C271.436 78.4791 271.407 78.5751 271.378 78.6803C271.307 78.9379 270.98 79.1142 270.74 79.0705C270.496 79.0258 270.223 78.8104 270.214 78.5233C270.211 78.4146 270.206 78.3129 270.233 78.2073Z" fill="#E27023"/>
<path d="M267.51 80.6611C267.509 80.5249 267.558 80.4213 267.634 80.3349L267.626 80.3415C267.63 80.3359 267.636 80.3329 267.64 80.3278C267.661 80.3054 267.682 80.2836 267.706 80.2638C267.781 80.1916 267.862 80.1347 267.964 80.1037C267.977 80.0996 267.995 80.0946 268.022 80.0864C268.155 80.0473 268.296 80.0504 268.426 80.1078C268.705 80.2307 268.844 80.4645 268.915 80.7647C268.977 81.0305 268.781 81.3622 268.546 81.4557C268.282 81.5604 268 81.4847 267.818 81.255C267.971 81.4476 267.765 81.1997 267.72 81.1417C267.678 81.0874 267.64 81.0259 267.613 80.9603C267.551 80.878 267.511 80.7785 267.51 80.6611Z" fill="#E27023"/>
<path d="M267.966 80.1028C267.967 80.1023 267.968 80.1017 267.969 80.1012C268.111 80.0585 268.018 80.0866 267.966 80.1028Z" fill="#E27023"/>
<path d="M267.966 80.1022L267.965 80.1032C267.922 80.1155 267.938 80.1113 267.966 80.1022Z" fill="#E27023"/>
<path d="M263.929 78.8801C263.954 78.8922 263.979 78.9044 264.004 78.9166C264.008 78.9187 264.01 78.9207 264.013 78.9227C264.03 78.9314 264.046 78.9415 264.061 78.9522C264.24 79.068 264.298 79.2484 264.274 79.4207C264.267 79.599 264.176 79.7682 263.975 79.8409C263.931 79.8607 263.886 79.8749 263.837 79.8769C263.827 79.879 263.818 79.8805 263.808 79.8825C262.987 80.041 263.167 78.5061 263.929 78.8801Z" fill="#E27023"/>
<path d="M284.467 81.7716C284.476 81.7584 284.486 81.7452 284.496 81.7315C284.789 81.3331 285.394 81.4144 285.583 81.8783C285.589 81.8936 285.595 81.9093 285.601 81.9245C285.695 82.1532 285.662 82.4291 285.517 82.6257C285.507 82.6389 285.498 82.6521 285.488 82.6653C285.194 83.0642 284.591 82.9824 284.401 82.519C284.395 82.5038 284.388 82.4885 284.382 82.4728C284.288 82.2441 284.322 81.9682 284.467 81.7716Z" fill="#E27023"/>
<path d="M286.752 79.1019C287.126 78.8697 287.553 79.1217 287.637 79.55C287.654 79.6308 287.655 79.7131 287.641 79.7929C287.641 79.8153 287.638 79.8376 287.636 79.8595C287.648 79.9524 287.643 80.0419 287.612 80.147C287.564 80.3076 287.394 80.3731 287.251 80.367C287.159 80.3635 287.075 80.3259 286.999 80.2741C286.89 80.2537 286.794 80.2055 286.688 80.1364C286.323 79.8981 286.425 79.3051 286.752 79.1019Z" fill="#E27023"/>
<path d="M290.907 82.3731C291.052 82.1084 291.314 82.0525 291.578 82.1307C291.957 82.2425 292.136 82.7338 291.99 83.0986C291.91 83.2998 291.72 83.4289 291.516 83.4304C291.301 83.4319 291.132 83.3029 291.037 83.1047L291.036 83.1042C291.111 83.2607 291.046 83.1388 291.016 83.0834C290.833 82.8939 290.772 82.618 290.907 82.3731Z" fill="#E27023"/>
<path d="M319.93 133.823C319.93 133.823 340.355 154.44 365.273 155.826C390.191 157.213 409.426 115.752 409.426 115.752L422.103 121.626C422.103 121.626 404.617 167.843 374.453 178.935C344.29 190.026 315.671 174.628 315.671 174.628L319.93 133.823Z" fill="#3ECCB4"/>
<path d="M318.58 176.006C318.58 176.006 312.432 170.847 310.465 166.687C308.498 162.528 308.989 157.848 308.989 157.848C308.989 157.848 307.842 160.795 308.17 168.594C308.498 176.393 313.346 192.836 313.346 192.836L318.58 176.006Z" fill="#2DB59B"/>
<path d="M244.4 128.559C244.4 128.559 242.907 133.64 242.678 139.131C242.45 144.622 242.089 149.702 242.089 149.702C242.089 149.702 238.059 147.54 234.13 144.248C230.201 140.957 221.166 131.972 221.166 131.972C221.166 131.972 230.793 139.218 235.629 140.517C240.465 141.817 244.4 128.559 244.4 128.559Z" fill="#2DB59B"/>
<path d="M242.104 155.249L250.957 147.045L255.329 157.849L266.476 149.702L271.288 160.217L281.776 153.631L287.511 164.838L298.607 155.942L302.104 167.38L308.126 164.605L308.169 168.594L300.688 172.464L296.64 162.297L285.055 170.847L280.028 159.755L269.293 166.687L264.29 155.595L254.236 164.145L249.208 153.053L242.322 159.755L242.104 155.249Z" fill="#A2EDDE"/>
<path d="M242.957 169.471L311.277 185.221L312.13 188.483L243.188 172.464L242.957 169.471Z" fill="#A2EDDE"/>
<path d="M242.678 139.131L308.17 151.436V149.702L242.818 137.104L242.678 139.131Z" fill="#A2EDDE"/>
<path d="M244.676 188.483L251.395 181.245L256.203 191.875L266.476 184.712L271.503 195.341L280.247 188.294L285.492 198.807L295.11 190.027L299.263 202.042L308.17 194.186L310.676 200.304L308.653 205.687L306.476 199.963L297.077 208.975L292.924 198.114L282.651 205.74L277.676 195.11L268.662 202.274L264.29 191.413L254.454 198.576L249.646 188.483L245.154 192.836L244.676 188.483Z" fill="#A2EDDE"/>
<path d="M246.894 206.418L304.218 216.871L303.14 219.45L246.894 208.975V206.418Z" fill="#A2EDDE"/>
<path d="M408.314 117.993L421.001 124.326L419.858 126.934L407.25 120.007L408.314 117.993Z" fill="#A2EDDE"/>
<path d="M199.886 35.5427L193.526 36.4532L193.092 38.3794L200.153 36.9608L199.886 35.5427Z" fill="#A2EDDE"/>
<path d="M250.793 268.421L277.675 277.433L277.543 280.379L271.288 281.073L268.269 322.992L264.234 277.779L250.793 268.421Z" fill="#73B6C6"/>
<path d="M291.932 233.168C291.932 233.168 300.629 285.232 307.35 312.962C314.071 340.691 320.629 367.208 340.956 372.061C361.284 376.913 375.71 363.247 379.972 359.162C384.235 355.076 385.909 353.453 385.909 353.453L387.458 355.484C387.458 355.484 377.349 369.801 360.792 373.444C344.235 377.087 331.448 378.473 319.809 357.156C308.17 335.839 299.317 284.712 296.038 268.421C292.76 252.13 289.645 233.168 289.645 233.168H291.932Z" fill="#73B6C6"/>
<path d="M277.675 231.733C277.675 231.733 278.335 239.247 283.772 243.753C289.208 248.259 293.033 248.259 293.033 248.259V245.486C293.033 245.486 288.443 245.255 284.618 241.558C280.792 237.86 279.474 231.927 279.474 231.927L277.675 231.733Z" fill="#73B6C6"/>
<path d="M261.014 229.642C261.014 229.642 259.372 234.972 255.766 237.86C252.159 240.749 249.831 240.742 249.831 240.742L250.184 238.667C250.184 238.667 252.892 238.301 255.422 235.192C257.952 232.083 259.255 229.362 259.255 229.362L261.014 229.642Z" fill="#73B6C6"/>
</svg>
