<svg width="352" height="493" viewBox="0 0 352 493" fill="none" xmlns="http://www.w3.org/2000/svg">
<path d="M209.37 455.691L209.722 482.413L165.654 483.079C165.654 483.079 163.68 464.581 174.977 464.411C186.274 464.24 194.307 455.918 194.307 455.918L209.37 455.691Z" fill="#3ECCB4"/>
<path d="M209.684 479.529L165.521 480.195L165.721 476.202L209.632 475.539L209.684 479.529Z" fill="white"/>
<path d="M192.437 457.583L199.561 460.546L198.878 462.835L190.862 458.782L192.437 457.583Z" fill="white"/>
<path d="M188.518 460.316L196.667 464.994L195.309 467.141L186.676 461.339L188.518 460.316Z" fill="white"/>
<path d="M296.494 330.271L311.746 309.115L346.634 337.948C346.634 337.948 337.431 353.744 328.487 346.353C319.544 338.962 308.419 340.126 308.419 340.126L296.494 330.271Z" fill="#3ECCB4"/>
<path d="M310.1 311.399L345.063 340.294L342.586 343.288L307.822 314.558L310.1 311.399Z" fill="white"/>
<path d="M310.851 340.068L306.996 333.003L308.86 331.667L312.781 340.179L310.851 340.068Z" fill="white"/>
<path d="M315.507 340.538L311.846 331.448L314.156 330.672L317.544 340.965L315.507 340.538Z" fill="white"/>
<path d="M180.727 213.156C180.727 213.156 167.877 272.099 172.201 345.812C176.524 419.526 187.622 459.912 187.622 459.912H210.692C210.692 459.912 195.431 371.309 194.684 338.521C193.937 305.733 198.144 262.66 198.144 262.66L203.872 262.016C203.872 262.016 211.543 308.305 231.862 342.379C252.182 376.452 274.213 364.88 287.516 359.094C300.82 353.308 310.851 340.068 310.851 340.068L299.563 325.082C299.563 325.082 286.109 342.192 269.896 342.7C253.684 343.208 242.497 324.377 237.132 294.161C231.767 263.945 224.291 233.443 221.258 218.621C218.226 203.799 180.727 213.156 180.727 213.156Z" fill="#8ACADD"/>
<path d="M184.33 109.271C184.33 109.271 157.91 99.2792 147.402 80.0349C136.893 60.7901 132.504 33.4951 132.504 33.4951L119.292 35.3959C119.292 35.3959 122.482 79.0317 138.394 105.431C154.307 131.83 171.406 140.83 171.406 140.83C171.406 140.83 173.371 128.777 176.674 121.383C179.977 113.99 184.33 109.271 184.33 109.271Z" fill="#3ECCB4"/>
<path d="M123.785 32.9614C123.785 32.9614 118.676 28.9653 118.35 26.2229C118.024 23.4811 117.091 20.58 115.82 19.1306C114.549 17.6812 113.472 16.8581 113.771 15.1764C114.07 13.4947 116.401 14.3419 117.555 15.625C118.709 16.9085 121.125 22.7866 121.381 22.4473C121.637 22.1081 118.49 3.61812 119.041 2.64606C119.593 1.67352 121.79 1.45301 122.585 4.85923C123.38 8.26546 124.164 15.5147 124.164 15.5147C124.164 15.5147 124.728 2.98343 125.459 1.21128C126.189 -0.560387 128.111 -0.294636 128.439 1.39882C128.768 3.09274 128.46 15.6353 128.46 15.6353C128.46 15.6353 131.356 3.60021 131.967 2.18665C132.58 0.773079 135.031 0.73774 134.885 3.86408C134.74 6.99042 133.109 15.9067 133.109 15.9067C133.109 15.9067 137.454 7.91819 138.138 7.09974C138.821 6.28128 140.752 6.801 139.955 9.67337C139.157 12.5457 135.588 19.7681 135.588 19.7681C135.588 19.7681 134.74 27.3891 134.179 29.0232C133.617 30.6578 131.883 32.3489 131.883 32.3489L123.785 32.9614Z" fill="#F4BB82"/>
<path d="M325.399 111.504C325.399 111.504 323.037 105.22 324.115 102.708C325.192 100.196 325.833 97.2052 325.47 95.2554C325.107 93.3056 324.6 91.9976 325.684 90.7395C326.768 89.4815 328.329 91.5203 328.674 93.2628C329.019 95.0052 328.167 101.362 328.552 101.219C328.937 101.076 335.398 83.601 336.346 83.0879C337.295 82.5752 339.269 83.6321 338.261 86.9733C337.253 90.314 334.338 96.9107 334.338 96.9107C334.338 96.9107 341.006 86.594 342.501 85.5042C343.997 84.4138 345.496 85.727 344.938 87.3507C344.381 88.9745 337.924 99.4457 337.924 99.4457C337.924 99.4457 346.326 90.8705 347.544 90.0172C348.761 89.1634 350.86 90.5218 349.192 93.0927C347.524 95.6635 341.737 102.308 341.737 102.308C341.737 102.308 349.37 97.9874 350.354 97.6801C351.339 97.3725 352.72 98.9067 350.625 100.893C348.53 102.88 341.933 106.988 341.933 106.988C341.933 106.988 337.449 112.977 336.166 114.046C334.882 115.115 332.575 115.569 332.575 115.569L325.399 111.504Z" fill="#F4BB82"/>
<path d="M119.99 472.06L111.902 476.858L113.287 478.984L121.845 473.055L119.99 472.06Z" fill="white"/>
<path d="M0 477.362L41.8597 492.446L42.8099 488.578L1.18869 473.58L0 477.362Z" fill="white"/>
<path d="M180.727 109.345C180.727 109.345 194.913 108.364 216.042 113.507C237.171 118.651 247.581 128.937 247.78 133.758C247.979 138.58 243.476 162.185 234.769 186.224C226.062 210.263 221.259 218.621 221.259 218.621C221.259 218.621 184.63 215.406 180.727 213.156C176.824 210.906 172.32 168.153 171.42 145.974C170.519 123.794 180.727 109.345 180.727 109.345Z" fill="#3ECCB4"/>
<path d="M204.867 98.3482L200.633 114.877C200.633 114.877 201.682 120.764 210.192 122.053C218.702 123.342 223.701 118.408 223.701 118.408L225.365 96.4229L204.867 98.3482Z" fill="#F4BB82"/>
<path d="M224.237 111.324C224.237 111.324 217.493 113.135 210.496 110.478C203.5 107.821 203.004 105.619 203.004 105.619L203.143 104.451L225.066 98.935L224.237 111.324Z" fill="#E58E63"/>
<path d="M190.261 63.4617L188.846 75.3531C188.846 75.3531 186.247 99.5087 196.905 103.134C207.561 106.758 220.92 102.709 225.066 98.9352C229.212 95.1605 231.884 87.7383 231.884 87.7383C231.884 87.7383 236.852 90.0759 240.757 82.3112C244.662 74.5465 241.43 72.3182 241.43 72.3182C241.43 72.3182 239.312 70.7524 236.601 71.4889C233.89 72.2249 233.243 72.9878 233.243 72.9878C233.243 72.9878 239.794 56.6908 238.308 47.8074C236.822 38.9241 220.995 29.317 205.802 35.4133C190.61 41.5095 190.261 63.4617 190.261 63.4617Z" fill="#F4BB82"/>
<path d="M240.133 79.5452C240.133 79.5452 241.241 75.9095 240.358 74.9803C239.475 74.0511 235.576 74.7532 234.138 79.1527C232.7 83.5517 234.299 83.8127 235.292 83.8203C236.284 83.8283 237.412 82.3652 237.261 80.3019C237.109 78.239 236.263 78.3361 236.263 78.3361C236.263 78.3361 237.902 75.313 239.3 75.8572C240.698 76.4014 239.851 79.5772 239.851 79.5772L240.133 79.5452Z" fill="#E58E63"/>
<path d="M215.599 70.6724C215.791 69.0642 216.845 67.8829 217.955 68.0342C219.064 68.1859 219.808 69.6122 219.617 71.2208C219.425 72.829 218.371 74.0103 217.261 73.859C216.152 73.7073 215.408 72.281 215.599 70.6724Z" fill="#4C311E"/>
<path d="M194.554 67.7998C194.746 66.1912 195.8 65.0104 196.91 65.1616C198.019 65.3129 198.763 66.7396 198.572 68.3483C198.38 69.9564 197.326 71.1377 196.216 70.9865C195.107 70.8347 194.363 69.4085 194.554 67.7998Z" fill="#4C311E"/>
<path d="M198.436 77.7839C198.831 75.7927 201.068 74.4045 202.22 72.9514C202.95 72.0307 203.632 71.0549 204.111 69.956C204.68 68.657 204.736 67.3489 204.985 65.9721C205.002 65.876 205.135 65.8416 205.172 65.9448C206.123 68.6122 204.504 72.1065 202.988 74.1788C202.589 74.7245 202.153 75.24 201.698 75.7338C201.088 76.3967 199.668 77.4234 199.858 78.5161C199.987 79.2502 201.104 79.8769 201.668 80.1366C202.478 80.5093 203.146 80.3971 203.983 80.2525C204.234 80.2091 204.377 80.4772 204.311 80.7067C203.84 82.3554 201.821 82.0152 200.731 81.4102C199.398 80.669 198.081 79.5707 198.436 77.7839Z" fill="#E58E63"/>
<path d="M216.046 60.3432C217.693 59.3608 220.568 60.0854 222.215 60.7192C223.92 61.3751 225.406 62.6779 225.91 64.5354C226.063 64.6253 226.168 64.7997 226.121 65.0282L226.047 65.392C226.017 65.5404 225.929 65.6464 225.822 65.7143C225.718 66.1496 225.306 66.4291 224.838 66.2269C222.195 65.0843 219.542 64.5316 216.79 63.8389C215.111 63.4163 214.277 61.3991 216.046 60.3432Z" fill="#E27023"/>
<path d="M201.121 61.4473C198.296 61.5698 195.594 61.575 192.796 62.1612C192.301 62.2648 191.946 61.9072 191.921 61.4586C191.828 61.37 191.761 61.2485 191.757 61.0963L191.748 60.724C191.743 60.4903 191.877 60.3405 192.043 60.2835C192.866 58.5617 194.555 57.5831 196.346 57.2844C198.075 56.996 201.027 56.8674 202.47 58.1655C204.021 59.5607 202.845 61.3724 201.121 61.4473Z" fill="#E27023"/>
<path d="M201.059 89.1121L196.789 88.1885L196.317 84.3408L212.295 86.5215C212.295 86.5215 210.531 95.4806 202.686 94.4096C199.889 94.028 198.142 92.6186 197.048 90.9648L196.749 88.7978L201.059 89.1121Z" fill="white"/>
<path d="M196.317 84.3404L196.789 88.1881L201.059 89.1116L196.749 88.7978L197.048 90.9644C195.073 87.9784 195.232 84.1924 195.232 84.1924L196.317 84.3404Z" fill="#E58E63"/>
<path d="M192.869 34.3319C196.519 30.823 207.549 26.7736 227.38 31.666C237.815 34.2405 243.237 38.551 246.015 42.2149C246.016 42.2159 249.933 47.9036 246.095 47.5846C242.257 47.2656 234.946 45.4482 234.946 45.4482C234.946 45.4482 239.342 48.7117 237.334 54.8579C235.326 61.0041 231.027 66.5745 229.976 71.6506C229.32 74.8189 228.942 78.5714 228.751 80.9458C227.724 80.9886 224.874 80.6258 224.831 80.3007C224.781 79.9181 227.837 64.9677 229.822 61.8692C231.807 58.7706 233.91 54.6864 234.208 52.1773C234.507 49.6682 234.373 48.6481 234.373 48.6481C234.373 48.6481 232.592 45.036 227.766 45.5609C222.941 46.0862 218.089 48.9756 210.611 46.7709C203.133 44.5666 203.755 41.5972 200.308 41.5609C196.861 41.5247 192.736 50.5262 192.736 50.5262C192.736 50.5262 189.219 37.8409 192.869 34.3319Z" fill="#E27023"/>
<path d="M229.976 71.6507C231.027 66.5741 235.326 61.0041 237.334 54.8579C239.341 48.7117 234.946 45.4478 234.946 45.4478C234.946 45.4478 242.257 47.2657 246.095 47.5847C249.933 47.9032 246.016 42.2159 246.015 42.2145C248.517 45.5138 248.875 48.2886 248.815 48.798C248.687 49.8732 240.758 71.9287 240.758 71.9287C240.758 71.9287 239.098 70.9052 236.601 71.489L233.243 72.9879C233.243 72.9879 231.317 74.0485 230.424 76.7268C229.531 79.405 229.383 80.6485 229.1 80.8831C229.057 80.9185 228.932 80.9383 228.751 80.9458C228.942 78.5715 229.32 74.8185 229.976 71.6507Z" fill="#C65A10"/>
<mask id="mask0_81_2464" style="mask-type:luminance" maskUnits="userSpaceOnUse" x="199" y="29" width="35" height="17">
<path d="M199.23 29.5474H233.395V45.4453H199.23V29.5474Z" fill="white"/>
</mask>
<g mask="url(#mask0_81_2464)">
<g opacity="0.240005">
<path d="M216.159 30.1793C216.159 30.1793 208.113 30.2424 211.103 34.0652C214.092 37.8884 233.395 44.0063 233.395 44.0063C233.395 44.0063 226.36 44.6853 224.491 45.3864C222.621 46.0871 202.777 40.2368 199.727 35.3129C196.677 30.389 208.535 29.3778 211.702 29.571C214.868 29.7642 216.159 30.1793 216.159 30.1793Z" fill="#FFE7D7"/>
</g>
</g>
<path d="M208.417 74.8227C208.555 74.6827 208.783 74.6521 208.956 74.7016C209.146 74.7558 209.29 74.8943 209.371 75.0889C209.58 75.5916 209.12 76.125 208.639 75.9879C208.425 75.9267 208.263 75.7556 208.204 75.5276C208.132 75.2519 208.231 75.0126 208.417 74.8227Z" fill="#E27023"/>
<path d="M207.183 71.8137C207.521 71.8599 207.808 72.2231 207.748 72.5954C207.687 72.969 207.381 73.2499 207.017 73.2004C206.679 73.1542 206.392 72.7909 206.452 72.4187C206.513 72.045 206.819 71.7642 207.183 71.8137Z" fill="#E27023"/>
<path d="M209.167 70.2099C209.129 70.1425 209.107 70.0671 209.117 69.9818C209.127 69.8956 209.166 69.8282 209.22 69.7736C209.287 69.6723 209.406 69.6124 209.514 69.5846C209.451 69.603 209.482 69.5936 209.608 69.5563C209.667 69.5441 209.727 69.5408 209.787 69.5474C209.882 69.5644 209.965 69.5973 210.048 69.6459C210.216 69.7429 210.353 69.9262 210.318 70.1458C210.282 70.3677 210.139 70.5044 209.94 70.5572C209.848 70.5817 209.76 70.5911 209.664 70.5821C209.604 70.5722 209.547 70.5534 209.493 70.5256C209.38 70.4559 209.351 70.4379 209.408 70.4723C209.31 70.4167 209.209 70.3267 209.167 70.2099Z" fill="#E27023"/>
<path d="M206.019 65.7481C206.229 65.5663 206.532 65.5851 206.722 65.7877C206.942 66.0238 206.925 66.4229 206.675 66.6297C206.444 66.822 206.12 66.7626 205.936 66.5289C205.755 66.2994 205.808 65.9305 206.019 65.7481Z" fill="#E27023"/>
<path d="M200.676 71.2737C201.502 71.3863 201.339 72.7603 200.512 72.6472C199.687 72.5346 199.849 71.1606 200.676 71.2737Z" fill="#E27023"/>
<path d="M204.841 74.9202C204.895 74.8599 204.944 74.801 205.012 74.7581C205.071 74.7194 205.081 74.7138 205.043 74.7421C204.984 74.7849 205.015 74.7661 205.137 74.685C205.309 74.6158 205.468 74.6478 205.639 74.7011C205.847 74.7661 205.991 75.0667 205.955 75.2877C205.919 75.511 205.744 75.7631 205.511 75.7702C205.344 75.7759 205.16 75.7754 205.022 75.651C204.994 75.626 204.888 75.4861 204.961 75.5921C204.91 75.5535 204.871 75.5044 204.845 75.4451C204.826 75.4121 204.808 75.3782 204.791 75.3442C204.73 75.225 204.754 75.0191 204.841 74.9202Z" fill="#E27023"/>
<path d="M197.178 74.5273C197.184 74.4731 197.203 74.4241 197.234 74.3812C197.276 74.2969 197.282 74.2898 197.252 74.3605C197.365 74.1527 197.553 73.9779 197.797 74.0236C198.044 74.0688 198.181 74.2479 198.245 74.4957C198.243 74.4787 198.241 74.4622 198.239 74.4453C198.271 74.5197 198.285 74.597 198.279 74.6776C198.279 74.7794 198.253 74.8684 198.226 74.9659C198.161 75.2048 197.862 75.3683 197.642 75.3278C197.419 75.2864 197.168 75.0866 197.16 74.8203C197.158 74.7195 197.153 74.6253 197.178 74.5273Z" fill="#E27023"/>
<path d="M194.684 76.8027C194.683 76.6764 194.728 76.5803 194.797 76.5002L194.79 76.5063C194.794 76.5012 194.799 76.4983 194.803 76.4936C194.822 76.4729 194.841 76.4526 194.864 76.4342C194.932 76.3673 195.006 76.3146 195.1 76.2858C195.112 76.2821 195.128 76.2773 195.152 76.2698C195.274 76.2335 195.403 76.2363 195.522 76.2896C195.778 76.4036 195.906 76.6204 195.97 76.8988C196.027 77.1453 195.848 77.453 195.632 77.5397C195.391 77.6367 195.133 77.5665 194.966 77.3535C195.106 77.5321 194.917 77.3022 194.876 77.2485C194.838 77.198 194.803 77.141 194.778 77.0802C194.721 77.0039 194.685 76.9116 194.684 76.8027Z" fill="#E27023"/>
<path d="M195.102 76.2852C195.102 76.2847 195.103 76.2842 195.104 76.2837C195.234 76.2439 195.149 76.2701 195.102 76.2852Z" fill="#E27023"/>
<path d="M195.102 76.2849L195.101 76.2859C195.062 76.2973 195.076 76.2934 195.102 76.2849Z" fill="#E27023"/>
<path d="M191.405 75.1514C191.428 75.1628 191.451 75.1741 191.474 75.1854C191.477 75.1873 191.479 75.1891 191.482 75.191C191.497 75.199 191.512 75.2085 191.525 75.2184C191.69 75.3258 191.743 75.4931 191.72 75.6528C191.714 75.8182 191.631 75.9751 191.447 76.0425C191.407 76.0608 191.365 76.074 191.32 76.0759C191.311 76.0778 191.303 76.0792 191.294 76.0811C190.542 76.2281 190.707 74.8047 191.405 75.1514Z" fill="#E27023"/>
<path d="M210.212 77.8329C210.22 77.8206 210.23 77.8084 210.238 77.7957C210.506 77.4262 211.06 77.5016 211.233 77.9318C211.239 77.946 211.245 77.9606 211.251 77.9747C211.336 78.1867 211.306 78.4426 211.173 78.6249C211.164 78.6372 211.156 78.6495 211.146 78.6617C210.877 79.0316 210.325 78.9557 210.152 78.526C210.146 78.5119 210.14 78.4977 210.134 78.4831C210.048 78.2711 210.079 78.0152 210.212 77.8329Z" fill="#E27023"/>
<path d="M212.304 75.3571C212.647 75.1418 213.037 75.3755 213.115 75.7727C213.13 75.8476 213.131 75.924 213.118 75.998C213.118 76.0187 213.116 76.0394 213.114 76.0597C213.125 76.1459 213.12 76.2288 213.092 76.3264C213.048 76.4753 212.892 76.5361 212.761 76.5304C212.677 76.5271 212.6 76.4922 212.53 76.4442C212.431 76.4253 212.342 76.3806 212.245 76.3165C211.911 76.0955 212.005 75.5456 212.304 75.3571Z" fill="#E27023"/>
<path d="M216.109 78.3905C216.242 78.145 216.482 78.0932 216.723 78.1658C217.071 78.2694 217.234 78.7251 217.101 79.0634C217.028 79.25 216.854 79.3697 216.667 79.3711C216.47 79.3725 216.316 79.2528 216.228 79.069L216.227 79.0686C216.296 79.2137 216.237 79.1006 216.209 79.0493C216.042 78.8735 215.986 78.6176 216.109 78.3905Z" fill="#E27023"/>
<path d="M242.686 126.104C242.686 126.104 261.39 145.224 284.207 146.509C307.025 147.795 324.639 109.345 324.639 109.345L336.247 114.793C336.247 114.793 320.235 157.653 292.614 167.94C264.992 178.226 238.786 163.946 238.786 163.946L242.686 126.104Z" fill="#3ECCB4"/>
<path d="M241.45 165.224C241.45 165.224 235.819 160.439 234.018 156.581C232.217 152.724 232.667 148.384 232.667 148.384C232.667 148.384 231.617 151.117 231.917 158.35C232.217 165.582 236.657 180.831 236.657 180.831L241.45 165.224Z" fill="#2DB59B"/>
<path d="M173.521 121.222C173.521 121.222 172.155 125.934 171.945 131.026C171.736 136.118 171.405 140.83 171.405 140.83C171.405 140.83 167.715 138.824 164.118 135.772C160.519 132.719 152.246 124.387 152.246 124.387C152.246 124.387 161.062 131.107 165.49 132.312C169.918 133.517 173.521 121.222 173.521 121.222Z" fill="#2DB59B"/>
<path d="M171.42 145.974L179.526 138.366L183.529 148.385L193.737 140.83L198.144 150.581L207.748 144.473L212.999 154.867L223.16 146.616L226.363 157.224L231.877 154.65L231.917 158.349L225.066 161.939L221.359 152.51L210.75 160.439L206.147 150.153L196.317 156.582L191.736 146.295L182.529 154.224L177.925 143.938L171.619 150.153L171.42 145.974Z" fill="#A2EDDE"/>
<path d="M172.201 159.163L234.762 173.77L235.543 176.794L172.412 161.939L172.201 159.163Z" fill="#A2EDDE"/>
<path d="M171.945 131.027L231.917 142.438V140.83L172.073 129.147L171.945 131.027Z" fill="#A2EDDE"/>
<path d="M173.774 176.794L179.927 170.082L184.33 179.94L193.737 173.297L198.341 183.154L206.347 176.619L211.151 186.369L219.958 178.226L223.761 189.369L231.917 182.083L234.212 187.757L232.359 192.749L230.366 187.44L221.759 195.798L217.956 185.726L208.549 192.798L203.993 182.94L195.739 189.583L191.736 179.511L182.729 186.155L178.325 176.794L174.212 180.831L173.774 176.794Z" fill="#A2EDDE"/>
<path d="M175.805 193.427L228.298 203.121L227.311 205.512L175.805 195.798V193.427Z" fill="#A2EDDE"/>
<path d="M323.621 111.423L335.238 117.297L334.192 119.715L322.646 113.292L323.621 111.423Z" fill="#A2EDDE"/>
<path d="M132.759 34.9611L126.935 35.8055L126.538 37.5918L133.004 36.2762L132.759 34.9611Z" fill="#A2EDDE"/>
<path d="M179.376 250.927L203.992 259.284L203.872 262.016L198.144 262.66L195.379 301.534L191.684 259.605L179.376 250.927Z" fill="#73B6C6"/>
<path d="M217.048 218.234C217.048 218.234 225.011 266.517 231.166 292.233C237.321 317.948 243.326 342.539 261.94 347.04C280.555 351.54 293.765 338.866 297.668 335.077C301.571 331.289 303.104 329.784 303.104 329.784L304.522 331.667C304.522 331.667 295.266 344.944 280.104 348.323C264.943 351.701 253.233 352.986 242.575 333.217C231.917 313.448 223.81 266.035 220.808 250.927C217.806 235.819 214.954 218.234 214.954 218.234H217.048Z" fill="#73B6C6"/>
<path d="M203.993 216.903C203.993 216.903 204.597 223.871 209.575 228.05C214.553 232.229 218.056 232.229 218.056 232.229V229.657C218.056 229.657 213.853 229.443 210.35 226.014C206.847 222.585 205.64 217.083 205.64 217.083L203.993 216.903Z" fill="#73B6C6"/>
<path d="M188.735 214.964C188.735 214.964 187.232 219.907 183.93 222.585C180.627 225.264 178.495 225.258 178.495 225.258L178.818 223.334C178.818 223.334 181.298 222.994 183.615 220.111C185.931 217.228 187.125 214.705 187.125 214.705L188.735 214.964Z" fill="#73B6C6"/>
</svg>
