<svg width="468" height="626" viewBox="0 0 468 626" fill="none" xmlns="http://www.w3.org/2000/svg">
<path d="M468 612.654C468 619.688 373.363 625.391 256.622 625.391C139.881 625.391 45.2432 619.688 45.2432 612.654C45.2432 605.619 139.881 599.917 256.622 599.917C373.363 599.917 468 605.619 468 612.654Z" fill="#DDCEB6"/>
<path d="M147.81 560.342L133.172 604.088H109.661C109.661 604.088 107.222 604.918 107.222 609.168C107.222 613.418 110.659 612.588 121.195 612.588H137.608C137.608 612.588 140.158 612.899 142.82 604.918C145.481 596.935 150.583 580.245 150.583 580.245L157.569 577.239C157.569 577.239 161.451 568.738 158.567 565.006C155.684 561.275 147.81 560.342 147.81 560.342Z" fill="#EF461E"/>
<path d="M157.569 577.239L151.248 612.654H149.474L150.583 580.245L157.569 577.239Z" fill="#474642"/>
<path d="M128.397 558.063L128.837 562.208L121.074 599.112L112.868 604.088H133.172L147.811 560.342L145.361 544.274L128.397 558.063Z" fill="#F4BB82"/>
<path d="M248.891 549.166L249.288 595.295L227.058 602.947C227.058 602.947 225.02 604.525 226.404 608.544C227.787 612.563 230.768 610.66 240.729 607.231C250.691 603.802 256.249 601.889 256.249 601.889C256.249 601.889 258.762 601.353 258.681 592.939C258.599 584.525 257.99 567.084 257.99 567.084L263.618 561.967C263.618 561.967 264.521 552.666 260.58 550.076C256.639 547.486 248.891 549.166 248.891 549.166Z" fill="#EF461E"/>
<path d="M263.618 561.967L269.168 597.511L267.49 598.089L257.99 567.084L263.618 561.967Z" fill="#474642"/>
<path d="M229.614 551.793L231.558 557.106L236.229 594.528L230.089 601.904L249.288 595.295L248.891 549.167L241.345 534.77L229.614 551.793Z" fill="#F4BB82"/>
<path d="M128.396 361.698V558.063H147.568C147.568 558.063 158.966 481.267 158.966 467.172C158.966 453.076 152.749 426.343 152.749 426.343L162.075 361.698H128.396Z" fill="#F4BB82"/>
<path d="M173.863 361.698L190.573 434.107L231.668 557.981L247.721 553.493C247.721 553.493 235.651 474.647 230.21 459.881C224.77 445.114 212.335 426.724 212.335 426.724L209.614 361.698H173.863Z" fill="#F4BB82"/>
<path d="M139.322 143.446C139.322 143.446 130.303 143.971 125.369 159.186C120.435 174.4 117.811 199.169 90.0056 199.977C62.1992 200.784 40.1641 170.203 40.1641 170.203C40.1641 170.203 34.9179 161.022 25.0808 159.448C15.2438 157.874 2.65234 153.152 0.291297 155.906C-2.06975 158.661 10.5217 168.104 16.4241 169.678C22.3265 171.252 28.2284 173.064 29.8025 174.716C31.3765 176.368 49.0833 225.946 86.0705 225.159C123.058 224.373 138.798 203.498 138.798 203.498L150.797 151.185L139.322 143.446Z" fill="#F4BB82"/>
<path d="M136.014 170.465L139.322 143.446C139.322 143.446 146.711 142.154 151.127 139.249C155.542 136.343 155.127 131.779 155.127 131.779L167.528 134.789L181.11 133.752C181.11 133.752 182.737 136.494 186.147 137.413C189.557 138.33 203.854 139.249 203.854 139.249L205.69 166.048L169.227 196.96L136.014 170.465Z" fill="#F4BB82"/>
<path d="M136.013 170.465C136.013 170.465 145.634 168.498 155.398 173.613C165.161 178.728 167.826 188.959 167.826 188.959C167.826 188.959 168.726 175.974 179.338 171.646C189.95 167.318 205.689 166.048 205.689 166.048C205.689 166.048 208.182 177.266 208.575 200.108C208.969 222.95 203.544 247.474 206.954 257.967C210.365 268.46 221.891 306.865 225.039 334.672C228.187 362.478 228.868 420.983 228.868 420.983C228.868 420.983 211.324 428.193 161.242 428.853C111.16 429.512 95.7764 416.786 95.7764 416.786C95.7764 416.786 104.695 346.146 116.237 315.36C127.78 284.575 141.42 259.383 143.519 249.39C145.617 239.398 141.42 214.273 141.42 214.273C141.42 214.273 133.289 208.764 130.927 196.173C128.567 183.581 136.013 170.465 136.013 170.465Z" fill="#EF461E"/>
<path d="M120.709 32.2122C120.304 32.2632 106.265 37.3255 107.29 48.7184C108.315 60.1113 115.773 72.477 113.344 74.9777C110.916 77.4788 107.182 73.9717 107.182 73.9717C107.182 73.9717 106.674 81.9136 113.847 84.4088C121.02 86.904 131.312 81.4916 131.312 81.4916C131.312 81.4916 130.717 61.5394 130.09 59.8354C129.464 58.1309 125.099 33.3047 125.099 33.3047L120.709 32.2122Z" fill="#8C3E23"/>
<path d="M176.421 113.89L181.89 137.056C181.89 137.056 180.947 145.186 171.378 146.57C161.81 147.955 155.954 140.86 155.954 140.86L153.165 110.235L176.421 113.89Z" fill="#F4BB82"/>
<path d="M180.474 131.058C180.474 131.058 173.42 131.574 165.48 127.526C157.54 123.479 153.84 117.649 153.84 117.649L153.407 114.117L178.563 122.962L180.474 131.058Z" fill="#E58E63"/>
<path d="M200.718 67.3575L201.073 70.1731C202.465 81.212 201.973 92.4125 199.558 103.274C197.533 112.382 190.792 122.351 186.851 123.167C169.83 126.692 155.938 119.85 149.754 114.577C143.571 109.304 138.513 101.133 138.513 101.133C138.513 101.133 131.089 104.383 125.272 93.5447C119.455 82.7062 124.286 79.6046 124.286 79.6046C124.286 79.6046 127.453 77.425 131.499 78.4576C135.546 79.4907 136.511 80.5558 136.511 80.5558C136.511 80.5558 126.76 57.8104 128.997 45.4228C131.232 33.0348 154.887 19.6678 177.563 28.2026C200.24 36.7378 200.718 67.3575 200.718 67.3575Z" fill="#F4BB82"/>
<path d="M126.209 89.6878C126.209 89.6878 124.561 84.6142 125.882 83.3204C127.202 82.0261 133.023 83.0132 135.162 89.1527C137.301 95.2919 134.913 95.6522 133.431 95.6611C131.949 95.67 130.266 93.6271 130.497 90.7495C130.728 87.872 131.992 88.0095 131.992 88.0095C131.992 88.0095 129.549 83.7892 127.46 84.5454C125.371 85.3016 126.631 89.7334 126.631 89.7334L126.209 89.6878Z" fill="#E58E63"/>
<path d="M188.612 88.3496C188.025 85.5716 184.688 83.6309 182.97 81.6011C181.882 80.3153 180.866 78.9527 180.151 77.4196C179.305 75.6058 179.224 73.7816 178.854 71.8611C178.829 71.7269 178.63 71.6779 178.575 71.8218C177.149 75.5404 179.56 80.4178 181.821 83.3114C182.416 84.0735 183.067 84.7935 183.744 85.4834C184.653 86.4088 186.773 87.8445 186.486 89.3679C186.294 90.3916 184.623 91.2639 183.781 91.6242C182.57 92.1424 181.572 91.9846 180.323 91.7812C179.949 91.7205 179.734 92.0935 179.832 92.4146C180.533 94.7149 183.549 94.2448 185.177 93.4025C187.17 92.372 189.137 90.8419 188.612 88.3496Z" fill="#E58E63"/>
<path d="M158.898 65.3864C160.509 64.7859 162.34 64.2533 164.073 64.5555C164.816 64.685 166.846 65.5932 165.953 66.811C165.235 67.7892 164.256 67.5622 163.193 67.6782C161.878 67.8221 160.581 68.1521 159.327 68.5804C158.28 68.9379 157.247 69.3932 156.3 69.9937C155.36 70.59 154.659 71.7222 153.627 72.0627C153.153 72.2193 152.572 71.9627 152.514 71.3563C152.22 68.2361 156.731 66.1941 158.898 65.3864Z" fill="#6B371B"/>
<path d="M190.504 61.4015C188.967 61.1977 187.256 61.1116 185.827 61.813C185.214 62.1134 183.669 63.4722 184.73 64.4437C185.581 65.2239 186.376 64.7733 187.324 64.6361C188.496 64.466 189.697 64.4812 190.884 64.6019C191.875 64.7024 192.877 64.9011 193.838 65.2611C194.792 65.6181 195.665 66.5524 196.639 66.6397C197.087 66.6798 197.53 66.2945 197.437 65.6924C196.958 62.5958 192.571 61.6754 190.504 61.4015Z" fill="#6B371B"/>
<path d="M190.927 70.8404C191.038 70.8265 191.147 70.8223 191.256 70.8244L191.255 70.824L196.141 69.6293L193.539 72.1777L193.538 72.1773C193.997 72.8073 194.325 73.6159 194.44 74.5252C194.723 76.769 193.609 78.7574 191.952 78.9663C190.295 79.1752 188.722 77.5256 188.439 75.2815C188.157 73.0377 189.27 71.0493 190.927 70.8404Z" fill="#4C311E"/>
<path d="M159.901 74.7518C160.011 74.7379 160.121 74.7336 160.23 74.7358L160.229 74.7353L165.115 73.5407L162.513 76.0891L162.512 76.0887C162.97 76.7187 163.299 77.5272 163.414 78.4366C163.696 80.6804 162.582 82.6688 160.926 82.8777C159.269 83.0866 157.696 81.437 157.413 79.1928C157.13 76.9491 158.244 74.9607 159.901 74.7518Z" fill="#4C311E"/>
<path d="M194.712 44.0714C194.712 44.0714 186.537 50.7988 171.079 51.3073C155.622 51.8158 147.623 43.8629 140.968 53.0919C134.313 62.3209 143.375 83.6057 143.375 83.6057L137.677 82.4722C137.677 82.4722 132.135 77.7464 129.302 78.1806C126.469 78.6152 124.286 79.6048 124.286 79.6048C124.286 79.6048 118.828 73.3264 116.226 54.3136C113.623 35.3003 127.671 21.0618 163.333 23.2186C198.995 25.3754 194.712 44.0714 194.712 44.0714Z" fill="#A3522F"/>
<path d="M140.612 28.5187C140.612 28.5187 146.037 7.97108 134.28 1.78679C122.523 -4.39751 107.846 6.33924 111.571 20.6802C115.296 35.0212 126.757 36.1897 126.757 36.1897L140.612 28.5187Z" fill="#A3522F"/>
<path d="M150.797 48.6816C150.797 48.6816 159.831 57.4578 176.542 57.2713C193.254 57.0847 199.466 57.6646 199.466 57.6646C199.466 57.6646 205.236 54.2025 202.458 45.2251C199.68 36.2476 185.932 28.7294 185.932 28.7294L150.797 48.6816Z" fill="#A3522F"/>
<mask id="mask0_81_1287" style="mask-type:luminance" maskUnits="userSpaceOnUse" x="132" y="26" width="57" height="18">
<path d="M132.186 26.1626H188.724V43.5149H132.186V26.1626Z" fill="white"/>
</mask>
<g mask="url(#mask0_81_1287)">
<g opacity="0.240005">
<path d="M168.677 26.1647C168.677 26.1647 179.017 28.0902 176.043 33.2491C173.069 38.4079 132.185 39.6157 132.185 39.6157C132.185 39.6157 137.203 42.4514 139.87 43.0722C142.537 43.6925 167.372 44.1495 181.567 40.9247C195.763 37.6998 185.198 29.8824 180.819 28.5206C176.44 27.1593 168.677 26.1647 168.677 26.1647Z" fill="#FFE7D7"/>
</g>
</g>
<path d="M183.973 104.675L190.131 103.464L190.851 98.5546L167.826 101.457C167.826 101.457 170.268 112.868 181.575 111.443C185.605 110.935 188.135 109.124 189.728 107.007L190.182 104.242L183.973 104.675Z" fill="white"/>
<path d="M190.851 98.5545L190.131 103.464L183.973 104.675L190.181 104.242L189.727 107.007C192.603 103.184 192.415 98.3574 192.415 98.3574L190.851 98.5545Z" fill="#E58E63"/>
<path d="M171.85 161.415C171.85 161.415 169.369 164.169 167.527 172.301C165.685 180.433 167.527 188.016 167.527 188.016L163.044 179.973C163.044 179.973 162.8 174.531 166.079 169.022C169.358 163.513 171.85 161.415 171.85 161.415Z" fill="#E58E63"/>
<path d="M203.853 139.249C203.853 139.249 195.686 145.545 190.851 196.96C186.015 248.375 179.338 325.016 179.338 325.016H174.998C174.998 325.016 186.147 184.452 189.426 166.047C192.705 147.643 200.181 138.989 200.181 138.989L203.853 139.249Z" fill="#466D59"/>
<path d="M222.216 259.983L227.631 323.073H224.924L219.068 265.295L222.216 259.983Z" fill="#466D59"/>
<path d="M178.237 321.563H226.635C230.714 321.563 234.02 324.869 234.02 328.948V354.313C234.02 358.392 230.714 361.698 226.635 361.698H178.237C174.158 361.698 170.852 358.392 170.852 354.313V328.948C170.852 324.869 174.158 321.563 178.237 321.563Z" fill="#466D59"/>
<path d="M203.853 139.249C203.853 139.249 218.019 136.363 222.216 161.415C226.413 186.467 232.027 229.514 225.04 263.59C218.051 297.665 209.589 323.073 209.589 323.073C209.589 323.073 192.311 325.617 189.557 327.918C186.802 330.22 183.589 333.367 180.474 332.187C177.359 331.006 180.9 319.989 185.622 318.022C190.344 316.054 198.607 314.874 199.001 313.693C199.394 312.513 205.634 261.384 206.456 235.796C207.279 210.207 196.686 180.124 197.45 166.048C198.214 151.972 203.853 139.249 203.853 139.249Z" fill="#F4BB82"/>
<path d="M284.387 135.021C284.387 135.021 274.443 141.681 269.838 155.804C265.233 169.928 261.273 203.786 246.989 214.925C232.706 226.065 198.52 204.03 198.52 204.03L189.604 218.07C189.604 218.07 220.35 241.212 246.989 239.147C273.628 237.082 283.918 207.178 283.918 207.178L284.387 135.021Z" fill="#CBF4EC"/>
<path d="M293.245 568.442L280.036 607.914H258.823C258.823 607.914 256.622 608.662 256.622 612.497C256.622 616.332 259.724 615.584 269.23 615.584H284.039C284.039 615.584 286.34 615.864 288.742 608.662C291.144 601.46 295.746 586.4 295.746 586.4L302.05 583.688C302.05 583.688 305.552 576.018 302.95 572.651C300.349 569.284 293.245 568.442 293.245 568.442Z" fill="#474642"/>
<path d="M302.05 583.688L296.346 615.643H294.745L295.746 586.401L302.05 583.688Z" fill="#474642"/>
<path d="M275.728 566.386L276.125 570.125L269.121 603.424L261.716 607.914H280.037L293.245 568.442L291.035 553.944L275.728 566.386Z" fill="#F4BB82"/>
<path d="M384.448 558.358L384.807 599.98L364.749 606.884C364.749 606.884 362.91 608.309 364.159 611.934C365.407 615.561 368.096 613.843 377.085 610.749C386.073 607.656 391.088 605.929 391.088 605.929C391.088 605.929 393.355 605.446 393.282 597.854C393.208 590.262 392.659 574.525 392.659 574.525L397.737 569.908C397.737 569.908 398.552 561.516 394.996 559.179C391.44 556.842 384.448 558.358 384.448 558.358Z" fill="#474642"/>
<path d="M397.737 569.908L402.744 601.979L401.231 602.5L392.659 574.525L397.737 569.908Z" fill="#474642"/>
<path d="M367.055 560.728L368.809 565.522L373.024 599.287L367.484 605.942L384.807 599.98L384.448 558.358L377.64 545.369L367.055 560.728Z" fill="#F4BB82"/>
<path d="M269.838 271.551C269.838 271.551 263.073 290.751 266.116 324.235C269.16 357.72 275.727 568.442 275.727 568.442H293.244L305.666 323.461H314.373C314.373 323.461 321.525 430.561 333.12 470.675C344.716 510.79 368.907 566.312 368.907 566.312L384.448 558.358C384.448 558.358 359.762 482.529 356.61 456.031C353.459 429.533 360.416 320.091 358.518 301.475C356.62 282.859 351.663 261.163 351.663 261.163L269.838 271.551Z" fill="#A3AEAF"/>
<path d="M265.348 309.768C265.348 309.768 283.544 315.553 311.977 316.518C340.409 317.482 354.488 311.118 354.488 311.118L358.701 324.428L358.745 305.117L265.348 307.1V309.768Z" fill="#8E9A9B"/>
<path d="M349.26 17.9131C349.26 17.9131 360.124 21.7806 360.124 59.8528V146.484L318.02 140.82C318.02 140.82 315.084 77.6921 316.427 75.8037C317.77 73.9152 346.022 27.5143 346.022 27.5143L349.26 17.9131Z" fill="#8E5930"/>
<path d="M340.037 85.5792V136.818L307.225 128.085L319.505 89.3063L340.037 85.5792Z" fill="#6B371B"/>
<path d="M272.682 52.6255V102.511C272.682 102.511 270.187 133.536 287.504 139.74C304.821 145.945 313.158 144.057 313.158 144.057L318.02 63.6297L281.663 39.1145L272.682 52.6255Z" fill="#6B371B"/>
<path d="M284.387 135.021L296.298 130.559L341.399 131.786L360.124 139.958C360.124 139.958 343.386 237.735 346.022 242.877C348.658 248.02 353.379 268.123 353.379 268.123L269.838 271.551L280.48 241.475L265.796 187.584C264.524 182.915 264.922 177.948 266.92 173.541L284.387 135.021Z" fill="#3ECCB4"/>
<path d="M304.552 103.349L301.932 126.222C301.932 126.222 303.956 133.903 313.978 134.074C324.001 134.245 329.105 126.734 329.105 126.734L328.001 97.0337L304.552 103.349Z" fill="#F4BB82"/>
<path d="M328.749 117.164C328.749 117.164 321.197 120.817 312.736 118.541C304.277 116.265 303.399 113.411 303.399 113.411V111.824L328.002 100.447L328.749 117.164Z" fill="#E58E63"/>
<path d="M277.054 61.0048V63.7152C277.054 74.3423 278.858 84.8971 282.445 94.9009C285.452 103.29 293.03 111.931 296.862 112.234C313.413 113.541 325.76 105.398 330.99 99.6622C336.219 93.9265 340.036 85.5791 340.036 85.5791C340.036 85.5791 347.459 87.7722 351.677 76.8067C355.894 65.8408 350.946 63.4789 350.946 63.4789C350.946 63.4789 347.684 61.7922 343.973 63.254C340.261 64.7162 339.474 65.8408 339.474 65.8408C339.474 65.8408 345.997 43.1224 342.398 31.6506C338.799 20.1787 314.788 10.3379 294.318 21.1349C273.849 31.9316 277.054 61.0048 277.054 61.0048Z" fill="#F4BB82"/>
<path d="M350.328 73.2639C350.328 73.2639 351.284 68.2591 349.878 67.1906C348.472 66.1221 343.074 67.7531 341.78 73.8264C340.487 79.8993 342.793 79.9559 344.198 79.7871C345.604 79.6183 346.954 77.4813 346.391 74.7822C345.829 72.0832 344.648 72.3642 344.648 72.3642C344.648 72.3642 346.459 68.0734 348.528 68.5401C350.598 69.0073 349.934 73.3572 349.934 73.3572L350.328 73.2639Z" fill="#E58E63"/>
<path d="M291.034 79.4508C291.258 76.7484 294.188 74.5106 295.574 72.382C296.452 71.0334 297.252 69.6209 297.746 68.0824C298.33 66.2632 298.19 64.5245 298.31 62.6602C298.319 62.5302 298.501 62.4602 298.571 62.5897C300.365 65.9437 298.664 70.8532 296.867 73.8653C296.394 74.6587 295.864 75.4187 295.304 76.153C294.554 77.1392 292.716 78.7524 293.17 80.1619C293.475 81.1088 295.161 81.7359 296.003 81.9769C297.213 82.3233 298.139 82.0545 299.298 81.7127C299.646 81.6102 299.894 81.9385 299.839 82.2537C299.45 84.5177 296.536 84.4324 294.892 83.829C292.881 83.0905 290.833 81.8756 291.034 79.4508Z" fill="#E58E63"/>
<path d="M316.448 54.1406C314.849 53.7638 313.05 53.4781 311.445 53.9714C310.756 54.1832 308.941 55.2863 309.933 56.3333C310.73 57.1743 311.631 56.8426 312.652 56.8257C313.916 56.8051 315.184 56.9625 316.423 57.2186C317.458 57.4326 318.492 57.7402 319.46 58.1964C320.422 58.6487 321.222 59.6383 322.241 59.8375C322.709 59.9291 323.229 59.6168 323.211 59.0353C323.117 56.0434 318.598 54.647 316.448 54.1406Z" fill="#8E5930"/>
<path d="M286.021 54.1406C287.453 53.7638 289.065 53.4781 290.503 53.9714C291.12 54.1832 292.746 55.2863 291.857 56.3333C291.143 57.1743 290.336 56.8426 289.422 56.8257C288.29 56.8051 287.154 56.9625 286.044 57.2186C285.117 57.4326 284.191 57.7402 283.323 58.1964C282.462 58.6487 281.746 59.6383 280.833 59.8375C280.414 59.9291 279.948 59.6168 279.964 59.0353C280.048 56.0434 284.096 54.647 286.021 54.1406Z" fill="#8E5930"/>
<path d="M286.748 63.1355C286.642 63.1355 286.538 63.1444 286.435 63.1596L286.435 63.1587L281.663 62.6106L284.433 64.7146L284.433 64.7142C284.075 65.3658 283.86 66.1714 283.86 67.047C283.86 69.2067 285.153 70.958 286.748 70.958C288.343 70.958 289.636 69.2067 289.636 67.047C289.636 64.8868 288.343 63.1355 286.748 63.1355Z" fill="#4C311E"/>
<path d="M316.616 63.1355C316.51 63.1355 316.406 63.1444 316.303 63.1596L316.304 63.1587L311.531 62.6106L314.301 64.7146L314.302 64.7142C313.943 65.3658 313.728 66.1714 313.728 67.047C313.728 69.2067 315.021 70.958 316.616 70.958C318.211 70.958 319.504 69.2067 319.504 67.047C319.504 64.8868 318.211 63.1355 316.616 63.1355Z" fill="#4C311E"/>
<path d="M326.477 34.6533C326.477 34.6533 322.626 43.1586 326.477 52.6255C330.328 62.0925 339.474 65.8411 339.474 65.8411C339.474 65.8411 343.849 63.0762 346.575 62.9952C349.301 62.9137 350.245 63.1901 350.245 63.1901C350.245 63.1901 352.472 37.5419 352.472 29.2379C352.472 20.9339 347.237 14.9767 347.237 14.9767C347.237 14.9767 345.071 9.92204 342.634 9.0194C340.196 8.11676 338.619 8.02645 338.619 8.02645C338.619 8.02645 342.904 10.193 343.536 11.5467C344.168 12.9005 344.168 14.074 344.168 14.074C344.168 14.074 328.282 5.22865 301.565 11.7273C274.848 18.226 271.599 31.9454 270.155 41.3326C268.71 50.7198 272.682 52.6255 272.682 52.6255C272.682 52.6255 293.141 52.7053 308.064 46.4472C322.987 40.1894 326.477 34.6533 326.477 34.6533Z" fill="#8E5930"/>
<mask id="mask1_81_1287" style="mask-type:luminance" maskUnits="userSpaceOnUse" x="277" y="14" width="60" height="20">
<path d="M277.515 14.2963H336.932V33.1509H277.515V14.2963Z" fill="white"/>
</mask>
<g mask="url(#mask1_81_1287)">
<g opacity="0.240005">
<path d="M297.142 14.2952C297.142 14.2952 286.621 17.937 290.398 23.3326C294.174 28.7282 336.934 24.277 336.934 24.277C336.934 24.277 332.078 28.1885 329.38 29.2675C326.682 30.347 300.864 34.3935 285.649 32.7747C270.434 31.1559 280.416 20.8374 284.8 18.6789C289.184 16.5208 297.142 14.2952 297.142 14.2952Z" fill="#FFE7D7"/>
</g>
</g>
<path d="M291.17 92.6619C291.17 92.6619 290.713 98.8664 298.57 99.0255C306.427 99.1842 311.665 91.8825 311.665 91.8825L298.808 93.1522L291.17 92.6619Z" fill="#BF1B1B"/>
<path d="M290.146 91.8827C290.146 91.8827 293.451 95.2953 301.189 94.4619C308.926 93.6289 315.126 90.1027 315.126 90.1027C315.126 90.1027 310.027 92.3579 294.601 89.3431C290.532 88.5477 290.146 91.8827 290.146 91.8827Z" fill="#E23D3D"/>
<path d="M324.145 76.4091C322.495 77.9122 307.314 77.8211 305.919 76.4091C304.523 74.9971 302.874 66.6159 302.747 65.6137C302.62 64.6119 302.62 64.1561 302.62 64.1561C302.874 63.1543 307.568 58.0984 315.56 57.5971C323.552 57.0962 329.092 59.3737 329.473 60.8768C329.853 62.38 325.794 74.906 324.145 76.4091ZM292.572 65.6137C292.445 66.6159 290.796 74.9971 289.401 76.4091C288.005 77.8211 272.824 77.9122 271.175 76.4091C269.526 74.906 265.466 62.38 265.847 60.8768C266.227 59.3737 271.767 57.0962 279.759 57.5971C287.751 58.0984 292.445 63.1543 292.699 64.1561C292.699 64.1561 292.699 64.6119 292.572 65.6137ZM315.518 54.8187C304.312 55.6387 299.872 62.3344 299.872 62.3344H299.634H295.685H295.448C295.448 62.3344 291.008 55.6387 279.802 54.8187C268.595 53.9988 261.237 59.3281 261.237 59.3281L262.337 63.0176L263.521 62.653C263.521 62.653 266.6 75.9145 269.653 78.0945C273.448 80.8046 289.337 80.9755 291.388 78.0945C293.256 75.4714 295.406 65.9327 295.406 65.9327H295.685H299.634H299.914C299.914 65.9327 302.064 75.4714 303.931 78.0945C305.982 80.9755 321.872 80.8046 325.667 78.0945C328.719 75.9145 331.799 62.653 331.799 62.653L332.983 63.0176L334.082 59.3281C334.082 59.3281 326.724 53.9988 315.518 54.8187Z" fill="#372006"/>
<path d="M374.711 269.653C374.711 269.653 399.887 222.381 393.264 210.188C386.641 197.996 352.249 173.418 343.213 158.675C334.176 143.932 349.454 130.521 370.412 145.625C391.37 160.729 430.674 197.37 418.788 224.583C406.903 251.795 389.657 278.383 389.657 278.383L374.711 269.653Z" fill="#CBF4EC"/>
<path d="M376.579 270.745C376.579 270.745 371.46 272.156 367.906 278.241C364.352 284.326 358.086 295.055 358.086 295.055C358.086 295.055 355.319 300.526 358.389 301.889C361.458 303.253 364.798 297.902 364.798 297.902C364.798 297.902 368.427 300.88 370.136 300.161C371.846 299.441 373.529 296.558 373.529 296.558C373.529 296.558 377.932 298.486 379.502 296.396C381.072 294.307 384.611 292.293 386.535 288.262C388.459 284.232 389.657 278.383 389.657 278.383L376.579 270.745Z" fill="#F4BB82"/>
<path d="M301.931 126.222C301.931 126.222 306.228 133.189 311.665 133.013C317.102 132.838 329.105 125.066 329.105 125.066L341.4 131.786L309.388 155.804L307.224 136.818L294.486 153.7C294.486 153.7 293.61 131.435 294.486 129.857C295.363 128.28 301.931 126.222 301.931 126.222Z" fill="#CBF4EC"/>
<path d="M271.661 266.399C271.661 266.399 268.023 274.475 266.159 285.275C264.612 294.235 263.828 306.875 263.828 306.875C263.828 306.875 278.887 309.189 307.045 312.275C335.202 315.361 360.125 304.561 360.125 304.561C360.125 304.561 357.766 278.332 354.295 264.06C350.823 249.789 346.022 242.878 346.022 242.878C346.022 242.878 292.387 260.386 290.073 261.162C287.759 261.939 271.661 266.399 271.661 266.399Z" fill="#3ECCB4"/>
<path d="M314.374 323.461V320.182L284.095 317.675L300.102 326.161L303.857 359.163L305.667 323.461H314.374Z" fill="#8E9A9B"/>
<path d="M197.574 205.52C197.574 205.52 190.076 195.111 186.995 194.586C183.914 194.062 168.699 196.685 164.502 194.586C160.305 192.488 154.796 198.104 156.633 200.018C158.469 201.931 173.684 205.079 179.454 207.702C185.225 210.326 191.602 214.925 191.602 214.925L197.574 205.52Z" fill="#F4BB82"/>
</svg>
