<svg width="90" height="90" viewBox="0 0 90 90" fill="none" xmlns="http://www.w3.org/2000/svg">
<rect width="90" height="90" rx="40" fill="#006633"/>
<path fill-rule="evenodd" clip-rule="evenodd" d="M44.417 81.2319C30.5727 81.2319 18.75 79.0776 18.75 70.4497C18.75 61.8217 30.4977 53.8569 44.417 53.8569C58.2614 53.8569 70.0841 61.7445 70.0841 70.3725C70.0841 78.9969 58.3364 81.2319 44.417 81.2319Z" stroke="white" stroke-width="5" stroke-linecap="round" stroke-linejoin="round"/>
<path fill-rule="evenodd" clip-rule="evenodd" d="M44.3899 41.9011C53.4751 41.9011 60.8387 34.5375 60.8387 25.4523C60.8387 16.367 53.4751 9 44.3899 9C35.3046 9 27.9376 16.367 27.9376 25.4523C27.9069 34.5068 35.2194 41.8705 44.274 41.9011C44.3149 41.9011 44.3524 41.9011 44.3899 41.9011Z" stroke="white" stroke-width="5" stroke-linecap="round" stroke-linejoin="round"/>
</svg>
