<?xml version="1.0" encoding="utf-8"?>
<!-- Generator: Adobe Illustrator 27.5.0, SVG Export Plug-In . SVG Version: 6.00 Build 0)  -->
<svg version="1.1" xmlns="http://www.w3.org/2000/svg" xmlns:xlink="http://www.w3.org/1999/xlink" x="0px" y="0px"
	 viewBox="0 0 500 500" style="enable-background:new 0 0 500 500;" xml:space="preserve">
<g id="Floor">
	<ellipse id="Floor_5_" style="fill:#F0F0F0;" cx="250" cy="322.51" rx="238.194" ry="137.521"/>
</g>
<g id="Shadows">
	<polygon id="Shadow_12_" style="fill:#E0E0E0;" points="103.758,346.488 22.517,299.584 128.13,238.607 209.37,285.513 	"/>
	<polygon id="Shadow_11_" style="fill:#E0E0E0;" points="267.177,311.31 149.38,379.322 230.619,426.226 348.418,358.215 	"/>
	<ellipse id="Shadow_1_" style="fill:#E0E0E0;" cx="401.287" cy="341.564" rx="58.47" ry="33.758"/>
</g>
<g id="Plants">
	<g id="Plants_3_">
		<g id="XMLID_891_">
			<path id="XMLID_916_" style="fill:#27DEBF;" d="M421.941,315.19c0,0-0.724-13.307,4.056-24.538
				c4.781-11.231,12.634-19.065,20.849-21.132c8.215-2.067,16.236,4.456,8.216,11.224c-8.019,6.767-22.939,14.813-26.895,35.721
				L421.941,315.19z"/>
			<path id="XMLID_915_" style="opacity:0.15;" d="M421.941,315.19c0,0-0.724-13.307,4.056-24.538
				c4.781-11.231,12.634-19.065,20.849-21.132c8.215-2.067,16.236,4.456,8.216,11.224c-8.019,6.767-22.939,14.813-26.895,35.721
				L421.941,315.19z"/>
			<g id="XMLID_892_">
				<path id="XMLID_914_" style="fill:#FFFFFF;" d="M423.809,311.386c-0.031,0-0.062-0.003-0.092-0.011
					c-0.243-0.053-0.397-0.294-0.342-0.538c5.126-23.126,20.325-34.991,27.646-38.033c0.229-0.097,0.493,0.014,0.59,0.243
					c0.095,0.23-0.013,0.494-0.243,0.59c-7.171,2.981-22.066,14.633-27.112,37.396C424.207,311.245,424.018,311.389,423.809,311.386
					z"/>
			</g>
		</g>
		<g id="XMLID_698_">
			<g id="XMLID_763_">
				<g id="XMLID_826_">
					<path id="XMLID_890_" style="fill:#27DEBF;" d="M425.118,322.355c-0.129-1.067-0.227-2.14-0.37-3.206
						c-0.103-0.764-0.388-1.448-0.477-2.227c-0.194-1.702-0.208-3.528,0.664-5.062c0.697-1.227,1.77-2.188,2.823-3.128
						c1.053-0.939,2.124-1.903,2.817-3.133c0.455-0.807,0.729-1.702,1.128-2.538c1.321-2.767,4.102-4.743,7.116-5.217
						c1.603-0.252,3.017-0.216,4.596,0.161c1.698,0.406,3.444,0.934,5.206,0.652c2.579-0.413,5.041-1.395,7.709-1.512
						c2.791-0.122,5.748,0.731,7.597,2.929c1.039,1.235,1.668,2.947,1.186,4.487c-0.533,1.697-2.201,2.738-3.768,3.586
						c-1.558,0.84-3.266,1.759-3.979,3.387c-1.437,3.288,1.989,7.294,0.413,10.517c-0.662,1.351-2.084,2.185-3.525,2.616
						c-1.197,0.368-2.442,0.507-3.67,0.752c-0.598,0.055-1.193,0.079-1.778,0.063c-1.729-0.054-3.584,0.076-5.044,1.124
						c-2.296,1.656-2.698,4.839-3.916,7.396c-1.461,3.062-4.406,5.292-7.673,6.12c-2.74,0.683-6.98,0.533-7.838-0.616
						c-0.652-0.873,0.657-3.878,0.569-4.965c-0.226-2.787-0.188-5.595,0.113-8.375C425.16,324.813,425.281,323.711,425.118,322.355z
						"/>
				</g>
			</g>
			<g id="XMLID_760_">
				<path id="XMLID_761_" style="fill:#FFFFFF;" d="M425.836,332.351c-0.011-0.001-0.022-0.002-0.033-0.004
					c-0.218-0.032-0.369-0.236-0.336-0.455c3.699-24.902,28.769-31.285,34.776-31.531c0.217-0.007,0.406,0.163,0.417,0.384
					c0.009,0.221-0.163,0.407-0.384,0.417c-5.876,0.241-30.398,6.486-34.018,30.849
					C426.227,332.218,426.041,332.365,425.836,332.351z"/>
			</g>
			<g id="XMLID_712_">
				<path id="XMLID_758_" style="fill:#FFFFFF;" d="M452.741,316.892c-0.079-0.005-0.157-0.034-0.223-0.087
					c-0.071-0.057-7.293-5.724-17.885-2.915c-0.214,0.054-0.433-0.07-0.49-0.284s0.071-0.433,0.284-0.49
					c11.002-2.914,18.517,3.005,18.592,3.065c0.172,0.139,0.199,0.391,0.061,0.563C452.995,316.849,452.867,316.9,452.741,316.892z"
					/>
			</g>
		</g>
	</g>
</g>
<g id="Copies_1_">
	<g id="Copies">
		<g id="Document_4_">
			<path id="XMLID_990_" style="fill:#FAFAFA;" d="M44.554,308.128c-1.018-0.588-1.843-2.08-1.843-3.333v-165.26
				c0-1.253,0.88-2.777,1.965-3.403l97.622-56.302c1.085-0.627,2.79-0.658,3.808-0.07c1.018,0.588,1.843,2.08,1.843,3.333
				l0.001,165.26c0,1.253-0.88,2.776-1.965,3.403l-97.623,56.302C47.277,308.684,45.572,308.716,44.554,308.128z"/>
			<path id="XMLID_989_" style="fill:#F5F5F5;" d="M48.362,308.057l97.623-56.302c1.085-0.627,1.965-2.15,1.965-3.403l-0.001-165.26
				c0-1.253-0.88-1.761-1.965-1.134L48.361,138.26c-1.085,0.626-1.965,2.15-1.965,3.403l0.001,165.26
				C46.397,308.176,47.277,308.684,48.362,308.057z"/>
			<path id="XMLID_988_" style="fill:#EBEBEB;" d="M48.106,308.186c-1.08,0.5-2.61,0.49-3.55-0.06c-1.02-0.59-1.84-2.08-1.84-3.33
				V139.539c0-0.63,0.22-1.32,0.57-1.94l3.69,2.13c-0.36,0.61-0.58,1.31-0.58,1.93v165.268
				C46.396,308.076,47.146,308.596,48.106,308.186z"/>
			<g>
				<path id="XMLID_971_" style="fill:#E0E0E0;" d="M100.463,120.959l32.31-18.698c0.957-0.552,1.732-0.105,1.732,1v0.69
					c0,1.105-0.775,2.448-1.732,3l-32.311,18.698c-0.957,0.552-1.732,0.105-1.731-1l0-0.69
					C98.73,122.855,99.506,121.511,100.463,120.959z"/>
				<path id="XMLID_970_" style="fill:#E0E0E0;" d="M100.463,132.672l32.31-18.698c0.957-0.552,1.732-0.104,1.732,1v0.69
					c0,1.105-0.775,2.448-1.732,3l-32.311,18.698c-0.957,0.552-1.732,0.105-1.731-1l0-0.69
					C98.73,134.567,99.506,133.224,100.463,132.672z"/>
				<path id="XMLID_969_" style="fill:#E0E0E0;" d="M100.463,144.384l32.31-18.698c0.957-0.552,1.732-0.105,1.732,1v0.69
					c0,1.104-0.775,2.448-1.732,3l-32.311,18.698c-0.957,0.552-1.732,0.105-1.731-1l0-0.69
					C98.73,146.28,99.506,144.936,100.463,144.384z"/>
				<path id="XMLID_968_" style="fill:#E0E0E0;" d="M100.463,156.097l32.31-18.698c0.957-0.552,1.732-0.105,1.732,1v0.69
					c0,1.105-0.775,2.448-1.732,3l-32.311,18.698c-0.957,0.552-1.732,0.105-1.731-1l0-0.69
					C98.73,157.992,99.506,156.649,100.463,156.097z"/>
				<path id="XMLID_961_" style="fill:#E0E0E0;" d="M59.06,191.671l73.713-42.559c0.957-0.552,1.732-0.105,1.732,1v0.69
					c0,1.105-0.775,2.448-1.732,3l-73.715,42.559c-0.957,0.552-1.732,0.105-1.731-1l0-0.69
					C57.327,193.566,58.103,192.223,59.06,191.671z"/>
				<path id="XMLID_960_" style="fill:#E0E0E0;" d="M59.06,203.469l73.713-42.559c0.957-0.552,1.732-0.105,1.732,1v0.69
					c0,1.105-0.775,2.448-1.732,3l-73.715,42.559c-0.957,0.552-1.732,0.105-1.731-1l0-0.69
					C57.327,205.364,58.103,204.021,59.06,203.469z"/>
				<path id="XMLID_959_" style="fill:#E0E0E0;" d="M59.06,215.181l73.713-42.559c0.957-0.552,1.732-0.105,1.732,1v0.69
					c0,1.105-0.775,2.448-1.732,3l-73.715,42.559c-0.957,0.552-1.732,0.104-1.731-1l0-0.69
					C57.327,217.077,58.103,215.733,59.06,215.181z"/>
				<path id="XMLID_957_" style="fill:#E0E0E0;" d="M59.06,226.893l73.713-42.559c0.957-0.552,1.732-0.104,1.732,1v0.691
					c0,1.105-0.775,2.448-1.732,3l-73.715,42.559c-0.957,0.552-1.732,0.105-1.731-1l0-0.69
					C57.327,228.789,58.103,227.446,59.06,226.893z"/>
				<path id="XMLID_956_" style="fill:#E0E0E0;" d="M59.06,238.606l73.713-42.559c0.957-0.552,1.732-0.105,1.732,1v0.69
					c0,1.105-0.775,2.448-1.732,3l-73.715,42.559c-0.957,0.552-1.732,0.105-1.731-1l0-0.69
					C57.327,240.501,58.103,239.158,59.06,238.606z"/>
				<path id="XMLID_955_" style="fill:#E0E0E0;" d="M59.06,250.318l73.713-42.559c0.957-0.552,1.732-0.105,1.732,1v0.69
					c0,1.105-0.775,2.448-1.732,3l-73.715,42.559c-0.957,0.552-1.732,0.105-1.731-1l0-0.69
					C57.327,252.214,58.103,250.871,59.06,250.318z"/>
				<path id="XMLID_954_" style="fill:#E0E0E0;" d="M59.06,262.082l73.713-42.559c0.957-0.552,1.732-0.105,1.732,1v0.69
					c0,1.105-0.775,2.448-1.732,3l-73.715,42.559c-0.957,0.552-1.732,0.105-1.731-1l0-0.69
					C57.327,263.978,58.103,262.635,59.06,262.082z"/>
				<path id="XMLID_953_" style="fill:#E0E0E0;" d="M59.06,273.795l73.713-42.559c0.957-0.552,1.732-0.105,1.732,1v0.69
					c0,1.105-0.775,2.448-1.732,3l-73.715,42.559c-0.957,0.552-1.732,0.105-1.731-1l0-0.69
					C57.327,275.69,58.103,274.347,59.06,273.795z"/>
				<path id="XMLID_952_" style="fill:#E0E0E0;" d="M59.06,285.507l73.713-42.559c0.957-0.552,1.732-0.104,1.732,1v0.691
					c0,1.105-0.775,2.448-1.732,3l-73.715,42.559c-0.957,0.552-1.732,0.105-1.731-1l0-0.69
					C57.327,287.403,58.103,286.06,59.06,285.507z"/>
			</g>
			<g id="XMLID_947_">
				<g id="XMLID_948_" style="opacity:0.3;">
					<polygon id="XMLID_949_" points="57.786,145.86 93.335,125.335 93.336,166.384 57.786,186.909 					"/>
				</g>
				<path style="fill:#FAFAFA;" d="M63.118,149.965v12.315l1.114-0.664v-3.773c0-2.084,1.696-4.752,3.789-5.961l5.256-3.035v18.303
					c0,2.417-1.479,5.229-3.302,6.282l-3.302,1.907v1.307l17.775-10.262v-1.307c0,0-1.478,0.854-3.302,1.906
					c-1.824,1.053-3.302-0.053-3.302-2.469v-18.303l5.256-3.035c2.093-1.208,3.789-0.499,3.789,1.585c0,2.084,0,3.773,0,3.773
					l1.114-0.622v-12.315L63.118,149.965z"/>
			</g>
		</g>
		<g id="Document_2_">
			<path id="XMLID_913_" style="fill:#FAFAFA;" d="M72.997,324.538c-1.018-0.588-1.843-2.08-1.843-3.333v-165.26
				c0-1.253,0.88-2.777,1.965-3.403l97.622-56.302c1.085-0.627,2.79-0.658,3.808-0.07c1.018,0.588,1.843,2.08,1.843,3.333
				l0.001,165.26c0,1.253-0.88,2.777-1.965,3.403l-97.623,56.302C75.72,325.095,74.015,325.126,72.997,324.538z"/>
			<path id="XMLID_912_" style="fill:#F5F5F5;" d="M76.805,324.468l97.623-56.302c1.085-0.626,1.965-2.15,1.965-3.403l-0.001-165.26
				c0-1.253-0.88-1.761-1.965-1.134L76.804,154.67c-1.085,0.626-1.965,2.15-1.965,3.403l0.001,165.26
				C74.841,324.587,75.72,325.095,76.805,324.468z"/>
			<path id="XMLID_911_" style="fill:#EBEBEB;" d="M76.549,324.597c-1.08,0.5-2.61,0.49-3.55-0.06c-1.02-0.59-1.84-2.08-1.84-3.33
				V155.949c0-0.63,0.22-1.32,0.57-1.94l3.69,2.13c-0.36,0.61-0.58,1.31-0.58,1.93v165.268
				C74.839,324.487,75.589,325.007,76.549,324.597z"/>
			<g>
				<path id="XMLID_910_" style="fill:#E0E0E0;" d="M128.906,137.37l32.31-18.698c0.957-0.552,1.732-0.105,1.732,1v0.69
					c0,1.105-0.775,2.448-1.732,3l-32.311,18.698c-0.957,0.552-1.732,0.105-1.731-1l0-0.69
					C127.174,139.265,127.95,137.922,128.906,137.37z"/>
				<path id="XMLID_909_" style="fill:#E0E0E0;" d="M128.906,149.082l32.31-18.698c0.957-0.552,1.732-0.104,1.732,1v0.691
					c0,1.105-0.775,2.448-1.732,3l-32.311,18.698c-0.957,0.552-1.732,0.105-1.731-1l0-0.69
					C127.174,150.978,127.95,149.635,128.906,149.082z"/>
				<path id="XMLID_908_" style="fill:#E0E0E0;" d="M128.906,160.795l32.31-18.698c0.957-0.552,1.732-0.105,1.732,1v0.69
					c0,1.105-0.775,2.448-1.732,3l-32.311,18.698c-0.957,0.552-1.732,0.105-1.731-1l0-0.69
					C127.174,162.69,127.95,161.347,128.906,160.795z"/>
				<path id="XMLID_907_" style="fill:#E0E0E0;" d="M128.906,172.507l32.31-18.698c0.957-0.552,1.732-0.105,1.732,1v0.69
					c0,1.105-0.775,2.448-1.732,3l-32.311,18.698c-0.957,0.552-1.732,0.104-1.731-1l0-0.69
					C127.174,174.403,127.95,173.059,128.906,172.507z"/>
				<path id="XMLID_906_" style="fill:#E0E0E0;" d="M87.503,208.081l73.713-42.559c0.957-0.552,1.732-0.104,1.732,1v0.691
					c0,1.105-0.775,2.448-1.732,3l-73.715,42.559c-0.957,0.552-1.732,0.105-1.731-1l0-0.69
					C85.77,209.977,86.546,208.633,87.503,208.081z"/>
				<path id="XMLID_905_" style="fill:#E0E0E0;" d="M87.503,219.879l73.713-42.559c0.957-0.552,1.732-0.105,1.732,1v0.691
					c0,1.105-0.775,2.448-1.732,3L87.501,224.57c-0.957,0.552-1.732,0.105-1.731-1l0-0.69
					C85.77,221.775,86.546,220.431,87.503,219.879z"/>
				<path id="XMLID_904_" style="fill:#E0E0E0;" d="M87.503,231.592l73.713-42.559c0.957-0.552,1.732-0.105,1.732,1v0.69
					c0,1.105-0.775,2.448-1.732,3l-73.715,42.559c-0.957,0.552-1.732,0.105-1.731-1l0-0.69
					C85.77,233.487,86.546,232.144,87.503,231.592z"/>
				<path id="XMLID_903_" style="fill:#E0E0E0;" d="M87.503,243.304l73.713-42.559c0.957-0.552,1.732-0.105,1.732,1v0.69
					c0,1.105-0.775,2.448-1.732,3l-73.715,42.559c-0.957,0.552-1.732,0.105-1.731-1l0-0.69
					C85.77,245.199,86.546,243.856,87.503,243.304z"/>
				<path id="XMLID_902_" style="fill:#E0E0E0;" d="M87.503,255.016l73.713-42.559c0.957-0.552,1.732-0.105,1.732,1v0.691
					c0,1.104-0.775,2.448-1.732,3l-73.715,42.559c-0.957,0.552-1.732,0.105-1.731-1l0-0.69
					C85.77,256.912,86.546,255.569,87.503,255.016z"/>
				<path id="XMLID_901_" style="fill:#E0E0E0;" d="M87.503,266.729l73.713-42.559c0.957-0.552,1.732-0.105,1.732,1v0.69
					c0,1.105-0.775,2.448-1.732,3l-73.715,42.559c-0.957,0.552-1.732,0.104-1.731-1l0-0.69
					C85.77,268.624,86.546,267.281,87.503,266.729z"/>
				<path id="XMLID_900_" style="fill:#E0E0E0;" d="M87.503,278.493l73.713-42.559c0.957-0.552,1.732-0.105,1.732,1v0.691
					c0,1.105-0.775,2.448-1.732,3l-73.715,42.559c-0.957,0.552-1.732,0.105-1.731-1l0-0.69
					C85.77,280.388,86.546,279.045,87.503,278.493z"/>
				<path id="XMLID_897_" style="fill:#E0E0E0;" d="M87.503,290.205l73.713-42.559c0.957-0.552,1.732-0.105,1.732,1v0.69
					c0,1.105-0.775,2.448-1.732,3l-73.715,42.559c-0.957,0.552-1.732,0.104-1.731-1l0-0.69
					C85.77,292.101,86.546,290.758,87.503,290.205z"/>
				<path id="XMLID_896_" style="fill:#E0E0E0;" d="M87.503,301.918l73.713-42.559c0.957-0.552,1.732-0.104,1.732,1v0.691
					c0,1.105-0.775,2.448-1.732,3l-73.715,42.559c-0.957,0.552-1.732,0.105-1.731-1l0-0.69
					C85.77,303.813,86.546,302.47,87.503,301.918z"/>
			</g>
			<g id="XMLID_893_">
				<g id="XMLID_894_" style="opacity:0.3;">
					<polygon id="XMLID_895_" points="86.229,162.27 121.779,141.746 121.779,182.795 86.229,203.319 					"/>
				</g>
				<path style="fill:#FAFAFA;" d="M91.562,166.375v12.315l1.114-0.664v-3.773c0-2.084,1.696-4.752,3.789-5.961l5.256-3.035v18.303
					c0,2.417-1.479,5.229-3.302,6.282l-3.302,1.907v1.307l17.775-10.262v-1.307c0,0-1.478,0.854-3.302,1.907
					c-1.824,1.053-3.302-0.053-3.302-2.469v-18.303l5.256-3.035c2.093-1.208,3.79-0.499,3.79,1.585c0,2.084,0,3.773,0,3.773
					l1.113-0.622v-12.315L91.562,166.375z"/>
			</g>
		</g>
		<g id="Document_5_">
			<path id="XMLID_601_" style="fill:#FAFAFA;" d="M101.438,340.949c-1.018-0.588-1.843-2.08-1.843-3.333v-165.26
				c0-1.253,0.88-2.777,1.965-3.403l97.622-56.302c1.085-0.627,2.79-0.658,3.808-0.07c1.018,0.588,1.843,2.08,1.843,3.333
				l0.001,165.26c0,1.253-0.88,2.776-1.965,3.403l-97.623,56.302C104.161,341.506,102.456,341.537,101.438,340.949z"/>
			<path id="XMLID_554_" style="fill:#F5F5F5;" d="M105.246,340.879l97.623-56.302c1.085-0.626,1.965-2.15,1.965-3.403
				l-0.001-165.26c0-1.253-0.88-1.761-1.965-1.134l-97.623,56.302c-1.085,0.626-1.965,2.15-1.965,3.403l0.001,165.26
				C103.281,340.998,104.161,341.506,105.246,340.879z"/>
			<path id="XMLID_270_" style="fill:#EBEBEB;" d="M104.989,341.008c-1.08,0.5-2.61,0.49-3.55-0.06c-1.02-0.59-1.84-2.08-1.84-3.33
				V172.361c0-0.63,0.22-1.32,0.57-1.94l3.69,2.13c-0.36,0.61-0.58,1.31-0.58,1.93v165.268
				C103.279,340.898,104.029,341.418,104.989,341.008z"/>
			<g>
				<path id="XMLID_537_" style="fill:#E0E0E0;" d="M157.347,153.781l32.31-18.698c0.957-0.552,1.732-0.105,1.732,1v0.69
					c0,1.105-0.775,2.448-1.732,3l-32.311,18.698c-0.957,0.552-1.732,0.105-1.731-1l0-0.69
					C155.614,155.676,156.39,154.333,157.347,153.781z"/>
				<path id="XMLID_336_" style="fill:#E0E0E0;" d="M157.347,165.493l32.31-18.698c0.957-0.552,1.732-0.104,1.732,1v0.691
					c0,1.105-0.775,2.448-1.732,3l-32.311,18.698c-0.957,0.552-1.732,0.105-1.731-1l0-0.69
					C155.614,167.389,156.39,166.046,157.347,165.493z"/>
				<path id="XMLID_328_" style="fill:#E0E0E0;" d="M157.347,177.206l32.31-18.698c0.957-0.552,1.732-0.105,1.732,1v0.69
					c0,1.105-0.775,2.448-1.732,3l-32.311,18.698c-0.957,0.552-1.732,0.105-1.731-1l0-0.69
					C155.614,179.101,156.39,177.758,157.347,177.206z"/>
				<path id="XMLID_327_" style="fill:#E0E0E0;" d="M157.347,188.918l32.31-18.698c0.957-0.552,1.732-0.105,1.732,1v0.69
					c0,1.105-0.775,2.448-1.732,3l-32.311,18.698c-0.957,0.552-1.732,0.104-1.731-1l0-0.69
					C155.614,190.814,156.39,189.471,157.347,188.918z"/>
				<path id="XMLID_326_" style="fill:#E0E0E0;" d="M115.943,224.492l73.713-42.559c0.957-0.552,1.732-0.104,1.732,1v0.691
					c0,1.105-0.775,2.448-1.732,3l-73.715,42.559c-0.957,0.552-1.732,0.105-1.731-1l0-0.69
					C114.211,226.388,114.987,225.045,115.943,224.492z"/>
				<path id="XMLID_315_" style="fill:#E0E0E0;" d="M115.943,236.29l73.713-42.559c0.957-0.552,1.732-0.105,1.732,1v0.691
					c0,1.104-0.775,2.448-1.732,3l-73.715,42.559c-0.957,0.552-1.732,0.105-1.731-1l0-0.69
					C114.211,238.186,114.987,236.843,115.943,236.29z"/>
				<path id="XMLID_306_" style="fill:#E0E0E0;" d="M115.943,248.003l73.713-42.559c0.957-0.552,1.732-0.105,1.732,1v0.69
					c0,1.105-0.775,2.448-1.732,3l-73.715,42.559c-0.957,0.552-1.732,0.105-1.731-1l0-0.69
					C114.211,249.898,114.987,248.555,115.943,248.003z"/>
				<path id="XMLID_302_" style="fill:#E0E0E0;" d="M115.943,259.715l73.713-42.559c0.957-0.552,1.732-0.105,1.732,1v0.69
					c0,1.105-0.775,2.448-1.732,3l-73.715,42.559c-0.957,0.552-1.732,0.105-1.731-1l0-0.69
					C114.211,261.611,114.987,260.268,115.943,259.715z"/>
				<path id="XMLID_297_" style="fill:#E0E0E0;" d="M115.943,271.428l73.713-42.559c0.957-0.552,1.732-0.105,1.732,1v0.691
					c0,1.104-0.775,2.448-1.732,3l-73.715,42.559c-0.957,0.552-1.732,0.105-1.731-1l0-0.69
					C114.211,273.323,114.987,271.98,115.943,271.428z"/>
				<path id="XMLID_291_" style="fill:#E0E0E0;" d="M115.943,283.14l73.713-42.559c0.957-0.552,1.732-0.105,1.732,1v0.69
					c0,1.105-0.775,2.448-1.732,3l-73.715,42.559c-0.957,0.552-1.732,0.105-1.731-1l0-0.69
					C114.211,285.036,114.987,283.693,115.943,283.14z"/>
				<path id="XMLID_278_" style="fill:#E0E0E0;" d="M115.943,294.904l73.713-42.559c0.957-0.552,1.732-0.105,1.732,1v0.691
					c0,1.104-0.775,2.448-1.732,3l-73.715,42.559c-0.957,0.552-1.732,0.105-1.731-1l0-0.69
					C114.211,296.8,114.987,295.457,115.943,294.904z"/>
				<path id="XMLID_272_" style="fill:#E0E0E0;" d="M115.943,306.617l73.713-42.559c0.957-0.552,1.732-0.105,1.732,1v0.69
					c0,1.105-0.775,2.448-1.732,3l-73.715,42.559c-0.957,0.552-1.732,0.104-1.731-1l0-0.69
					C114.211,308.512,114.987,307.169,115.943,306.617z"/>
				<path id="XMLID_271_" style="fill:#E0E0E0;" d="M115.943,318.329l73.713-42.559c0.957-0.552,1.732-0.104,1.732,1v0.69
					c0,1.105-0.775,2.448-1.732,3l-73.715,42.559c-0.957,0.552-1.732,0.105-1.731-1l0-0.69
					C114.211,320.225,114.987,318.881,115.943,318.329z"/>
			</g>
			<g id="XMLID_2861_">
				<g id="XMLID_647_">
					<polygon id="XMLID_2959_" style="fill:#27DEBF;" points="114.67,178.682 150.219,158.157 150.219,199.206 114.67,219.731 					
						"/>
				</g>
				<path style="fill:#FAFAFA;" d="M120.002,182.786v12.315l1.114-0.664v-3.773c0-2.084,1.697-4.752,3.789-5.961l5.256-3.035v18.303
					c0,2.417-1.479,5.229-3.302,6.282l-3.302,1.907v1.307l17.775-10.262v-1.307c0,0-1.478,0.854-3.302,1.906
					c-1.824,1.053-3.302-0.053-3.302-2.469v-18.303l5.256-3.035c2.093-1.208,3.79-0.499,3.79,1.585c0,2.084,0,3.773,0,3.773
					l1.114-0.622v-12.315L120.002,182.786z"/>
			</g>
		</g>
	</g>
</g>
<g id="Photocopier_1_">
	<g id="Photocopier">
		<g>
			<polygon style="fill:#263238;" points="161.624,369.616 231.515,409.967 340.235,347.198 270.343,306.847 			"/>
			<path style="fill:#37474F;" d="M231.516,409.967l-69.891-40.352l0,6.577c0,1.314,0.931,2.927,2.07,3.585l9.579,5.53v-4.483
				l42.711,24.659v4.483l13.462,7.772c1.281,0.739,2.858,0.739,4.139,0l0,0l-2.07-1.195V409.967z"/>
			<path style="fill:#455A64;" d="M340.235,347.198l0,6.577c0,1.32-0.927,2.925-2.069,3.585l-9.579,5.53v-4.483l-81.54,47.077v4.483
				l-13.462,7.772c-1.143,0.66-2.07,0.125-2.07-1.195v-6.577L340.235,347.198z"/>
			<polygon style="fill:#263238;" points="173.273,385.308 177.156,383.066 173.273,380.824 			"/>
			<polygon style="fill:#37474F;" points="328.586,362.89 324.703,360.649 328.586,358.407 			"/>
		</g>
		<g>
			<path style="fill:#27DEBF;" d="M338.129,345.394c1.196-0.69,2.165-2.369,2.165-3.75v-44.405l-69.055-39.869l-18.272,10.549
				l0,46.904l69.055,39.869L338.129,345.394z"/>
			<path style="opacity:0.7;fill:#FFFFFF;" d="M338.129,345.394c1.196-0.69,2.165-2.369,2.165-3.75v-44.405l-69.055-39.869
				l-18.272,10.549l0,46.904l69.055,39.869L338.129,345.394z"/>
			<polygon style="fill:#27DEBF;" points="252.967,267.919 252.967,314.824 322.022,354.693 322.022,307.788 			"/>
			<polygon style="opacity:0.3;" points="252.967,267.919 252.967,314.824 322.022,354.693 322.022,307.788 			"/>
			<polygon style="fill:#27DEBF;" points="252.967,267.919 271.239,257.37 340.294,297.239 322.022,307.788 			"/>
			<polygon style="opacity:0.15;" points="252.967,267.919 271.239,257.37 340.294,297.239 322.022,307.788 			"/>
		</g>
		<g>
			<polygon style="fill:#27DEBF;" points="169.689,369.941 214.371,395.739 214.371,386.357 169.688,360.56 			"/>
			<polygon style="opacity:0.15;" points="169.689,369.941 214.371,395.739 214.371,386.357 169.688,360.56 			"/>
			<path style="fill:#27DEBF;" d="M232.784,406.215l85.036-49.095c1.196-0.69,2.165-2.369,2.165-3.75l0-11.572l-69.055-39.869
				l-89.364,51.595l-0.001,11.571c0,1.381,0.969,3.06,2.165,3.75l5.959,3.441l0-7.036l44.683,25.797l0,7.036l14.083,8.131
				C229.649,406.905,231.588,406.905,232.784,406.215z"/>
			<path style="opacity:0.5;fill:#FFFFFF;" d="M232.784,406.215l85.036-49.095c1.196-0.69,2.165-2.369,2.165-3.75l0-11.572
				l-69.055-39.869l-89.364,51.595l-0.001,11.571c0,1.381,0.969,3.06,2.165,3.75l5.959,3.441l0-7.036l44.683,25.797l0,7.036
				l14.083,8.131C229.649,406.905,231.588,406.905,232.784,406.215z"/>
			<polygon style="fill:#27DEBF;" points="230.618,393.393 319.984,341.798 250.929,301.929 161.565,353.525 			"/>
			<polygon style="opacity:0.15;" points="230.618,393.393 319.984,341.798 250.929,301.929 161.565,353.525 			"/>
			<path style="fill:#27DEBF;" d="M319.984,341.798v14.071l-87.201,50.345c-1.191,0.688-2.165,0.125-2.165-1.25v-11.571
				L319.984,341.798z"/>
			<path style="opacity:0.7;fill:#FFFFFF;" d="M319.984,341.798v14.071l-87.201,50.345c-1.191,0.688-2.165,0.125-2.165-1.25v-11.571
				L319.984,341.798z"/>
			<polygon style="fill:#27DEBF;" points="169.689,372.286 171.72,371.113 171.72,366.423 169.688,365.25 			"/>
			<polygon style="opacity:0.35;" points="169.689,372.286 171.72,371.113 171.72,366.423 169.688,365.25 			"/>
			<path style="fill:#455A64;" d="M240.775,392.221c1.121-0.648,2.031-0.123,2.031,1.173c0,1.295-0.909,2.87-2.031,3.518
				c-1.122,0.647-2.031,0.122-2.031-1.173C238.744,394.443,239.653,392.868,240.775,392.221z"/>
			<path style="fill:#455A64;" d="M311.859,351.179c0,0,0,1.05,0,2.345c0,1.295-1.938,3.464-4.33,4.845l-52.27,30.178
				c-2.391,1.381-4.33,1.45-4.33,0.155v-2.345L311.859,351.179z"/>
		</g>
		<g>
			<path style="fill:#27DEBF;" d="M232.784,389.798l85.036-49.095c1.196-0.69,2.165-2.369,2.165-3.75l0-11.572l-69.055-39.869
				l-89.364,51.595l-0.001,11.571c0,1.381,0.969,3.06,2.165,3.75l64.724,37.369C229.649,390.489,231.588,390.489,232.784,389.798z"
				/>
			<path style="opacity:0.5;fill:#FFFFFF;" d="M232.784,389.798l85.036-49.095c1.196-0.69,2.165-2.369,2.165-3.75l0-11.572
				l-69.055-39.869l-89.364,51.595l-0.001,11.571c0,1.381,0.969,3.06,2.165,3.75l64.724,37.369
				C229.649,390.489,231.588,390.489,232.784,389.798z"/>
			<polygon style="fill:#27DEBF;" points="230.618,376.977 319.984,325.382 250.929,285.513 161.565,337.108 			"/>
			<polygon style="opacity:0.15;" points="230.618,376.977 319.984,325.382 250.929,285.513 161.565,337.108 			"/>
			<path style="fill:#27DEBF;" d="M319.984,325.382v14.071l-87.201,50.345c-1.191,0.688-2.165,0.125-2.165-1.25v-11.571
				L319.984,325.382z"/>
			<path style="opacity:0.7;fill:#FFFFFF;" d="M319.984,325.382v14.071l-87.201,50.345c-1.191,0.688-2.165,0.125-2.165-1.25v-11.571
				L319.984,325.382z"/>
			<path style="fill:#455A64;" d="M240.775,375.804c1.121-0.648,2.031-0.123,2.031,1.173c0,1.295-0.909,2.87-2.031,3.518
				c-1.122,0.647-2.031,0.122-2.031-1.173C238.744,378.027,239.653,376.452,240.775,375.804z"/>
			<path style="fill:#455A64;" d="M311.859,334.763c0,0,0,1.05,0,2.345c0,1.295-1.938,3.464-4.33,4.845l-52.27,30.178
				c-2.391,1.381-4.33,1.45-4.33,0.155v-2.345L311.859,334.763z"/>
		</g>
		<g>
			<path style="fill:#27DEBF;" d="M232.784,373.382l85.036-49.095c1.196-0.69,2.165-2.369,2.165-3.75l0-11.572l-69.055-39.869
				l-89.364,51.595l-0.001,11.571c0,1.381,0.969,3.06,2.165,3.75l64.724,37.369C229.649,374.073,231.588,374.073,232.784,373.382z"
				/>
			<path style="opacity:0.5;fill:#FFFFFF;" d="M232.784,373.382l85.036-49.095c1.196-0.69,2.165-2.369,2.165-3.75l0-11.572
				l-69.055-39.869l-89.364,51.595l-0.001,11.571c0,1.381,0.969,3.06,2.165,3.75l64.724,37.369
				C229.649,374.073,231.588,374.073,232.784,373.382z"/>
			<polygon style="fill:#27DEBF;" points="230.618,360.561 319.984,308.966 250.929,269.096 161.565,320.692 			"/>
			<polygon style="opacity:0.15;" points="230.618,360.561 319.984,308.966 250.929,269.096 161.565,320.692 			"/>
			<path style="fill:#27DEBF;" d="M319.984,308.966v14.071l-87.201,50.345c-1.191,0.688-2.165,0.125-2.165-1.25v-11.571
				L319.984,308.966z"/>
			<path style="opacity:0.7;fill:#FFFFFF;" d="M319.984,308.966v14.071l-87.201,50.345c-1.191,0.688-2.165,0.125-2.165-1.25v-11.571
				L319.984,308.966z"/>
			<path style="fill:#455A64;" d="M240.775,359.388c1.121-0.648,2.031-0.123,2.031,1.172c0,1.295-0.909,2.87-2.031,3.518
				c-1.122,0.647-2.031,0.122-2.031-1.173C238.744,361.611,239.653,360.036,240.775,359.388z"/>
			<path style="fill:#455A64;" d="M311.859,318.347c0,0,0,1.05,0,2.345c0,1.295-1.938,3.464-4.33,4.845l-52.27,30.178
				c-2.391,1.381-4.33,1.45-4.33,0.155v-2.345L311.859,318.347z"/>
		</g>
		<g>
			<g>
				<polygon style="fill:#27DEBF;" points="230.618,358.215 340.294,294.894 340.294,243.299 271.239,203.43 161.564,266.751 
					161.564,318.346 				"/>
				<polygon style="opacity:0.7;fill:#FFFFFF;" points="230.618,358.215 340.294,294.894 340.294,243.299 271.239,203.43 
					161.564,266.751 161.564,318.346 				"/>
				<polygon style="fill:#263238;" points="340.294,243.299 230.62,306.621 161.564,266.751 271.239,203.43 				"/>
				<polygon style="fill:#27DEBF;" points="230.619,325.382 230.618,358.215 161.564,318.346 161.565,285.512 				"/>
				<polygon style="opacity:0.5;fill:#FFFFFF;" points="230.619,325.382 230.618,358.215 161.564,318.346 161.565,285.512 				"/>
			</g>
			<polygon style="fill:#37474F;" points="161.564,266.751 161.564,285.513 230.619,325.382 230.62,306.621 			"/>
			<path style="fill:#455A64;" d="M230.62,306.621l97.487-56.286l0.001,14.078c0,2.898-1.546,5.577-4.056,7.026l-93.433,53.943
				L230.62,306.621z"/>
			<path style="fill:#FAFAFA;" d="M324.046,264.407c0-1.295-0.91-1.82-2.031-1.173c-1.122,0.648-2.031,2.223-2.031,3.518
				c0,1.295,0.91,1.82,2.031,1.173C323.137,267.277,324.046,265.702,324.046,264.407z"/>
			<path style="fill:#FAFAFA;" d="M313.757,268.001l-11.918,6.881c-1.196,0.69-2.165,2.3-2.165,3.595
				c0,1.295,0.97,1.785,2.165,1.095l11.918-6.88c1.196-0.69,2.165-2.3,2.165-3.595C315.922,267.802,314.952,267.311,313.757,268.001
				z"/>
		</g>
		<g>
			<g>
				<path style="fill:#27DEBF;" d="M340.291,233.925v7.03l-12.18,7.03v-7.03c0-14.51-7.75-27.92-20.32-35.18l-48.74-28.14
					l12.19-7.04l48.74,28.14C332.551,205.995,340.291,219.405,340.291,233.925z"/>
				<path style="opacity:0.7;fill:#FFFFFF;" d="M340.291,233.925v7.03l-12.18,7.03v-7.03c0-14.51-7.75-27.92-20.32-35.18
					l-48.74-28.14l12.19-7.04l48.74,28.14C332.551,205.995,340.291,219.405,340.291,233.925z"/>
			</g>
			<path style="fill:#37474F;" d="M230.619,297.245l0,7.03l-69.054-39.868l0-30.489l48.741,28.141
				C222.876,269.316,230.619,282.729,230.619,297.245z"/>
			<path style="fill:#455A64;" d="M328.111,240.955v7.04l-97.49,56.28v-7.03c0-14.52-7.75-27.93-20.32-35.19l-48.74-28.14
				l97.49-56.28l48.74,28.14C320.361,213.035,328.111,226.445,328.111,240.955z"/>
		</g>
		<g>
			<polygon style="fill:#27DEBF;" points="177.813,353.525 177.813,318.346 179.845,317.172 208.277,333.589 208.277,368.768 
				206.245,369.942 			"/>
			<polygon style="opacity:0.15;" points="177.813,353.525 177.813,318.346 179.845,317.172 208.277,333.589 208.277,368.768 
				206.245,369.942 			"/>
			<polygon style="fill:#27DEBF;" points="177.813,353.525 177.813,318.346 206.245,334.762 206.245,369.942 			"/>
			<polygon style="opacity:0.6;fill:#FFFFFF;" points="177.813,353.525 177.813,318.346 206.245,334.762 206.245,369.942 			"/>
			<polygon style="fill:#27DEBF;" points="179.845,317.172 177.813,318.346 206.245,334.762 208.277,333.589 			"/>
			<polygon style="opacity:0.8;fill:#FFFFFF;" points="179.845,317.172 177.813,318.346 206.245,334.762 208.277,333.589 			"/>
		</g>
		<g id="XMLID_652_">
			<path id="XMLID_655_" style="fill:#EBEBEB;" d="M291.311,208.275c0-0.309-0.204-0.619-0.613-0.855l-29.435-16.995
				c-0.817-0.472-2.143-0.472-2.96,0l-43.32,25.011c-0.409,0.236-0.613,0.545-0.613,0.854l0,1.344
				c0.003,0.307,0.207,0.613,0.613,0.847l29.436,16.994c0.817,0.472,2.143,0.472,2.96,0l43.319-25.01
				c0.403-0.233,0.607-0.537,0.613-0.842L291.311,208.275z"/>
			<path id="XMLID_654_" style="fill:#FFFFFF;" d="M214.983,215.437l43.32-25.011c0.817-0.472,2.143-0.472,2.96,0l29.435,16.995
				c0.817,0.472,0.817,1.237,0,1.709l-43.319,25.01c-0.817,0.472-2.143,0.472-2.96,0l-29.436-16.994
				C214.166,216.674,214.166,215.909,214.983,215.437z"/>
			<path id="XMLID_653_" style="fill:#27DEBF;" d="M245.897,234.494v1.333c-0.536,0-1.071-0.114-1.481-0.353l-29.428-16.987
				c-0.41-0.239-0.615-0.547-0.615-0.855v-1.344c0,0.319,0.205,0.615,0.615,0.855l29.428,16.998
				C244.826,234.38,245.361,234.494,245.897,234.494z"/>
		</g>
		<g id="XMLID_268_">
			<path id="XMLID_620_" style="fill:#EBEBEB;" d="M291.311,206.189c0-0.309-0.204-0.619-0.613-0.855l-29.435-16.995
				c-0.817-0.472-2.142-0.472-2.96,0l-43.32,25.011c-0.408,0.236-0.613,0.545-0.613,0.854v1.344
				c0.003,0.307,0.207,0.613,0.613,0.847l29.436,16.994c0.817,0.472,2.143,0.472,2.96,0l43.319-25.01
				c0.403-0.233,0.607-0.537,0.612-0.842L291.311,206.189z"/>
			<path id="XMLID_599_" style="fill:#FFFFFF;" d="M214.983,213.35l43.32-25.011c0.817-0.472,2.143-0.472,2.96,0l29.435,16.995
				c0.817,0.472,0.817,1.237,0,1.709l-43.319,25.01c-0.817,0.472-2.143,0.472-2.96,0l-29.436-16.994
				C214.166,214.587,214.166,213.822,214.983,213.35z"/>
			<path id="XMLID_550_" style="fill:#27DEBF;" d="M245.897,232.408v1.333c-0.536,0-1.071-0.114-1.481-0.353l-29.428-16.987
				c-0.41-0.239-0.615-0.547-0.615-0.855v-1.344c0,0.319,0.205,0.615,0.615,0.854l29.428,16.998
				C244.826,232.294,245.361,232.408,245.897,232.408z"/>
		</g>
		<g>
			<path style="fill:#455A64;" d="M173.75,231.573l44.683,25.798l52.807-30.488l0-14.071l-44.683-25.798l-40.62,23.452
				C178.395,214.82,173.75,222.866,173.75,231.573L173.75,231.573z"/>
			<path style="fill:#263238;" d="M271.239,212.811l-40.62,23.452c-7.541,4.354-12.186,12.399-12.186,21.106v0.001l52.807-30.488
				L271.239,212.811z"/>
			<path style="fill:#37474F;" d="M221.701,245.185c-2.11,3.64-3.27,7.83-3.27,12.18v0.01l-44.68-25.8c0-4.36,1.16-8.54,3.26-12.19
				L221.701,245.185z"/>
		</g>
		<g>
			<polygon style="fill:#37474F;" points="194.06,215.157 226.557,196.393 250.929,210.466 218.432,229.228 			"/>
			<polygon style="fill:#27DEBF;" points="196.092,216.33 218.432,229.228 248.897,211.639 226.557,198.739 			"/>
			<polygon style="fill:#263238;" points="226.557,196.393 226.557,198.739 196.092,216.33 194.06,215.157 			"/>
		</g>
		<g>
			<path style="opacity:0.4;" d="M218.089,225.486l-1.034-0.597c-0.326-0.188-0.326-0.493,0-0.682l3.25-1.876
				c0.326-0.188,0.855-0.188,1.181,0l1.035,0.597c0.326,0.188,0.326,0.493,0,0.682l-3.25,1.876
				C218.944,225.674,218.415,225.674,218.089,225.486z"/>
			<path style="opacity:0.4;" d="M224.735,221.649l-1.034-0.597c-0.326-0.188-0.326-0.493,0-0.682l3.25-1.876
				c0.326-0.188,0.855-0.188,1.181,0l1.035,0.597c0.326,0.188,0.326,0.493,0,0.682l-3.25,1.876
				C225.59,221.837,225.061,221.837,224.735,221.649z"/>
			<path style="opacity:0.4;" d="M231.382,217.812l-1.035-0.597c-0.326-0.188-0.326-0.493,0-0.682l3.25-1.876
				c0.326-0.188,0.855-0.188,1.181,0l1.035,0.597c0.326,0.188,0.326,0.493,0,0.682l-3.25,1.876
				C232.236,218.001,231.708,218.001,231.382,217.812z"/>
			<path style="opacity:0.4;" d="M238.027,213.975l-1.034-0.597c-0.326-0.188-0.326-0.493,0-0.682l3.249-1.876
				c0.326-0.188,0.855-0.188,1.181,0l1.035,0.597c0.326,0.188,0.326,0.493,0,0.682l-3.25,1.876
				C238.882,214.164,238.354,214.164,238.027,213.975z"/>
		</g>
		<g style="opacity:0.4;">
			<path d="M205.963,215.826c0.488-0.282,1.766-0.72,2.182-0.803l0.395,0.54l-1.132,0.234c-0.354,0.072-0.696,0.197-0.956,0.348
				c-1.028,0.594-0.581,1.487,1.278,2.561c1.858,1.073,3.406,1.331,4.435,0.738c0.26-0.15,0.488-0.342,0.613-0.545l0.384-0.666
				l0.945,0.234c-0.145,0.239-0.903,0.977-1.392,1.259l-0.167,0.096c-1.641,0.948-4.092,0.804-6.107-0.359
				c-2.036-1.176-2.286-2.591-0.645-3.538L205.963,215.826z"/>
			<path d="M217.808,212.874c2.035,1.175,2.254,2.608,0.55,3.592c-1.703,0.983-4.185,0.857-6.221-0.318
				c-2.015-1.164-2.233-2.597-0.53-3.581S215.792,211.71,217.808,212.874z M213.404,215.429c1.849,1.067,3.47,1.271,4.633,0.6
				c0.883-0.51,0.374-1.355-1.465-2.417c-1.849-1.067-3.469-1.283-4.633-0.612C211.056,213.51,211.566,214.367,213.404,215.429z"/>
			<path d="M218.684,208.59c1.579-0.911,3.552-0.983,4.923-0.192c1.475,0.852,1.413,2.027-0.166,2.938l-1.36,0.786l1.817,1.049
				l-1.205,0.696l-6.574-3.796L218.684,208.59z M221.561,211.823l1.101-0.636c1.07-0.618,0.966-1.337-0.301-2.069
				c-1.153-0.665-2.348-0.696-3.418-0.078l-1.101,0.636L221.561,211.823z"/>
			<path d="M222.292,206.532l1.204-0.828l5.567,1.007l-0.26-0.509c-0.301-0.569-1.236-2.057-1.932-2.459l1.121-0.516l1.828,3.466
				l2.648,1.529l-1.204,0.696l-2.202-1.271L222.292,206.532z"/>
		</g>
		<polygon style="fill:#263238;" points="171.45,278.778 216.132,304.576 216.132,310.266 171.449,284.469 		"/>
		<polygon style="opacity:0.15;" points="214.371,307.677 214.371,334.763 173.75,311.31 173.75,284.821 		"/>
		<g>
			<path style="fill:#37474F;" d="M214.371,305.075l-40.621-23.452L127.407,295c-0.712,0.205-1.072,0.551-1.069,0.934
				c0.003,0.331,0.004,2.212,0,2.591c-0.003,0.334,0.271,0.697,0.832,1.021l36.29,20.952c1.196,0.69,3.24,0.939,4.567,0.557
				l46.342-13.378V305.075z"/>
			<path style="fill:#455A64;" d="M214.371,305.075l-46.343,13.378c-1.326,0.383-3.371,0.134-4.567-0.557l-36.29-20.952
				c-1.196-0.69-1.09-1.56,0.237-1.943l46.343-13.378L214.371,305.075z"/>
			<path style="fill:#263238;" d="M165.621,318.56v2.61c-0.8-0.11-1.58-0.34-2.16-0.67l-36.29-20.95c-0.56-0.33-0.84-0.69-0.83-1.02
				v-2.6c0,0.33,0.27,0.69,0.83,1.01l36.29,20.96C164.041,318.24,164.821,318.46,165.621,318.56z"/>
		</g>
		<g>
			<path style="fill:#EBEBEB;" d="M205.365,300.004c-0.001-0.166-0.138-0.346-0.416-0.507L178.68,284.33
				c-0.598-0.345-1.62-0.469-2.283-0.277l-40.521,11.751c-0.356,0.103-0.536,0.277-0.534,0.469c0.002,0.165-0.001,1.742,0,1.933
				c0.001,0.166,0.138,0.346,0.416,0.506l26.27,15.167c0.598,0.345,1.62,0.469,2.283,0.277l40.52-11.751
				c0.348-0.101,0.528-0.269,0.534-0.456C205.37,301.78,205.366,300.195,205.365,300.004z"/>
			<path style="fill:#FAFAFA;" d="M204.831,300.47l-40.52,11.751c-0.663,0.192-1.685,0.068-2.283-0.277l-26.27-15.167
				c-0.598-0.345-0.545-0.781,0.118-0.973l40.521-11.751c0.663-0.192,1.685-0.068,2.283,0.277l26.269,15.166
				C205.547,299.842,205.494,300.278,204.831,300.47z"/>
			<path style="fill:#F0F0F0;" d="M205.366,300.003v1.95c-0.01,0.18-0.19,0.35-0.53,0.45l-40.52,11.75
				c-0.29,0.09-0.64,0.1-0.99,0.07v-1.92c0.35,0.03,0.7,0,0.99-0.08l40.52-11.75C205.186,300.363,205.366,300.193,205.366,300.003z"
				/>
		</g>
	</g>
</g>
<g id="Character">
	<g id="Character_8_">
		<g id="XMLID_697_">
			<rect id="XMLID_3987_" x="417.091" y="324.866" style="fill:#FFA8A7;" width="9.351" height="16.673"/>
			<polygon id="XMLID_3986_" style="fill:#FFA8A7;" points="394.02,323.977 384.674,324.311 384.207,306.667 394.02,306.332 			"/>
			<path id="XMLID_3985_" style="fill:#455A64;" d="M427.758,180.513c0,9.3-0.229,84.491-0.229,84.491
				c0.218,2.676,1.487,7.266,0.965,17.545c-0.708,13.962-1.653,50.654-1.653,50.654s-4.539,2.763-10.411,0.214
				c0,0-8.845-50.82-10.521-64.657c-1.462-12.076-3.943-52.734-3.943-52.734l-5.069,47.275c0,0,1.724,7.202,1.159,15.478
				c-0.437,6.4-3.444,39.732-3.444,39.732s-4.401,3.111-10.797,0.86c0,0-6.893-50.486-7.001-56.358
				c-0.123-6.695,2.709-82.601,2.709-82.601L427.758,180.513z"/>
			<path id="XMLID_3984_" style="fill:#263238;" d="M417.091,336.732v-1.393c-0.895,0.406-2.974,8.667-6.684,12.192
				c-2.95,2.802-6.973,6.038-7.997,9.162c-1.064,3.249,5.603,5.043,8.359,4.534c3.202-0.591,8.751-2.939,10.145-5.115
				c1.393-2.177,2.046-5.388,3.177-6.983c1.132-1.595,3.742-3.377,4.354-5.223c0.336-1.014-0.063-3.236-0.536-5.113
				c-0.434-1.722-0.903-3.616-1.468-3.454c-0.002,0.21,0,1.062,0,1.062c-0.679,0.784-2.557,1.561-4.675,1.646
				C420.398,338.101,417.079,337.819,417.091,336.732z"/>
			<path id="XMLID_3983_" style="fill:#263238;" d="M384.575,321.308c-0.486,0.018-0.881,0.731-1.952,1.939
				c-1.294,1.459-3.411,3.033-5.501,4.122c-3.501,1.826-10.309,4.634-13.39,6.08c-1.925,0.903-1.835,3.324,0.155,4.702
				c1.99,1.378,6.793,2.371,12.561,1.027c3.142-0.732,7.232-3.754,9.821-3.591c2.589,0.163,7.433,0.124,9.344-1.248
				c1.911-1.371,1.146-4.302,0.606-6.819c-0.589-2.748-1.327-7.033-2.2-6.845v0.947c-1.124,1.773-6.926,2.495-9.395,1.19
				L384.575,321.308z"/>
			<path id="XMLID_3980_" style="fill:#263238;" d="M401.966,216.026c0,0-7.474-2.193-13.022-7.776c0,0,2.513,4.9,9.985,9.46
				l-1.598,42.218L401.966,216.026z"/>
		</g>
		<g id="XMLID_3920_">
			<path style="fill:#455A64;" d="M394.183,126.038c-8.596-1.557-12.929-0.486-16.603,6.753
				c-3.177,6.261-10.687,22.636-11.399,26.08c-0.637,3.081,4.973,22.679,4.973,22.679l14.126-1.571l-4.69-17.599l9.402-18.743
				L394.183,126.038z"/>
			<path id="XMLID_3931_" style="fill:#27DEBF;" d="M423.129,132.191c0,0,10.259,1.316,8.019,15.897l-3.074,18.512l0.045,33.324
				c-6.877,7.791-43.593,4.609-49.442-9.562c0,0,0.937-29.336,1.642-44.511c0.501-10.788,4.415-21.757,16.412-19.52l12.104,1.523
				L423.129,132.191z"/>
			<polygon id="XMLID_3921_" style="opacity:0.1;" points="402.114,137.095 400.435,148.803 396.224,146.863 400.936,149.426 			"/>
		</g>
		<g id="XMLID_3860_">
			<path id="XMLID_3880_" style="fill:#263238;" d="M411.608,99.572c0,7.699-5.992,13.94-13.383,13.94
				c-7.391,0-13.05-6.248-13.384-13.939c-0.59-13.612,5.992-13.939,13.384-13.939C405.616,85.633,411.608,91.874,411.608,99.572z"/>
			<g id="XMLID_3871_">
				<path style="fill:#263238;" d="M419.696,94.17c-1.563-2.443-3.035-2.074-3.035-2.074l-1.031,11.859l-1.65,0.338l-0.144,16.007
					c0,0,1.196-0.515,2.02-2.166c0.557-1.117,1.739-7.888,2.405-11.946C418.261,106.188,421.036,96.265,419.696,94.17z"/>
				<path id="XMLID_3877_" style="fill:#FFA8A7;" d="M414.21,106.952c0.775,0.482,1.882-1.069,2.838-2.111
					c0.956-1.042,4.078-2.466,5.635,0.951c1.586,3.482-1.375,8.084-3.832,8.887c-4.235,1.385-4.871-1.445-4.871-1.445l-0.323,15.91
					c-5.622,8.696-18.357,8.382-13.778-0.421l0.012-4.842c0,0-3.837,0.607-5.709,0.305c-3.115-0.501-5.074-3.061-6.019-6.572
					c-1.517-5.64-2.094-10.193-0.806-21.285c1.411-12.157,14.987-12.283,22.318-7.477C417.006,93.659,414.21,106.952,414.21,106.952
					z"/>
				<path id="XMLID_3876_" style="fill:#455A64;" d="M413.729,125.578c0,0-1.978,4.277-5.507,6.899
					c-3.243,2.41-6.662,2.831-6.662,2.831s3.299,2.184,4.701,5.277c1.402,3.093,11.384-4.045,11.295-10.086
					c0,0-1.642-7.444-3.768-7.834L413.729,125.578z"/>
				<path id="XMLID_3875_" style="fill:#455A64;" d="M401.561,135.309c0,0-3.05-1.516-1.682-6.585l0.012-4.842l-1.337,0.179
					c-1.04,0.937-2.678,3.142-3.214,5.568c-0.306,1.386-1.058,8.412,0.282,9.807C396.841,140.707,398.828,135.686,401.561,135.309z"
					/>
				<path id="XMLID_3874_" style="fill:#263238;" d="M393.594,95.48c6.296,0.162,10.204-1.167,15.412-1.784
					c0.352-0.042,0.725-0.077,1.048,0.069c1.15,0.522,1.397,4.099,1.6,5.133c0.681,3.482,1.246,9.385,2.556,9.411
					c0.39,0.008,1.873-2.555,2.838-3.47c1.337-1.267-0.386-12.737-0.388-12.745c-0.06-0.399,0.297-1.118,0.316-1.56
					c0.048-1.109-0.308-1.954-0.818-2.904c-0.974-1.814-2.783-3.073-4.666-3.809c-3.528-1.379-7.404-1.21-10.908-2.786
					c-1.401-0.63-2.714-1.483-4.197-1.887c-1.482-0.404-3.253-0.256-4.291,0.876c-0.687,0.748-0.939,1.79-1.108,2.792
					c-0.734-0.963-1.515-1.964-2.622-2.455c-2.049-0.909-4.589,0.367-5.642,2.345c-1.053,1.979-0.893,4.402-0.243,6.547
					c0.213,0.701,0.477,1.393,0.866,2.013C385.311,94.4,390.189,95.393,393.594,95.48z"/>
				<path id="XMLID_3873_" style="fill:#263238;" d="M416.653,92.702l4.688-2.621c-0.665-1.399-2.254-1.947-3.549-1.223
					C416.498,89.582,415.987,91.303,416.653,92.702z"/>
				<path id="XMLID_3872_" style="fill:#F28F8F;" d="M399.89,123.882c0,0,6.952-1.459,9.383-2.804
					c1.627-0.901,2.967-2.462,3.36-3.463c0,0-0.456,2.149-1.909,4.084c-1.778,2.367-10.834,4.11-10.834,4.11L399.89,123.882z"/>
			</g>
			<g id="XMLID_3861_">
				<path id="XMLID_3870_" style="fill:#263238;" d="M401.561,105.141c0,0.833,0.624,1.506,1.393,1.504
					c0.77-0.002,1.393-0.679,1.393-1.512c0-0.833-0.624-1.506-1.393-1.504C402.185,103.632,401.561,104.309,401.561,105.141z"/>
				<path id="XMLID_3869_" style="fill:#263238;" d="M403.298,99.798l2.98,1.713c0.439-0.892,0.128-1.998-0.695-2.471
					C404.76,98.567,403.737,98.906,403.298,99.798z"/>
				<path id="XMLID_3868_" style="fill:#F28F8F;" d="M400.52,115.165l-3.181,1.243c0.315,0.949,1.282,1.441,2.16,1.098
					C400.378,117.162,400.835,116.114,400.52,115.165z"/>
				<path id="XMLID_3864_" style="fill:#263238;" d="M389.046,101.628l2.718-2.18c-0.555-0.811-1.612-0.979-2.362-0.377
					C388.65,99.672,388.491,100.817,389.046,101.628z"/>
				<path id="XMLID_3863_" style="fill:#263238;" d="M389.974,104.728c0,0.833,0.624,1.506,1.393,1.503
					c0.769-0.002,1.393-0.679,1.393-1.511c0-0.833-0.624-1.506-1.393-1.504C390.598,103.219,389.974,103.895,389.974,104.728z"/>
				<polygon id="XMLID_3862_" style="fill:#F28F8F;" points="397.43,103.563 397.268,112.363 392.274,111.217 				"/>
			</g>
		</g>
		<g>
			<g id="Character_9_">
				<g>
					<g>
						<g>
							<polygon style="fill:#E0E0E0;" points="345.688,200.006 388.1,224.539 388.1,198.525 345.687,173.992 							"/>
						</g>
						<g>
							<polygon style="fill:#F0F0F0;" points="417.5,207.564 388.1,224.539 388.1,198.525 417.501,181.55 							"/>
						</g>
						<polygon style="fill:#FAFAFA;" points="345.687,173.992 375.089,157.018 417.501,181.55 388.1,198.525 						"/>
					</g>
				</g>
			</g>
			<polygon style="opacity:0.1;" points="367.79,195.501 388.1,207.227 400.286,200.191 388.1,207.953 			"/>
			<polygon style="opacity:0.1;" points="355.603,195.019 388.1,213.781 412.472,199.71 388.1,214.49 			"/>
			<path style="opacity:0.1;" d="M349.767,183.644c0,0-0.672,3.795-0.335,5.715c0,0,5.319-0.131,14.295,2.345L349.767,183.644z"/>
			<polygon style="fill:#FAFAFA;" points="349.767,183.644 363.728,191.704 348.281,187.245 			"/>
			<path style="opacity:0.1;" d="M367.79,206.13l15.305,14.072c0,0,0.425-1.934,3.363-3.294L367.79,206.13z"/>
			<polygon style="fill:#FAFAFA;" points="367.79,206.13 382.163,218.233 386.457,216.908 			"/>
			<path style="opacity:0.1;" d="M412.602,191.895c-0.08-0.124-0.13-0.191-0.13-0.191l-9.672,5.584l10.886-0.894
				C414.061,194.374,412.985,192.487,412.602,191.895z"/>
			<polygon style="fill:#FAFAFA;" points="402.801,197.288 412.472,191.704 415.693,193.403 			"/>
			<g style="opacity:0.3;">
				<g>
					<path style="fill:#455A64;" d="M353.16,175.801c-0.129,0-0.255-0.067-0.325-0.188c-0.103-0.179-0.042-0.409,0.138-0.512
						l24.372-14.072c0.179-0.102,0.408-0.042,0.513,0.137c0.104,0.179,0.042,0.409-0.138,0.512l-24.372,14.072
						C353.289,175.785,353.223,175.801,353.16,175.801z"/>
				</g>
				<g>
					<path style="fill:#455A64;" d="M357.221,178.146c-0.129,0-0.255-0.067-0.325-0.188c-0.104-0.179-0.042-0.409,0.138-0.512
						l24.372-14.071c0.178-0.102,0.408-0.042,0.513,0.137c0.103,0.179,0.042,0.409-0.138,0.512l-24.372,14.071
						C357.35,178.13,357.285,178.146,357.221,178.146z"/>
				</g>
				<g>
					<path style="fill:#455A64;" d="M361.284,180.491c-0.129,0-0.255-0.067-0.325-0.188c-0.104-0.179-0.042-0.409,0.138-0.512
						l24.372-14.071c0.179-0.104,0.408-0.042,0.513,0.137c0.103,0.179,0.042,0.409-0.138,0.512l-24.372,14.071
						C361.413,180.475,361.347,180.491,361.284,180.491z"/>
				</g>
				<g>
					<path style="fill:#455A64;" d="M365.346,182.837c-0.129,0-0.255-0.067-0.325-0.188c-0.104-0.179-0.042-0.409,0.138-0.512
						l24.371-14.072c0.175-0.103,0.406-0.044,0.513,0.137c0.104,0.179,0.042,0.409-0.138,0.512l-24.371,14.072
						C365.475,182.821,365.41,182.837,365.346,182.837z"/>
				</g>
				<g>
					<path style="fill:#455A64;" d="M369.408,185.182c-0.129,0-0.255-0.067-0.325-0.188c-0.104-0.179-0.042-0.409,0.138-0.512
						l24.372-14.071c0.178-0.103,0.408-0.041,0.513,0.137c0.104,0.179,0.042,0.409-0.138,0.512l-24.372,14.071
						C369.537,185.166,369.471,185.182,369.408,185.182z"/>
				</g>
				<g>
					<path style="fill:#455A64;" d="M373.47,187.527c-0.129,0-0.255-0.067-0.325-0.188c-0.104-0.179-0.042-0.409,0.138-0.512
						l24.371-14.071c0.179-0.103,0.408-0.041,0.513,0.137c0.104,0.179,0.042,0.409-0.138,0.512l-24.371,14.071
						C373.599,187.511,373.534,187.527,373.47,187.527z"/>
				</g>
				<g>
					<path style="fill:#455A64;" d="M377.532,189.873c-0.129,0-0.255-0.067-0.325-0.188c-0.103-0.179-0.042-0.409,0.138-0.512
						l24.372-14.072c0.179-0.102,0.408-0.042,0.513,0.137c0.104,0.179,0.042,0.409-0.138,0.512l-24.372,14.072
						C377.661,189.857,377.595,189.873,377.532,189.873z"/>
				</g>
				<g>
					<path style="fill:#455A64;" d="M381.594,192.218c-0.129,0-0.255-0.067-0.325-0.188c-0.103-0.179-0.042-0.409,0.138-0.512
						l24.372-14.071c0.178-0.102,0.408-0.041,0.513,0.137c0.104,0.179,0.042,0.409-0.138,0.512l-24.372,14.071
						C381.723,192.202,381.658,192.218,381.594,192.218z"/>
				</g>
				<g>
					<path style="fill:#455A64;" d="M385.656,194.564c-0.129,0-0.255-0.067-0.325-0.188c-0.103-0.179-0.042-0.409,0.138-0.512
						l24.372-14.071c0.179-0.102,0.408-0.041,0.513,0.137c0.103,0.179,0.042,0.409-0.138,0.512l-24.372,14.071
						C385.785,194.547,385.719,194.564,385.656,194.564z"/>
				</g>
			</g>
		</g>
		<g>
			<path style="fill:#FFA8A7;" d="M426.222,133.357c3.389,0.884,6.391,1.873,8.621,6.285c2.857,5.652,15.226,35.687,14.837,37.991
				c-0.697,4.125-18.468,21.506-24.208,28.143c-3.799,4.393-10.93,8.587-17.061,10.641c-5.393,1.806-6.093-0.088-6.093-0.088
				l11.272-6.508c0.649-0.436,2.068-2.081,0.402-2.093c-1.352-0.01-2.705,0.161-4.055,0.05c-1.151-0.095-2.292-0.23-3.226-0.976
				c-0.206-0.165-0.408-0.373-0.434-0.636c-0.024-0.236,0.102-0.463,0.259-0.642c0.209-0.239,0.764-0.38,1.068-0.495
				c0.412-0.157,0.838-0.276,1.265-0.384c0.865-0.219,1.747-0.373,2.601-0.635c1.351-0.414,2.583-0.707,3.573-1.052
				c0.817-0.284,1.818-0.622,3.225-2.561c2.086-2.873,3.507-5.241,4.221-6.347c2.127-3.293,9.835-14.97,12.053-18.479
				l-11.853-21.935C418.826,147.999,420.596,133.357,426.222,133.357z"/>
			<path style="fill:#455A64;" d="M423.648,132.297c0,0,6.444,1.522,8.435,3.122c1.991,1.6,3.477,3.908,7.013,12.009
				c3.536,8.101,9.788,25.24,10.592,27.577c0.804,2.337,1.178,3.637-2.932,8.351c-2.97,3.407-7.024,7.116-7.024,7.116
				s-7.495-0.975-9.571-8.148l3.784-6.753c0,0-11.185-19.783-12.605-24.018C419.921,147.318,418.61,139.849,423.648,132.297z"/>
		</g>
	</g>
</g>
</svg>
