<svg width="395" height="630" viewBox="0 0 395 630" fill="none" xmlns="http://www.w3.org/2000/svg">
<path d="M384.197 616.226C384.197 623.687 298.191 629.734 192.098 629.734C86.0051 629.734 0 623.687 0 616.226C0 608.766 86.0051 602.718 192.098 602.718C298.191 602.718 384.197 608.766 384.197 616.226Z" fill="#DDCEB6"/>
<path d="M197.899 564.49L211.481 606.492L233.978 606.719C233.978 606.719 236.304 607.537 236.263 611.604C236.222 615.67 232.941 614.843 222.86 614.741C212.779 614.639 207.154 614.582 207.154 614.582C207.154 614.582 204.711 614.855 202.242 607.192C199.772 599.528 195.053 583.508 195.053 583.508L188.397 580.564C188.397 580.564 184.765 572.392 187.56 568.849C190.355 565.306 197.899 564.49 197.899 564.49Z" fill="#474642"/>
<path d="M188.396 580.564L194.102 614.513L195.8 614.53L195.053 583.509L188.396 580.564Z" fill="#474642"/>
<path d="M216.194 561.049L216.035 566.46L223.106 601.848L230.91 606.689L211.481 606.492L197.898 564.491L200.399 549.139L216.194 561.049Z" fill="#F4BB82"/>
<path d="M280.022 551.313L308.246 585.254L329.215 577.103C329.215 577.103 331.679 576.996 333.152 580.787C334.626 584.578 331.272 585.03 321.876 588.683C312.479 592.336 307.238 594.374 307.238 594.374C307.238 594.374 305.07 595.536 299.929 589.339C294.787 583.143 284.451 570.026 284.451 570.026L277.177 569.767C277.177 569.767 270.768 563.532 272.045 559.203C273.323 554.875 280.022 551.313 280.022 551.313Z" fill="#474642"/>
<path d="M277.177 569.768L295.094 599.162L296.676 598.547L284.451 570.026L277.177 569.768Z" fill="#474642"/>
<path d="M295.727 541.316L297.591 546.399L317.311 576.622L326.355 578.214L308.246 585.254L280.022 551.313L276.636 536.132L295.727 541.316Z" fill="#F4BB82"/>
<path d="M165.675 344.092L196.245 562.366H218.395L202.39 346.294L209.493 345.367L277.177 549.139L298.168 542.284L245.041 333.48L205.319 324.293L165.675 344.092Z" fill="#9064A0"/>
<path d="M250.699 355.72C250.699 355.72 244.755 349.59 235.157 355.72C225.558 361.85 220.932 379.806 220.932 379.806L213.371 357.045L222.012 346.294L248.007 345.141L250.699 355.72Z" fill="#6E467F"/>
<path d="M203.897 366.631C203.897 366.631 198.016 357.464 184.871 362.474C171.726 367.484 171.462 385.407 171.462 385.407L167.437 356.668L185.666 350.375L203.269 358.164L203.897 366.631Z" fill="#6E467F"/>
<path d="M17.1044 166.338C17.1044 166.338 11.0631 177.192 7.72488 184.913C4.38605 192.632 2.01998 203.061 5.60247 202.541C9.18558 202.022 29.4245 178.331 29.4245 178.331V167.177L17.1044 166.338Z" fill="#F4BB82"/>
<path d="M124.959 137.77C124.959 137.77 156.001 159.847 192.831 154.679C229.662 149.512 249.136 123.045 249.136 123.045L260.265 130.007C260.265 130.007 239.904 172.806 190.27 177.332C140.637 181.858 120.609 169.542 120.609 169.542L124.959 137.77Z" fill="#466D59"/>
<path d="M249.136 123.044C249.136 123.044 249.136 113.971 251.223 111.258C253.309 108.546 255.813 108.546 255.813 108.546C255.813 108.546 260.612 89.5583 263.116 86.6369C265.62 83.7161 267.915 82.6728 266.872 88.0976C265.829 93.5229 262.073 107.502 262.073 107.502C262.073 107.502 273.757 89.5583 275.635 88.0976C277.513 86.6369 279.599 87.8892 277.513 92.2707C275.426 96.6521 267.706 108.337 267.706 108.337C267.706 108.337 269.376 107.502 270.419 108.65C271.462 109.798 270.732 111.988 270.732 111.988C270.732 111.988 273.862 111.362 274.279 114.075C274.696 116.788 271.879 121.378 268.228 124.925C264.576 128.472 260.264 130.007 260.264 130.007L249.136 123.044Z" fill="#F4BB82"/>
<path d="M218.395 136.434C218.395 136.434 227.619 139.067 236.152 150.687C244.685 162.309 255.883 181.783 278.383 185.677C300.882 189.572 319.243 174.25 322.582 173.565C325.921 172.88 337.048 183.827 337.048 188.091C337.048 192.354 309.785 213.531 274.175 207.95C238.564 202.37 228.688 179.279 228.688 179.279L218.395 136.434Z" fill="#EAAB2D"/>
<path d="M55.7851 144.425C55.7851 144.425 0.422532 186.791 1.2574 221.844C2.09164 256.898 57.3565 271.476 57.3565 271.476L63.6755 258.15C63.6755 258.15 26.0751 238.778 23.5711 224.172C21.0671 209.566 51.7567 179.72 61.5605 178.722C71.3642 177.725 70.7619 160.083 70.7619 160.083L55.7851 144.425Z" fill="#466D59"/>
<path d="M120.511 583.698L117.069 613.337L169.399 619.413C169.399 619.413 173.839 599.107 160.425 597.549C147.009 595.991 138.397 585.775 138.397 585.775L120.511 583.698Z" fill="#C62222"/>
<path d="M117.44 610.137L169.883 616.227L170.098 611.767L117.954 605.712L117.44 610.137Z" fill="white"/>
<path d="M140.434 587.85L131.627 590.279L132.18 592.903L142.171 589.373L140.434 587.85Z" fill="white"/>
<path d="M144.785 591.362L134.565 595.57L135.936 598.119L146.86 592.721L144.785 591.362Z" fill="white"/>
<path d="M82.2876 590.522L82.3445 620.36L135.026 620.26C135.026 620.26 137.055 599.574 123.55 599.599C110.045 599.624 100.294 590.488 100.294 590.488L82.2876 590.522Z" fill="#FB4242"/>
<path d="M82.3382 617.139L135.134 617.039L134.824 612.585L82.3296 612.684L82.3382 617.139Z" fill="white"/>
<path d="M102.56 592.311L94.0996 595.756L94.9561 598.297L104.464 593.62L102.56 592.311Z" fill="white"/>
<path d="M107.293 595.288L97.6367 600.666L99.2978 603.036L109.513 596.394L107.293 595.288Z" fill="white"/>
<path d="M66.6494 271.059C66.6494 271.059 57.4276 311.124 63.8121 373.187C70.196 435.25 82.1674 592.411 82.1674 592.411H102.449L101.688 318.808H106.696C106.696 318.808 124.391 407.095 127.507 460.417C130.622 513.739 120.005 585.418 120.005 585.418L140.637 588.041C140.637 588.041 157.329 503.25 157.329 429.823C157.329 356.395 134.516 263.841 134.516 263.841L66.6494 271.059Z" fill="#76BDE5"/>
<path d="M101.362 133.565C101.362 133.565 124.244 135.692 124.959 137.77C125.673 139.849 130.518 161.749 130.518 161.749C130.518 161.749 140.637 171.546 140.637 181.858C140.637 192.17 132.639 194.748 130.518 201.451C128.396 208.155 126.06 228.779 127.506 238.576C128.952 248.373 134.516 263.841 134.516 263.841C134.516 263.841 129.838 271.575 107.139 273.638C84.4393 275.701 66.6493 271.06 66.6493 271.06C66.6493 271.06 74.745 239.607 72.9151 229.81C71.0858 220.013 51.8066 147.627 51.8066 147.627L79.4134 133.565H101.362Z" fill="#466D59"/>
<path d="M193.21 110.371L195.578 132.547C195.578 132.547 193.749 139.994 184.691 140.159C175.634 140.325 171.022 133.043 171.022 133.043L172.019 104.247L193.21 110.371Z" fill="#F4BB82"/>
<path d="M194.964 126.805C194.964 126.805 188.347 126.458 181.44 121.765C174.534 117.072 171.777 111.219 171.777 111.219L171.788 107.885L194.137 119.056L194.964 126.805Z" fill="#E58E63"/>
<path d="M221.248 69.9624V72.6216C221.248 83.0462 219.479 93.4004 215.961 103.214C213.011 111.443 205.577 119.921 201.817 120.217C185.581 121.499 173.469 113.511 168.339 107.885C163.208 102.258 159.464 94.0695 159.464 94.0695C159.464 94.0695 152.182 96.221 148.045 85.4636C143.907 74.7062 148.762 72.3897 148.762 72.3897C148.762 72.3897 151.962 70.7348 155.602 72.1689C159.243 73.603 160.016 74.7062 160.016 74.7062C160.016 74.7062 153.617 52.4204 157.147 41.1664C160.678 29.9131 184.233 20.259 204.313 30.8506C224.392 41.4422 221.248 69.9624 221.248 69.9624Z" fill="#F4BB82"/>
<path d="M149.369 81.9885C149.369 81.9885 148.431 77.0789 149.81 76.0306C151.19 74.9824 156.485 76.5823 157.754 82.5401C159.023 88.4979 156.761 88.553 155.382 88.3879C154.003 88.2221 152.679 86.1257 153.23 83.4776C153.782 80.8302 154.941 81.106 154.941 81.106C154.941 81.106 153.165 76.8964 151.134 77.3547C149.104 77.8129 149.755 82.08 149.755 82.08L149.369 81.9885Z" fill="#E58E63"/>
<path d="M207.535 88.0578C207.316 85.4067 204.441 83.2113 203.082 81.1235C202.22 79.8001 201.436 78.4149 200.951 76.9059C200.377 75.1206 200.515 73.4156 200.397 71.5863C200.389 71.4589 200.21 71.3903 200.142 71.5177C198.381 74.8076 200.05 79.6239 201.813 82.5787C202.277 83.3566 202.797 84.1024 203.346 84.8229C204.082 85.7901 205.885 87.3726 205.44 88.7554C205.14 89.6843 203.486 90.2996 202.661 90.5358C201.474 90.8753 200.565 90.6119 199.428 90.2767C199.087 90.1759 198.844 90.4981 198.897 90.8079C199.279 93.0287 202.138 92.9446 203.75 92.3527C205.724 91.628 207.732 90.4363 207.535 88.0578Z" fill="#E58E63"/>
<path d="M202.391 102.173L208.219 101.784L209.456 97.4554H187.852C187.852 97.4554 188.779 107.979 199.388 107.979C203.17 107.979 205.716 106.64 207.434 104.918L208.176 102.487L202.391 102.173Z" fill="white"/>
<path d="M209.456 97.4559L208.219 101.784L202.391 102.174L208.176 102.487L207.434 104.919C210.535 101.812 210.924 97.4559 210.924 97.4559H209.456Z" fill="#E58E63"/>
<path d="M182.604 63.2289C184.172 62.8591 185.937 62.579 187.512 63.0632C188.188 63.271 189.968 64.3526 188.995 65.3798C188.214 66.2048 187.33 65.8795 186.328 65.8628C185.089 65.8424 183.844 65.9976 182.629 66.2487C181.613 66.4583 180.6 66.7601 179.649 67.2072C178.705 67.6512 177.921 68.6222 176.922 68.8176C176.462 68.9072 175.952 68.6011 175.97 68.0303C176.062 65.0953 180.495 63.7255 182.604 63.2289Z" fill="#8E5930"/>
<path d="M212.452 63.2289C211.047 62.8597 209.467 62.579 208.056 63.0632C207.451 63.271 205.856 64.3526 206.728 65.3804C207.428 66.2054 208.219 65.8795 209.117 65.8628C210.227 65.8424 211.341 65.9976 212.43 66.2487C213.34 66.4583 214.248 66.7601 215.099 67.2072C215.945 67.6512 216.647 68.6222 217.542 68.8176C217.953 68.9072 218.41 68.6011 218.394 68.0303C218.312 65.0953 214.341 63.7255 212.452 63.2289Z" fill="#8E5930"/>
<path d="M211.74 72.0526C211.844 72.0526 211.946 72.0613 212.047 72.0761L212.047 72.0755L216.728 71.5375L214.011 73.6018L214.011 73.6011C214.363 74.2406 214.573 75.0309 214.573 75.8893C214.573 78.0086 213.305 79.7266 211.74 79.7266C210.175 79.7266 208.906 78.0086 208.906 75.8893C208.906 73.7706 210.175 72.0526 211.74 72.0526Z" fill="#4C311E"/>
<path d="M182.439 72.0526C182.543 72.0526 182.645 72.0613 182.746 72.0761L182.746 72.0755L187.427 71.5375L184.711 73.6018L184.71 73.6011C185.062 74.2406 185.273 75.0309 185.273 75.8893C185.273 78.0086 184.004 79.7266 182.439 79.7266C180.874 79.7266 179.605 78.0086 179.605 75.8893C179.605 73.7706 180.874 72.0526 182.439 72.0526Z" fill="#4C311E"/>
<path d="M172.766 44.1122C172.766 44.1122 176.544 52.4559 172.766 61.7427C168.988 71.0294 160.016 74.7065 160.016 74.7065C160.016 74.7065 155.724 71.9948 153.05 71.915C150.376 71.8352 149.45 72.1067 149.45 72.1067C149.45 72.1067 147.266 46.9458 147.266 38.7994C147.266 30.6536 152.401 24.8096 152.401 24.8096C152.401 24.8096 154.526 19.8511 156.917 18.9655C159.307 18.0806 160.855 17.9915 160.855 17.9915C160.855 17.9915 156.651 20.117 156.031 21.4448C155.411 22.7731 155.411 23.924 155.411 23.924C155.411 23.924 170.995 15.247 197.204 21.6222C223.413 27.9975 226.6 41.4561 228.017 50.6643C229.434 59.8732 225.538 61.7427 225.538 61.7427C225.538 61.7427 205.468 61.8212 190.829 55.6822C176.19 49.5432 172.766 44.1122 172.766 44.1122Z" fill="#8E5930"/>
<path d="M178.132 21.8442C178.132 21.8442 182.101 5.96573 164.635 1.20207C147.168 -3.5616 130.231 5.96573 131.025 27.4019C131.819 48.8381 152.461 44.8685 152.461 44.8685L178.132 21.8442Z" fill="#8E5930"/>
<mask id="mask0_84_548" style="mask-type:luminance" maskUnits="userSpaceOnUse" x="162" y="24" width="59" height="19">
<path d="M162.506 24.1409H220.798V42.6377H162.506V24.1409Z" fill="white"/>
</mask>
<g mask="url(#mask0_84_548)">
<g opacity="0.240005">
<path d="M201.543 24.1409C201.543 24.1409 211.865 27.7135 208.159 33.0065C204.454 38.2996 162.508 33.9329 162.508 33.9329C162.508 33.9329 167.272 37.7702 169.918 38.8289C172.565 39.887 197.892 43.8573 212.817 42.2692C227.743 40.6811 217.951 30.5588 213.651 28.4414C209.35 26.3245 201.543 24.1409 201.543 24.1409Z" fill="#FFE7D7"/>
</g>
</g>
<path d="M68.4486 271.476C68.4486 271.476 60.5137 309.478 65.1042 358.72C69.6947 407.963 83.883 592.412 83.883 592.412H87.2212C87.2212 592.412 69.0688 374.16 67.1907 352.043C65.3126 329.926 65.3126 311.46 67.3991 294.247C69.4857 277.033 70.553 271.902 70.553 271.902L68.4486 271.476Z" fill="#CEEBF2"/>
<path d="M101.688 318.808V313.651L128.118 306.14L112.817 321.441L114.903 363.534L106.696 318.808H101.688Z" fill="#509BBC"/>
<path d="M73.6593 344.741C73.6593 344.741 91.1858 343.28 93.6898 344.741C96.1938 346.201 97.4454 350.791 87.2218 351.418C76.9975 352.044 72.8244 352.252 71.1553 349.748C69.4862 347.245 73.6593 344.741 73.6593 344.741Z" fill="#F4BB82"/>
<path d="M138.411 375.413C138.411 375.413 149.261 373.187 150.652 373.465C152.043 373.743 153.156 379.307 150.652 380.42C148.148 381.533 132.847 385.149 132.847 380.42C132.847 375.691 138.411 375.413 138.411 375.413Z" fill="#F4BB82"/>
<path d="M129.509 367.345C129.509 367.345 142.863 363.45 145.367 365.954C147.871 368.458 140.081 370.683 132.847 371.518C125.614 372.353 129.509 367.345 129.509 367.345Z" fill="#F4BB82"/>
<path d="M87.2217 415.196C87.2217 415.196 96.6804 413.249 97.2369 415.196C97.7935 417.143 98.3501 429.106 97.2369 433.557C96.1244 438.009 83.6052 440.79 81.9361 429.941C80.2663 419.091 87.2217 415.196 87.2217 415.196Z" fill="#F4BB82"/>
<path d="M135.351 451.64C137.298 451.64 150.292 447.467 152.141 451.64C153.99 455.814 148.427 460.543 140.915 461.656C133.403 462.769 132.568 460.079 132.847 455.721C133.125 451.362 135.351 451.64 135.351 451.64Z" fill="#F4BB82"/>
<path d="M62.67 260.269C62.67 260.269 70.885 260.467 69.0687 269.417C67.2524 278.367 65.8622 292.369 63.6749 295.012C61.4876 297.654 55.7845 295.012 54.6714 291.534C53.5588 288.057 55.2279 283.327 56.7579 282.77C58.2885 282.214 58.5668 283.049 58.4276 284.857C58.2885 286.666 58.1493 289.447 58.1493 289.447H60.375C60.375 289.447 58.8444 282.07 59.401 278.178C59.9576 274.286 60.2359 270.808 60.2359 270.808L58.6447 268.758L62.67 260.269Z" fill="#F4BB82"/>
<path d="M149.606 133.565C149.606 133.565 160.791 128.307 188.271 130.007C215.752 131.706 219.676 136.465 221.697 140.346C223.717 144.226 226.119 159.26 229.282 163.844C232.444 168.429 237.452 175.106 237.869 185.121C238.287 195.137 233.505 200.733 232.419 207.95C231.332 215.167 233.887 246.859 237.895 263.841C241.903 280.823 247.467 296.402 249.136 314.764C250.806 333.126 249.136 344.092 249.136 344.092C249.136 344.092 243.518 350.931 219.898 355.938C196.278 360.946 161.373 355.938 161.373 355.938C161.373 355.938 157.329 327.561 157.329 306.14C157.329 284.718 165.675 251.334 164.006 237.98C162.337 224.627 148.827 176.219 145.845 161.195C142.863 146.173 149.606 133.565 149.606 133.565Z" fill="#F2D24C"/>
<path d="M165.682 130.207C165.682 130.207 172.456 135.775 185.601 134.627C198.747 133.48 200.388 131.124 200.388 131.124L196.139 127.5C196.139 127.5 192.616 128.367 183.893 128.785C175.169 129.202 170.883 127.5 170.883 127.5L165.682 130.207Z" fill="#F9EAAC"/>
<path d="M150.65 181.419L163.588 164.882L180.698 176.149L192.8 161.961L208.031 171.69L215.126 159.04L227.019 169.264L229.281 163.844L232.538 168.71L228.688 179.279L217.421 168.429L209.026 181.419L193.635 171.142L182.159 185.748L164.632 174.063L152.339 188.091L150.65 181.419Z" fill="#F9EAAC"/>
<path d="M156.339 203.866L236.152 196.306L234.773 200.086L157.083 206.831L156.339 203.866Z" fill="#F9EAAC"/>
<path d="M161.742 226.219L232.384 220.376L232.55 223.297L162.518 229.778L161.742 226.219Z" fill="#F9EAAC"/>
<path d="M163.11 256.082L174.648 268.791L184.871 256.082L197.481 265.87L206.572 252.725L222.637 263.841L227.854 250.847L237.416 261.704L238.865 267.812L230.566 261.697L225.767 272.13L208.867 261.488L198.851 275.677L185.706 265.453L175.065 278.807L162.054 263.841L163.11 256.082Z" fill="#F9EAAC"/>
<path d="M157.895 295.076L244.122 287.726L245.041 291.401L157.895 299.254V295.076Z" fill="#F9EAAC"/>
<path d="M158.175 325.961L167.762 314.903L180.281 325.961L191.34 313.443L205.319 324.293L217.004 311.357L230.984 322.206L240.373 308.644L249.448 318.638L249.878 325.961L240.999 316.364L231.609 329.301L217.004 318.973L205.319 333.474L192.174 322.206L180.907 334.837L167.345 322.832L158.726 332.626L158.175 325.961Z" fill="#F9EAAC"/>
<path d="M159.638 341.773C159.638 341.773 185.289 344.647 209.91 341.773C234.531 338.898 249.849 333.48 249.849 333.48L249.758 336.423C249.758 336.423 232.862 343.28 209.492 345.367C186.123 347.453 159.638 345.367 159.638 345.367V341.773Z" fill="#F9EAAC"/>
<path d="M158.127 131.242C158.127 131.242 108.672 101.243 66.6491 115.014C24.6258 128.785 12.9414 163.004 12.9414 163.004C12.9414 163.004 25.1477 173.356 26.8985 171.434C28.6498 169.512 60.9906 131.796 92.9745 134.783C124.958 137.77 145.845 161.196 145.845 161.196C145.845 161.196 154.408 154.658 157.329 147.981C160.25 141.304 158.127 131.242 158.127 131.242Z" fill="#EAAB2D"/>
<path d="M127.274 140.191C127.274 140.191 125.64 125.035 93.8192 127.544C61.9992 130.053 57.9597 137.043 57.9597 137.043L56.0049 89.0052L123.075 80.3009L129.107 125.557L127.274 140.191Z" fill="#8C3E23"/>
<path d="M97.5957 111.375L103.74 136.604C103.74 136.604 102.119 141.162 93.0114 142.546C83.9039 143.929 76.5163 136.488 76.5163 136.488L75.4131 108.05L97.5957 111.375Z" fill="#F4BB82"/>
<path d="M101.573 127.705C101.573 127.705 94.8556 128.244 87.2633 124.441C79.6716 120.639 76.1064 115.109 76.1064 115.109L75.6704 111.747L99.6978 120.005L101.573 127.705Z" fill="#E58E63"/>
<path d="M120.431 66.8767L120.788 69.5569C122.188 80.065 121.796 90.7395 119.568 101.104C117.7 109.795 111.345 119.339 107.596 120.143C91.402 123.616 78.1203 117.192 72.1928 112.21C66.2659 107.227 61.3909 99.4765 61.3909 99.4765C61.3909 99.4765 54.3403 102.623 48.7251 92.3357C43.1092 82.0489 47.6911 79.0613 47.6911 79.0613C47.6911 79.0613 50.6941 76.9631 54.5568 77.9197C58.4194 78.8764 59.3464 79.8851 59.3464 79.8851C59.3464 79.8851 49.9019 58.2801 51.9489 46.4621C53.9959 34.6442 76.4425 21.7489 98.1057 29.7277C119.769 37.7066 120.431 66.8767 120.431 66.8767Z" fill="#F4BB82"/>
<path d="M49.5923 88.6553C49.5923 88.6553 47.9875 83.8322 49.2367 82.5905C50.4859 81.3487 56.0393 82.2497 58.1184 88.0851C60.1975 93.9199 57.9255 94.2792 56.513 94.2977C55.1005 94.3163 53.4846 92.3812 53.685 89.6379C53.8853 86.8946 55.09 87.0171 55.09 87.0171C55.09 87.0171 52.7345 83.0128 50.7493 83.7469C48.7642 84.4816 49.9936 88.6955 49.9936 88.6955L49.5923 88.6553Z" fill="#E58E63"/>
<path d="M109.038 86.9592C108.461 84.3167 105.268 82.4899 103.617 80.5673C102.571 79.3496 101.594 78.0584 100.903 76.6026C100.085 74.8803 99.9952 73.1426 99.6303 71.3151C99.6049 71.1878 99.4151 71.1426 99.3638 71.2799C98.0305 74.8327 100.36 79.4634 102.533 82.2049C103.106 82.9272 103.73 83.6087 104.38 84.2611C105.253 85.1368 107.282 86.4905 107.02 87.9438C106.843 88.9209 105.258 89.7625 104.457 90.1119C103.307 90.6135 102.356 90.47 101.164 90.2851C100.807 90.2294 100.605 90.5863 100.7 90.8911C101.384 93.0785 104.254 92.6097 105.8 91.7965C107.691 90.8015 109.556 89.3303 109.038 86.9592Z" fill="#E58E63"/>
<path d="M80.5726 65.2807C82.1045 64.6975 83.8453 64.1775 85.4977 64.4539C86.2064 64.5726 88.147 65.4242 87.3041 66.5905C86.6269 67.5268 85.6925 67.3172 84.6808 67.4353C83.4285 67.5812 82.1954 67.9047 81.0037 68.3209C80.008 68.6684 79.0266 69.1093 78.1287 69.6876C77.2369 70.2621 76.5771 71.3455 75.5962 71.677C75.1454 71.8291 74.5895 71.5892 74.5307 71.0116C74.2295 68.0407 78.5139 66.0649 80.5726 65.2807Z" fill="#6B371B"/>
<path d="M110.659 61.2711C109.193 61.0875 107.562 61.017 106.205 61.6948C105.623 61.9854 104.161 63.2903 105.177 64.2086C105.994 64.9458 106.748 64.5117 107.65 64.3744C108.767 64.2043 109.911 64.2111 111.042 64.3181C111.987 64.4071 112.943 64.5896 113.861 64.926C114.773 65.2599 115.611 66.1437 116.54 66.2203C116.966 66.2556 117.386 65.8858 117.293 65.3125C116.816 62.3657 112.63 61.5179 110.659 61.2711Z" fill="#6B371B"/>
<path d="M111.126 70.261C111.231 70.2474 111.335 70.2418 111.439 70.2437L111.438 70.2431L116.085 69.0718L113.624 71.5176L113.623 71.517C114.064 72.1144 114.382 72.8825 114.498 73.7476C114.782 75.8843 113.735 77.7859 112.157 77.9962C110.579 78.2064 109.07 76.6449 108.785 74.5089C108.501 72.3735 109.548 70.4713 111.126 70.261Z" fill="#4C311E"/>
<path d="M81.5919 74.1975C81.6964 74.1839 81.8009 74.1784 81.9048 74.1802L81.9042 74.1796L86.551 73.0083L84.0897 75.4542L84.0891 75.4535C84.5294 76.0509 84.8479 76.819 84.9635 77.6848C85.248 79.8208 84.2004 81.7224 82.6228 81.9327C81.0452 82.1429 79.5363 80.5814 79.2512 78.4461C78.9667 76.31 80.0143 74.4078 81.5919 74.1975Z" fill="#4C311E"/>
<path d="M110.645 100.04C110.645 100.04 111.915 106.115 104.167 107.308C96.4185 108.5 90.2764 101.971 90.2764 101.971L103.157 101.532L110.645 100.04Z" fill="#BF1B1B"/>
<path d="M111.555 99.1349C111.555 99.1349 108.737 102.945 100.976 103.141C93.2138 103.336 90.2764 101.971 90.2764 101.971C90.2764 101.971 102.786 98.1473 106.814 97.211C110.842 96.2747 111.555 99.1349 111.555 99.1349Z" fill="#E23D3D"/>
<path d="M122.209 42.3237C122.209 42.3237 118.294 21.1096 83.4701 22.3891C54.4496 23.4552 48.6322 31.8187 45.0571 39.5965C41.4814 47.375 42.1048 64.8638 44.3799 72.5909C46.6551 80.3174 47.3205 79.3898 47.3205 79.3898C47.3205 79.3898 60.2232 78.9891 60.8249 77.6149C61.4266 76.2408 88.9406 46.3818 88.9406 46.3818L107.177 41.8741L117.163 45.3045L122.209 42.3237Z" fill="#A3522F"/>
<mask id="mask1_84_548" style="mask-type:luminance" maskUnits="userSpaceOnUse" x="56" y="24" width="55" height="18">
<path d="M56.3667 24.7408H110.206V41.4009H56.3667V24.7408Z" fill="white"/>
</mask>
<g mask="url(#mask1_84_548)">
<g opacity="0.240005">
<path d="M91.0435 24.7416C91.0435 24.7416 100.908 26.5065 98.1095 31.4415C95.3099 36.3771 56.3657 37.8038 56.3657 37.8038C56.3657 37.8038 61.1659 40.4716 63.7113 41.0449C66.2567 41.6182 89.9216 41.8859 103.425 38.7172C116.927 35.549 106.809 28.1719 102.628 26.9048C98.4465 25.637 91.0435 24.7416 91.0435 24.7416Z" fill="#FFE7D7"/>
</g>
</g>
<path d="M94.5751 44.9893C94.5751 44.9893 80.0856 63.5672 72.9546 68.9536C65.8237 74.3394 60.825 77.6151 60.825 77.6151C60.825 77.6151 64.0729 127.945 67.9962 139.719C71.92 151.492 80.584 154.524 80.584 154.524C80.584 154.524 67.1409 152.931 64.1236 149.924L61.107 146.916C61.107 146.916 53.0694 147.464 51.6644 140.849C50.2593 134.234 39.2614 69.183 42.5266 56.4826C45.7913 43.7821 93.295 43.3746 93.295 43.3746L94.5751 44.9893Z" fill="#A3522F"/>
<path d="M94.5752 44.9893C94.5752 44.9893 101.668 53.7337 108.544 56.7417C115.42 59.7497 118.736 61.0737 118.736 61.0737L127.293 125.275C127.293 125.275 128.86 137.036 124.155 142.961C119.451 148.886 117.26 149.636 117.26 149.636C117.26 149.636 127.086 147.28 128.847 144.298C130.608 141.316 130.939 139.31 130.939 139.31C130.939 139.31 134.584 128.449 129.058 86.9854C123.531 45.5218 122.209 42.324 122.209 42.324L97.6642 41.3623L94.5752 44.9893Z" fill="#A3522F"/>
<path d="M326.94 175.423C326.661 175.226 330.511 161.126 333.849 159.04C337.188 156.953 342.821 156.745 342.821 156.745C342.821 156.745 347.829 149.859 350.541 148.399C353.254 146.938 362.017 153.406 362.017 160.083C362.017 166.76 353.254 175.524 349.916 177.401C346.577 179.279 334.542 182.932 334.542 182.932L326.94 175.423Z" fill="#F4BB82"/>
<path d="M344.472 160.083L377.666 103.121H372.868L339.483 161.126L344.472 160.083Z" fill="#8E8D8D"/>
<path d="M395 103H351V82H395V103Z" fill="#494848"/>
</svg>
