<svg width="33" height="33" viewBox="0 0 33 33" fill="none" xmlns="http://www.w3.org/2000/svg">
<path d="M24.5 10.8888C24.5 8.72289 23.6396 6.64567 22.108 5.11413C20.5765 3.58258 18.4992 2.72217 16.3333 2.72217C14.1674 2.72217 12.0901 3.58258 10.5586 5.11413C9.02702 6.64567 8.1666 8.72289 8.1666 10.8888C8.1666 20.4166 4.08325 23.1388 4.08325 23.1388H28.5834C28.5834 23.1388 24.5 20.4166 24.5 10.8888Z" stroke="#003366" stroke-width="2" stroke-linecap="round" stroke-linejoin="round"/>
<path d="M18.6882 28.5835C18.4489 28.996 18.1055 29.3384 17.6922 29.5765C17.2789 29.8145 16.8104 29.9398 16.3335 29.9398C15.8566 29.9398 15.388 29.8145 14.9748 29.5765C14.5615 29.3384 14.2181 28.996 13.9788 28.5835" stroke="#003366" stroke-width="2" stroke-linecap="round" stroke-linejoin="round"/>
<ellipse cx="23.3334" cy="5.83343" rx="4.66669" ry="4.66668" fill="#006633"/>
</svg>
