<svg width="402" height="498" viewBox="0 0 402 498" fill="none" xmlns="http://www.w3.org/2000/svg">
<path d="M362.125 487.595C362.125 493.341 281.061 498 181.063 498C81.0644 498 0 493.341 0 487.595C0 481.848 81.0644 477.189 181.063 477.189C281.061 477.189 362.125 481.848 362.125 487.595Z" fill="#DDCEB6"/>
<path d="M259.65 453.691L260.002 480.413L215.934 481.079C215.934 481.079 213.96 462.581 225.257 462.411C236.554 462.24 244.587 453.918 244.587 453.918L259.65 453.691Z" fill="#3ECCB4"/>
<path d="M259.964 477.529L215.801 478.195L216 474.202L259.911 473.539L259.964 477.529Z" fill="white"/>
<path d="M242.717 455.583L249.84 458.546L249.157 460.835L241.141 456.782L242.717 455.583Z" fill="white"/>
<path d="M238.797 458.316L246.946 462.994L245.588 465.141L236.955 459.339L238.797 458.316Z" fill="white"/>
<path d="M346.773 328.271L362.026 307.115L396.913 335.948C396.913 335.948 387.71 351.744 378.767 344.353C369.824 336.962 358.698 338.126 358.698 338.126L346.773 328.271Z" fill="#3ECCB4"/>
<path d="M360.38 309.399L395.343 338.294L392.866 341.288L358.102 312.558L360.38 309.399Z" fill="white"/>
<path d="M361.13 338.068L357.275 331.003L359.139 329.667L363.06 338.179L361.13 338.068Z" fill="white"/>
<path d="M365.787 338.538L362.125 329.448L364.435 328.672L367.823 338.965L365.787 338.538Z" fill="white"/>
<path d="M231.007 211.156C231.007 211.156 218.157 270.099 222.48 343.812C226.803 417.526 237.902 457.912 237.902 457.912H260.972C260.972 457.912 245.711 369.309 244.964 336.521C244.217 303.733 248.423 260.66 248.423 260.66L254.152 260.016C254.152 260.016 261.823 306.305 282.142 340.379C302.462 374.452 324.493 362.88 337.796 357.094C351.1 351.308 361.13 338.068 361.13 338.068L349.842 323.082C349.842 323.082 336.388 340.192 320.176 340.7C303.963 341.208 292.777 322.377 287.411 292.161C282.046 261.945 274.57 231.443 271.538 216.621C268.506 201.799 231.007 211.156 231.007 211.156Z" fill="#8ACADD"/>
<path d="M179.965 32.9612C179.965 32.9612 185.074 28.965 185.4 26.2227C185.726 23.4809 186.66 20.5797 187.931 19.1304C189.202 17.681 190.278 16.8578 189.979 15.1761C189.681 13.4945 187.349 14.3417 186.195 15.6247C185.041 16.9082 182.625 22.7863 182.37 22.4471C182.113 22.1078 185.261 3.61788 184.709 2.64534C184.157 1.67328 181.96 1.45276 181.165 4.85899C180.37 8.26521 179.586 15.5145 179.586 15.5145C179.586 15.5145 179.022 2.98271 178.292 1.21104C177.561 -0.560631 175.64 -0.29488 175.311 1.39905C174.982 3.0925 175.29 15.6351 175.29 15.6351C175.29 15.6351 172.395 3.59997 171.783 2.1864C171.171 0.772835 168.719 0.737495 168.865 3.86384C169.011 6.99018 170.641 15.9065 170.641 15.9065C170.641 15.9065 166.296 7.91795 165.613 7.09949C164.929 6.28104 162.999 6.80076 163.796 9.67313C164.593 12.5455 168.163 19.7679 168.163 19.7679C168.163 19.7679 169.01 27.3889 169.572 29.023C170.133 30.6575 171.867 32.3486 171.867 32.3486L179.965 32.9612Z" fill="#E58E63"/>
<path d="M234.609 107.271C234.609 107.271 208.189 97.279 197.681 78.0347C187.172 58.7899 182.783 31.4948 182.783 31.4948L169.571 33.3956C169.571 33.3956 172.762 77.0315 188.673 103.431C204.586 129.83 221.685 138.83 221.685 138.83C221.685 138.83 223.651 126.776 226.953 119.383C230.256 111.989 234.609 107.271 234.609 107.271Z" fill="#3ECCB4"/>
<path d="M166.424 39.5298C166.424 39.5298 161.315 35.5336 160.989 32.7913C160.663 30.0495 159.73 27.1483 158.459 25.699C157.188 24.2496 156.111 23.4264 156.41 21.7448C156.709 20.0631 159.041 20.9103 160.194 22.1933C161.348 23.4768 163.764 29.3549 164.02 29.0157C164.276 28.6764 161.129 10.1865 161.68 9.21442C162.232 8.24188 164.43 8.02137 165.224 11.4276C166.02 14.8338 166.803 22.0831 166.803 22.0831C166.803 22.0831 167.368 9.55179 168.098 7.77964C168.828 6.00797 170.75 6.27372 171.078 7.96718C171.408 9.6611 171.099 22.2037 171.099 22.2037C171.099 22.2037 173.995 10.1686 174.607 8.755C175.219 7.34144 177.67 7.3061 177.524 10.4324C177.379 13.5588 175.748 22.4751 175.748 22.4751C175.748 22.4751 180.093 14.4866 180.777 13.6681C181.46 12.8496 183.391 13.3694 182.594 16.2417C181.796 19.1141 178.227 26.3365 178.227 26.3365C178.227 26.3365 177.379 33.9575 176.818 35.5916C176.256 37.2261 174.523 38.9172 174.523 38.9172L166.424 39.5298Z" fill="#F4BB82"/>
<path d="M375.679 109.504C375.679 109.504 373.317 103.22 374.394 100.708C375.472 98.1961 376.112 95.2054 375.75 93.2557C375.387 91.3059 374.88 89.9979 375.964 88.7398C377.048 87.4817 378.609 89.5205 378.954 91.263C379.299 93.0055 378.447 99.3623 378.831 99.219C379.216 99.0763 385.677 81.6013 386.626 81.0881C387.575 80.5755 389.548 81.6324 388.541 84.9736C387.533 88.3143 384.618 94.9109 384.618 94.9109C384.618 94.9109 391.286 84.5943 392.781 83.5044C394.276 82.4141 395.776 83.7273 395.218 85.351C394.661 86.9747 388.204 97.4459 388.204 97.4459C388.204 97.4459 396.606 88.8708 397.824 88.0174C399.041 87.1636 401.14 88.5221 399.472 91.0929C397.804 93.6637 392.016 100.308 392.016 100.308C392.016 100.308 399.649 95.9876 400.634 95.6804C401.618 95.3727 403 96.9069 400.905 98.8934C398.81 100.88 392.213 104.989 392.213 104.989C392.213 104.989 387.729 110.977 386.445 112.046C385.162 113.115 382.855 113.569 382.855 113.569L375.679 109.504Z" fill="#F4BB82"/>
<path d="M108.712 327.502C108.712 327.502 103.219 372.952 95.1572 397.382C87.0951 421.812 71.6598 457.912 71.6598 457.912L57.3828 452.767C57.3828 452.767 71.7742 398.025 76.8872 375.309C82.0002 352.593 86.6951 321.735 86.6951 321.735L106.066 327.502H108.712Z" fill="#F4BB82"/>
<path d="M165.856 318.199C165.856 318.199 175.464 352.562 176.364 381.347C177.265 410.133 165.856 465.743 165.856 465.743H150.711C150.711 465.743 158.097 399.814 155.071 381.347C152.046 362.88 140.937 327.502 140.937 327.502L165.856 318.199Z" fill="#F4BB82"/>
<path d="M139.536 228.943C139.536 228.943 152.746 250.801 161.953 283.375C171.16 315.948 172.361 325.377 172.361 325.377L139.536 336.521L124.324 286.375L118.896 286.803L109.913 336.521L78.7798 330.949C78.7798 330.949 89.9339 283.803 90.7164 279.089C91.4984 274.374 95.1173 252.087 101.915 242.658C108.712 233.229 139.536 228.943 139.536 228.943Z" fill="#466D59"/>
<path d="M64.3692 153.939C64.3692 153.939 34.6546 182.655 32.6531 212.656C30.6516 242.658 68.3714 239.229 68.3714 239.229L71.4832 227.229C71.4832 227.229 55.3917 225.086 53.8303 215.657C52.2684 206.227 73.0975 194.48 73.0975 194.48L64.3692 153.939Z" fill="#C91F1F"/>
<path d="M150.711 465.743L150.704 492.469L194.776 492.482C194.776 492.482 196.511 473.957 185.213 473.953C173.915 473.95 165.775 465.748 165.775 465.748L150.711 465.743Z" fill="#EF2D0F"/>
<path d="M150.704 489.583L194.871 489.596L194.62 485.606L150.705 485.592L150.704 489.583Z" fill="white"/>
<path d="M166.315 467.385L159.231 470.454L159.943 472.731L167.906 468.56L166.315 467.385Z" fill="white"/>
<path d="M170.269 470.06L162.182 474.858L163.567 476.984L172.125 471.055L170.269 470.06Z" fill="white"/>
<path d="M57.3825 452.767L49.4199 478.096L91.1894 493.148C91.1894 493.148 98.3488 476.181 87.641 472.323C76.9336 468.464 71.6595 457.912 71.6595 457.912L57.3825 452.767Z" fill="#EF2D0F"/>
<path d="M50.2793 475.362L92.139 490.446L93.0892 486.578L51.468 471.58L50.2793 475.362Z" fill="white"/>
<path d="M71.6853 459.648L64.0572 460.139L64.0537 462.542L72.8432 461.306L71.6853 459.648Z" fill="white"/>
<path d="M74.636 463.533L65.542 465.321L66.2219 467.809L76.0985 465.11L74.636 463.533Z" fill="white"/>
<path d="M98.8207 119.456L105.854 134.467C105.854 134.467 105.903 140.339 97.9572 143.328C90.0114 146.317 84.3227 142.604 84.3227 142.604L78.7798 121.822L98.8207 119.456Z" fill="#F4BB82"/>
<path d="M82.5366 135.908C82.5366 135.908 89.3417 136.261 95.5875 132.269C101.833 128.277 101.915 126.059 101.915 126.059L101.571 124.966L79.5176 124.175L82.5366 135.908Z" fill="#E58E63"/>
<path d="M106.595 82.9324L110.088 94.0671C110.088 94.0671 116.919 116.742 107.33 122.417C97.7404 128.091 84.1781 126.949 79.5179 124.175C74.8574 121.401 70.9582 114.819 70.9582 114.819C70.9582 114.819 66.6043 118.086 61.4588 111.429C56.3132 104.772 59.0189 101.966 59.0189 101.966C59.0189 101.966 60.7736 100.026 63.5105 100.176C66.247 100.326 67.0057 100.926 67.0057 100.926C67.0057 100.926 57.788 86.6143 57.6216 77.7729C57.4553 68.9319 70.9384 56.4464 86.6298 59.1793C102.321 61.9122 106.595 82.9324 106.595 82.9324Z" fill="#F4BB82"/>
<path d="M61.5626 108.643C61.5626 108.643 59.845 105.378 60.5267 104.303C61.2084 103.229 65.0807 103.101 67.2517 107.033C69.4227 110.964 67.9334 111.544 66.981 111.755C66.0287 111.967 64.6825 110.793 64.458 108.78C64.2336 106.766 65.0645 106.685 65.0645 106.685C65.0645 106.685 62.9467 104.118 61.7008 104.928C60.4554 105.739 61.8395 108.616 61.8395 108.616L61.5626 108.643Z" fill="#E58E63"/>
<path d="M105.569 81.8864C104.692 79.0899 105.055 74.5844 103.413 67.9854C101.771 61.3864 95.794 61.279 95.794 61.279L99.5119 59.9413C99.5119 59.9413 90.2959 52.7976 79.2219 53.7442C68.1479 54.6913 52.9665 62.0781 47.5991 71.1928C47.5991 71.1928 48.7073 88.5919 55.3883 96.015C62.0693 103.439 79.7843 104.658 88.0356 98.3154C96.2869 91.9732 95.5792 81.558 97.2428 80.9596C98.9063 80.3612 101.893 85.2333 101.893 85.2333C101.893 85.2333 103.105 86.8565 104.701 89.0494C104.594 87.8046 104.518 87.0719 104.518 87.0719C104.518 87.0719 107.292 87.3758 105.569 81.8864Z" fill="#8E5930"/>
<path d="M97.2422 80.9594C95.5786 81.5578 96.2867 91.9734 88.035 98.3156C79.7837 104.658 62.0692 103.438 55.3877 96.0153C48.7067 88.5917 47.5985 71.1925 47.5985 71.1925C47.5985 71.1925 45.9803 85.8102 55.8595 106.246C65.7387 126.681 70.2905 123.086 75.8608 124.794C80.2538 126.141 83.9466 128.971 83.9466 128.971C83.9466 128.971 84.3849 125.46 87.2098 121.408C90.0348 117.354 102.361 113.339 104.039 105.886C105.572 99.0752 105.003 92.5332 104.701 89.0492C103.105 86.8568 101.892 85.2335 101.892 85.2335C101.892 85.2335 98.9057 80.3609 97.2422 80.9594Z" fill="#6B371B"/>
<path d="M105.719 88.8857C105.719 88.8857 100.181 79.9025 98.9062 80.361C97.6322 80.819 97.648 88.0253 100.923 95.0715C104.197 102.118 107.379 99.0752 107.379 99.0752L105.719 88.8857Z" fill="#F4BB82"/>
<mask id="mask0_81_2273" style="mask-type:luminance" maskUnits="userSpaceOnUse" x="53" y="54" width="40" height="19">
<path d="M53.8301 54.3536H92.3649V72.1504H53.8301V54.3536Z" fill="white"/>
</mask>
<g mask="url(#mask0_81_2273)">
<g opacity="0.240005">
<path d="M53.8296 67.985C53.8296 67.985 73.2161 67.9143 79.0583 62.5663C84.9005 57.2183 79.4394 54.3521 79.4394 54.3521C79.4394 54.3521 88.9982 55.032 90.513 55.8801C92.0278 56.7283 97.2525 65.0942 78.8734 70.1331C60.4943 75.1716 53.8507 69.1912 53.8507 69.1912L53.8296 67.985Z" fill="#FFE7D7"/>
</g>
</g>
<path d="M64.3686 153.939C64.3686 153.939 69.5177 144.466 90.716 135.916C111.914 127.366 124.724 124.285 126.726 126.468C128.727 128.651 135.933 150.51 137.134 178.797C138.334 207.085 139.535 228.943 139.535 228.943C139.535 228.943 131.529 234.515 118.719 238.373C105.909 242.23 101.915 242.658 101.915 242.658C101.915 242.658 75.6671 202.938 68.3708 184.224C61.0745 165.511 64.3686 153.939 64.3686 153.939Z" fill="#EF461E"/>
<path d="M164.855 38.5389C164.855 38.5389 159.251 69.578 148.442 92.6323C137.634 115.686 118.907 126.468 118.907 126.468C118.907 126.468 118.419 138.188 123.823 146.867C129.228 155.546 135.904 163.692 135.904 163.692C135.904 163.692 163.754 119.795 170.059 93.9884C176.364 68.1828 175.914 38.5389 175.914 38.5389H164.855Z" fill="#C91F1F"/>
<path d="M171.936 322.897L138.89 334.394L138.206 332.138L171.482 320.61L171.936 322.897Z" fill="#EF461E"/>
<path d="M79.417 328.251L110.387 333.899L110.897 331.075L79.946 326.008L79.417 328.251Z" fill="#EF461E"/>
<path d="M95.9019 278.232C95.9019 278.232 109.065 287.768 118.896 286.804C128.727 285.84 134.031 284.446 140.136 281.768C146.241 279.089 149.543 272.553 149.543 272.553C149.543 272.553 141.938 282.089 122.723 281.232C103.508 280.375 95.9019 278.232 95.9019 278.232Z" fill="#325441"/>
<path d="M71.2366 228.179C71.2366 228.179 79.289 226.907 82.0915 227.229C84.8936 227.55 92.9996 233.015 92.5996 235.051C92.1991 237.087 83.4743 235.372 78.7798 236.336C74.0854 237.301 69.001 236.801 69.001 236.801L71.2366 228.179Z" fill="#F4BB82"/>
<path d="M147.029 348.065L169.144 331.464L168.061 326.837L143.299 335.243L147.029 348.065Z" fill="#E58E63"/>
<path d="M83.0474 343.812L107.051 339.767L107.572 336.102L85.0432 332.07L83.0474 343.812Z" fill="#E58E63"/>
<path d="M231.007 107.345C231.007 107.345 245.193 106.364 266.322 111.507C287.451 116.651 297.861 126.937 298.06 131.758C298.259 136.58 293.756 160.185 285.049 184.224C276.342 208.263 271.538 216.621 271.538 216.621C271.538 216.621 234.91 213.406 231.007 211.156C227.104 208.906 222.6 166.153 221.7 143.974C220.799 121.794 231.007 107.345 231.007 107.345Z" fill="#3ECCB4"/>
<path d="M255.146 96.3482L250.913 112.877C250.913 112.877 251.962 118.764 260.472 120.053C268.982 121.342 273.981 116.408 273.981 116.408L275.645 94.4229L255.146 96.3482Z" fill="#F4BB82"/>
<path d="M274.517 109.324C274.517 109.324 267.772 111.135 260.776 108.478C253.78 105.821 253.284 103.619 253.284 103.619L253.423 102.451L275.345 96.935L274.517 109.324Z" fill="#E58E63"/>
<path d="M240.541 61.4617L239.125 73.3531C239.125 73.3531 236.527 97.5087 247.184 101.134C257.841 104.758 271.2 100.709 275.345 96.9352C279.491 93.1605 282.163 85.7383 282.163 85.7383C282.163 85.7383 287.131 88.0759 291.036 80.3112C294.942 72.5465 291.71 70.3182 291.71 70.3182C291.71 70.3182 289.591 68.7524 286.88 69.4889C284.169 70.2249 283.522 70.9878 283.522 70.9878C283.522 70.9878 290.073 54.6908 288.587 45.8074C287.101 36.9241 271.274 27.317 256.082 33.4133C240.889 39.5095 240.541 61.4617 240.541 61.4617Z" fill="#F4BB82"/>
<path d="M290.412 77.5452C290.412 77.5452 291.521 73.9095 290.638 72.9803C289.755 72.0511 285.856 72.7532 284.418 77.1527C282.98 81.5517 284.578 81.8127 285.571 81.8203C286.563 81.8283 287.691 80.3652 287.54 78.3019C287.388 76.239 286.542 76.3361 286.542 76.3361C286.542 76.3361 288.181 73.313 289.579 73.8572C290.978 74.4014 290.13 77.5772 290.13 77.5772L290.412 77.5452Z" fill="#E58E63"/>
<path d="M265.879 68.6724C266.07 67.0642 267.125 65.8829 268.234 66.0342C269.344 66.1859 270.088 67.6122 269.896 69.2208C269.704 70.829 268.65 72.0103 267.54 71.859C266.431 71.7073 265.687 70.281 265.879 68.6724Z" fill="#4C311E"/>
<path d="M244.834 65.7998C245.025 64.1912 246.08 63.0104 247.189 63.1616C248.299 63.3129 249.043 64.7396 248.851 66.3483C248.659 67.9564 247.605 69.1377 246.496 68.9865C245.386 68.8347 244.642 67.4085 244.834 65.7998Z" fill="#4C311E"/>
<path d="M248.716 75.7841C249.111 73.7929 251.348 72.4048 252.5 70.9516C253.23 70.0309 253.912 69.0551 254.391 67.9563C254.959 66.6572 255.016 65.3492 255.265 63.9724C255.282 63.8763 255.415 63.8419 255.452 63.945C256.403 66.6125 254.784 70.1068 253.268 72.1791C252.869 72.7247 252.432 73.2402 251.978 73.734C251.368 74.397 249.948 75.4237 250.138 76.5164C250.266 77.2505 251.384 77.8772 251.947 78.1368C252.758 78.5095 253.426 78.3974 254.263 78.2527C254.514 78.2094 254.657 78.4775 254.591 78.7069C254.12 80.3556 252.101 80.0154 251.011 79.4104C249.677 78.6692 248.361 77.5709 248.716 75.7841Z" fill="#E58E63"/>
<path d="M266.325 58.3434C267.972 57.361 270.847 58.0857 272.494 58.7194C274.2 59.3753 275.685 60.6782 276.19 62.5356C276.342 62.6256 276.447 62.7999 276.4 63.0285L276.327 63.3922C276.296 63.5406 276.209 63.6467 276.101 63.7145C275.997 64.1499 275.585 64.4293 275.117 64.2272C272.474 63.0845 269.822 62.5318 267.069 61.8392C265.39 61.4165 264.556 59.3994 266.325 58.3434Z" fill="#E27023"/>
<path d="M251.401 59.4476C248.576 59.5701 245.873 59.5752 243.076 60.1614C242.581 60.2651 242.225 59.9074 242.2 59.4589C242.107 59.3703 242.04 59.2487 242.036 59.0965L242.027 58.7243C242.022 58.4906 242.156 58.3407 242.322 58.2837C243.146 56.562 244.834 55.5833 246.625 55.2846C248.354 54.9962 251.306 54.8676 252.749 56.1657C254.3 57.5609 253.124 59.3726 251.401 59.4476Z" fill="#E27023"/>
<path d="M251.339 87.1118L247.068 86.1883L246.597 82.3405L262.574 84.5212C262.574 84.5212 260.811 93.4804 252.965 92.4094C250.168 92.0277 248.422 90.6184 247.328 88.9645L247.028 86.7975L251.339 87.1118Z" fill="white"/>
<path d="M246.597 82.3404L247.068 86.1881L251.339 87.1116L247.028 86.7978L247.328 88.9644C245.352 85.9784 245.511 82.1924 245.511 82.1924L246.597 82.3404Z" fill="#E58E63"/>
<path d="M243.149 32.3317C246.799 28.8228 257.828 24.7734 277.659 29.6657C288.094 32.2403 293.516 36.5507 296.295 40.2147C296.295 40.2156 300.212 45.9034 296.375 45.5844C292.536 45.2654 285.225 43.448 285.225 43.448C285.225 43.448 289.621 46.7115 287.613 52.8576C285.606 59.0038 281.306 64.5742 280.255 69.6504C279.599 72.8186 279.222 76.5712 279.03 78.9455C278.003 78.9884 275.153 78.6256 275.111 78.3004C275.061 77.9178 278.117 62.9675 280.101 59.8689C282.087 56.7704 284.189 52.6861 284.487 50.1771C284.786 47.668 284.652 46.6478 284.652 46.6478C284.652 46.6478 282.871 43.0357 278.046 43.5606C273.22 44.086 268.368 46.9753 260.89 44.7706C253.412 42.5664 254.034 39.597 250.588 39.5607C247.14 39.5244 243.016 48.526 243.016 48.526C243.016 48.526 239.499 35.8406 243.149 32.3317Z" fill="#E27023"/>
<path d="M280.255 69.6504C281.306 64.5738 285.606 59.0039 287.613 52.8577C289.621 46.7115 285.225 43.4476 285.225 43.4476C285.225 43.4476 292.536 45.2654 296.374 45.5844C300.212 45.9029 296.295 40.2157 296.295 40.2143C298.797 43.5135 299.155 46.2884 299.094 46.7977C298.966 47.873 291.037 69.9284 291.037 69.9284C291.037 69.9284 289.377 68.905 286.88 69.4888L283.522 70.9876C283.522 70.9876 281.596 72.0483 280.703 74.7265C279.81 77.4048 279.662 78.6482 279.379 78.8829C279.337 78.9182 279.211 78.938 279.03 78.9456C279.221 76.5712 279.599 72.8182 280.255 69.6504Z" fill="#C65A10"/>
<mask id="mask1_81_2273" style="mask-type:luminance" maskUnits="userSpaceOnUse" x="249" y="27" width="35" height="17">
<path d="M249.51 27.5476H283.675V43.4456H249.51V27.5476Z" fill="white"/>
</mask>
<g mask="url(#mask1_81_2273)">
<g opacity="0.240005">
<path d="M266.438 28.1795C266.438 28.1795 258.393 28.2427 261.383 32.0654C264.372 35.8887 283.675 42.0066 283.675 42.0066C283.675 42.0066 276.64 42.6856 274.771 43.3867C272.901 44.0873 253.056 38.2371 250.007 33.3131C246.957 28.3892 258.815 27.378 261.982 27.5712C265.148 27.7644 266.438 28.1795 266.438 28.1795Z" fill="#FFE7D7"/>
</g>
</g>
<path d="M258.697 72.8229C258.834 72.683 259.062 72.6523 259.235 72.7018C259.425 72.756 259.57 72.8945 259.651 73.0891C259.859 73.5919 259.399 74.1253 258.918 73.9882C258.704 73.9269 258.543 73.7559 258.483 73.5278C258.411 73.2522 258.51 73.0128 258.697 72.8229Z" fill="#E27023"/>
<path d="M257.462 69.8134C257.801 69.8596 258.087 70.2229 258.027 70.5951C257.966 70.9688 257.66 71.2496 257.297 71.2001C256.958 71.154 256.671 70.7907 256.732 70.4184C256.792 70.0448 257.099 69.764 257.462 69.8134Z" fill="#E27023"/>
<path d="M259.447 68.2099C259.408 68.1425 259.386 68.0671 259.396 67.9818C259.406 67.8956 259.446 67.8282 259.499 67.7736C259.567 67.6723 259.686 67.6124 259.793 67.5846C259.73 67.603 259.762 67.5936 259.888 67.5563C259.947 67.5441 260.006 67.5408 260.067 67.5474C260.161 67.5644 260.244 67.5973 260.327 67.6459C260.495 67.7429 260.633 67.9262 260.597 68.1458C260.561 68.3677 260.418 68.5044 260.219 68.5572C260.127 68.5817 260.039 68.5911 259.943 68.5821C259.884 68.5722 259.826 68.5534 259.772 68.5256C259.659 68.4559 259.631 68.4379 259.687 68.4723C259.59 68.4167 259.488 68.3267 259.447 68.2099Z" fill="#E27023"/>
<path d="M256.298 63.7481C256.509 63.5663 256.812 63.5851 257.001 63.7877C257.222 64.0238 257.205 64.4229 256.955 64.6297C256.724 64.822 256.4 64.7626 256.216 64.5289C256.035 64.2994 256.088 63.9305 256.298 63.7481Z" fill="#E27023"/>
<path d="M250.956 69.2737C251.782 69.3863 251.619 70.7603 250.792 70.6472C249.967 70.5346 250.129 69.1606 250.956 69.2737Z" fill="#E27023"/>
<path d="M255.121 72.9202C255.174 72.8599 255.224 72.801 255.291 72.7581C255.35 72.7194 255.36 72.7138 255.322 72.7421C255.263 72.7849 255.295 72.7661 255.416 72.685C255.589 72.6158 255.747 72.6478 255.918 72.7011C256.127 72.7661 256.27 73.0667 256.235 73.2877C256.198 73.511 256.024 73.7631 255.791 73.7702C255.623 73.7759 255.439 73.7754 255.301 73.651C255.273 73.626 255.168 73.4861 255.24 73.5921C255.189 73.5535 255.151 73.5044 255.124 73.4451C255.105 73.4121 255.087 73.3782 255.07 73.3442C255.009 73.225 255.033 73.0191 255.121 72.9202Z" fill="#E27023"/>
<path d="M247.457 72.5275C247.464 72.4733 247.483 72.4243 247.514 72.3814C247.556 72.2971 247.562 72.29 247.532 72.3607C247.644 72.1529 247.833 71.9781 248.077 72.0238C248.323 72.069 248.461 72.2481 248.525 72.4959C248.523 72.479 248.521 72.4625 248.518 72.4455C248.551 72.52 248.565 72.5972 248.558 72.6778C248.559 72.7796 248.533 72.8687 248.506 72.9662C248.441 73.2051 248.142 73.3686 247.922 73.3281C247.699 73.2866 247.448 73.0868 247.44 72.8206C247.438 72.7198 247.433 72.6255 247.457 72.5275Z" fill="#E27023"/>
<path d="M244.964 74.803C244.963 74.6767 245.008 74.5806 245.077 74.5005L245.07 74.5066C245.074 74.5014 245.079 74.4986 245.083 74.4939C245.102 74.4731 245.121 74.4529 245.143 74.4345C245.212 74.3676 245.286 74.3148 245.379 74.2861C245.392 74.2823 245.407 74.2776 245.432 74.27C245.554 74.2338 245.683 74.2366 245.802 74.2898C246.058 74.4039 246.186 74.6206 246.25 74.8991C246.307 75.1455 246.128 75.4532 245.912 75.5399C245.671 75.637 245.413 75.5668 245.246 75.3538C245.385 75.5324 245.197 75.3024 245.156 75.2487C245.117 75.1983 245.083 75.1413 245.058 75.0805C245.001 75.0042 244.965 74.9118 244.964 74.803Z" fill="#E27023"/>
<path d="M245.381 74.2852C245.382 74.2847 245.383 74.2842 245.384 74.2837C245.514 74.2439 245.429 74.2701 245.381 74.2852Z" fill="#E27023"/>
<path d="M245.381 74.2849L245.38 74.2859C245.341 74.2973 245.355 74.2934 245.381 74.2849Z" fill="#E27023"/>
<path d="M241.685 73.1514C241.708 73.1628 241.73 73.1741 241.753 73.1854C241.756 73.1873 241.759 73.1891 241.762 73.191C241.777 73.199 241.792 73.2085 241.805 73.2184C241.969 73.3258 242.023 73.4931 242 73.6528C241.994 73.8182 241.91 73.9751 241.726 74.0425C241.686 74.0608 241.645 74.074 241.6 74.0759C241.591 74.0778 241.583 74.0792 241.574 74.0811C240.822 74.2281 240.987 72.8047 241.685 73.1514Z" fill="#E27023"/>
<path d="M260.491 75.8329C260.5 75.8206 260.509 75.8084 260.518 75.7957C260.786 75.4262 261.34 75.5016 261.513 75.9318C261.519 75.946 261.525 75.9606 261.53 75.9747C261.616 76.1867 261.586 76.4426 261.453 76.6249C261.444 76.6372 261.435 76.6495 261.426 76.6617C261.157 77.0316 260.605 76.9557 260.431 76.526C260.425 76.5119 260.42 76.4977 260.414 76.4831C260.328 76.2711 260.359 76.0152 260.491 75.8329Z" fill="#E27023"/>
<path d="M262.584 73.3571C262.927 73.1418 263.317 73.3755 263.395 73.7727C263.41 73.8476 263.41 73.924 263.398 73.998C263.398 74.0187 263.396 74.0394 263.394 74.0597C263.404 74.1459 263.4 74.2288 263.371 74.3264C263.327 74.4753 263.172 74.5361 263.041 74.5304C262.956 74.5271 262.88 74.4922 262.81 74.4442C262.711 74.4253 262.622 74.3806 262.525 74.3165C262.191 74.0955 262.284 73.5456 262.584 73.3571Z" fill="#E27023"/>
<path d="M266.388 76.3908C266.521 76.1453 266.761 76.0935 267.003 76.166C267.35 76.2697 267.514 76.7253 267.38 77.0636C267.307 77.2502 267.133 77.3699 266.946 77.3713C266.75 77.3727 266.595 77.2531 266.507 77.0693L266.506 77.0688C266.575 77.2139 266.516 77.1009 266.489 77.0495C266.321 76.8737 266.265 76.6179 266.388 76.3908Z" fill="#E27023"/>
<path d="M292.966 124.103C292.966 124.103 311.669 143.224 334.487 144.509C357.305 145.795 374.918 107.345 374.918 107.345L386.527 112.793C386.527 112.793 370.515 155.653 342.893 165.939C315.272 176.225 289.065 161.946 289.065 161.946L292.966 124.103Z" fill="#3ECCB4"/>
<path d="M291.73 163.224C291.73 163.224 286.099 158.439 284.298 154.581C282.497 150.724 282.947 146.384 282.947 146.384C282.947 146.384 281.896 149.117 282.197 156.35C282.497 163.582 286.936 178.831 286.936 178.831L291.73 163.224Z" fill="#2DB59B"/>
<path d="M223.801 119.222C223.801 119.222 222.434 123.935 222.224 129.026C222.015 134.118 221.685 138.83 221.685 138.83C221.685 138.83 217.995 136.824 214.397 133.772C210.799 130.72 202.525 122.387 202.525 122.387C202.525 122.387 211.341 129.107 215.769 130.312C220.198 131.517 223.801 119.222 223.801 119.222Z" fill="#2DB59B"/>
<path d="M221.699 143.974L229.806 136.366L233.809 146.385L244.017 138.83L248.423 148.581L258.027 142.473L263.279 152.867L273.439 144.616L276.642 155.224L282.156 152.65L282.196 156.349L275.345 159.939L271.638 150.51L261.03 158.439L256.426 148.153L246.597 154.582L242.015 144.295L232.808 152.224L228.204 141.938L221.899 148.153L221.699 143.974Z" fill="#A2EDDE"/>
<path d="M222.48 157.163L285.042 171.77L285.823 174.794L222.692 159.939L222.48 157.163Z" fill="#A2EDDE"/>
<path d="M222.225 129.026L282.196 140.438V138.83L222.352 127.147L222.225 129.026Z" fill="#A2EDDE"/>
<path d="M224.054 174.794L230.206 168.082L234.609 177.94L244.017 171.297L248.62 181.154L256.627 174.619L261.43 184.369L270.237 176.226L274.04 187.369L282.196 180.083L284.491 185.757L282.639 190.749L280.645 185.44L272.039 193.798L268.235 183.726L258.828 190.798L254.272 180.94L246.018 187.583L242.015 177.511L233.008 184.155L228.605 174.794L224.492 178.831L224.054 174.794Z" fill="#A2EDDE"/>
<path d="M226.085 191.427L278.578 201.121L277.591 203.512L226.085 193.798V191.427Z" fill="#A2EDDE"/>
<path d="M373.9 109.423L385.518 115.297L384.471 117.715L372.926 111.292L373.9 109.423Z" fill="#A2EDDE"/>
<path d="M183.039 32.9614L177.215 33.8058L176.817 35.592L183.284 34.2765L183.039 32.9614Z" fill="#A2EDDE"/>
<path d="M229.655 248.927L254.272 257.284L254.151 260.016L248.423 260.66L245.659 299.534L241.964 257.605L229.655 248.927Z" fill="#73B6C6"/>
<path d="M267.327 216.234C267.327 216.234 275.291 264.517 281.445 290.233C287.601 315.948 293.605 340.539 312.219 345.04C330.834 349.54 344.044 336.866 347.947 333.077C351.85 329.289 353.383 327.784 353.383 327.784L354.802 329.667C354.802 329.667 345.545 342.944 330.384 346.323C315.222 349.701 303.512 350.986 292.854 331.217C282.196 311.448 274.09 264.035 271.087 248.927C268.085 233.819 265.233 216.234 265.233 216.234H267.327Z" fill="#73B6C6"/>
<path d="M254.272 214.903C254.272 214.903 254.876 221.871 259.855 226.05C264.832 230.229 268.335 230.229 268.335 230.229V227.657C268.335 227.657 264.132 227.443 260.629 224.014C257.126 220.585 255.919 215.083 255.919 215.083L254.272 214.903Z" fill="#73B6C6"/>
<path d="M239.015 212.964C239.015 212.964 237.512 217.907 234.21 220.585C230.907 223.264 228.774 223.258 228.774 223.258L229.098 221.334C229.098 221.334 231.578 220.994 233.894 218.111C236.211 215.228 237.405 212.705 237.405 212.705L239.015 212.964Z" fill="#73B6C6"/>
</svg>
